<svg width="437" height="352" viewBox="0 0 437 352" fill="none" xmlns="http://www.w3.org/2000/svg">
<g clip-path="url(#clip0_1038_56172)">
<path d="M5.67872 70.47C4.8057 70.6064 3.96816 70.9136 3.21403 71.3741C2.4599 71.8346 1.80399 72.4393 1.28383 73.1536C0.763679 73.8679 0.389498 74.6777 0.182709 75.5368C-0.02408 76.3958 -0.0594159 77.2873 0.0787202 78.16L27.8487 254.63C28.1291 256.393 29.0972 257.972 30.5408 259.022C31.9843 260.072 33.7853 260.506 35.5487 260.23L164.059 240C164.933 239.864 165.772 239.556 166.527 239.095C167.283 238.634 167.94 238.029 168.461 237.313C168.982 236.598 169.357 235.787 169.564 234.927C169.771 234.067 169.807 233.174 169.669 232.3L146.469 84.88L103.789 55L5.67872 70.47Z" fill="#F9F9FF"/>
<path d="M113.759 90.06L146.469 84.88L103.789 55L108.719 86.37C108.806 86.9442 109.005 87.4956 109.306 87.9923C109.606 88.4891 110.002 88.9215 110.471 89.2645C110.939 89.6075 111.471 89.8544 112.035 89.9909C112.6 90.1275 113.186 90.1509 113.759 90.06Z" fill="#E0EBFF"/>
<path d="M103.789 55.0298L108.719 86.3998C108.901 87.546 109.529 88.5737 110.466 89.2592C111.402 89.9447 112.571 90.2324 113.719 90.0598L146.469 84.8798" stroke="#000C1A" stroke-width="0.27" stroke-linecap="round" stroke-linejoin="round"/>
<path d="M76.641 174.66C75.978 171.034 75.7497 167.341 75.961 163.66C76.233 160.752 77.1964 157.951 78.771 155.49C79.6858 153.961 80.8063 152.565 82.101 151.34C83.3541 150.16 84.5267 148.897 85.611 147.56C86.6398 146.286 87.4816 144.872 88.111 143.36C88.757 141.577 88.8989 139.649 88.521 137.79C87.9277 134.064 86.4877 131.617 84.201 130.45C81.8295 129.279 79.1441 128.9 76.541 129.37C72.501 130.037 69.8944 131.6 68.721 134.06C67.4684 137.071 66.9772 140.344 67.291 143.59L52.551 145.88C51.9561 142.411 52.0342 138.86 52.781 135.42C53.4727 132.3 54.8379 129.368 56.781 126.83C58.7754 124.28 61.2784 122.172 64.131 120.64C67.3056 118.934 70.7543 117.797 74.321 117.28C82.541 115.98 89.301 116.647 94.601 119.28C99.901 121.914 103.138 126.987 104.311 134.5C104.686 136.652 104.776 138.844 104.581 141.02C104.39 142.861 103.901 144.658 103.131 146.34C102.334 148.043 101.326 149.639 100.131 151.09C98.881 152.61 97.461 154.2 95.841 155.86C94.5704 157.182 93.4036 158.599 92.351 160.1C91.5427 161.278 90.9376 162.583 90.561 163.96C90.2166 165.264 90.0716 166.613 90.131 167.96C90.2079 169.485 90.3682 171.003 90.611 172.51L76.641 174.66ZM79.641 196.8L77.291 181.8L92.721 179.38L95.071 194.38L79.641 196.8Z" fill="#EE4FE8"/>
<path d="M152.128 183.52C173.106 204.122 191.627 227.085 207.318 251.95C218.666 269.953 228.484 288.876 236.668 308.52L187.748 330.52L145.828 187.88L152.128 183.52Z" fill="#FFD100"/>
<path d="M121.24 171.98L152.6 181.78C159.375 192.479 164.898 203.92 169.06 215.88C182.63 254.98 178.28 290.76 177.06 300.88C177.06 300.88 177.06 301.06 173.06 330.54H29.6903C29.0524 316.238 29.7689 301.907 31.8303 287.74C34.8303 267.18 37.6003 248.09 50.0303 227.13C55.0903 218.61 72.6903 191.34 106.43 177.06C111.24 175.017 116.189 173.319 121.24 171.98Z" fill="#FFD100"/>
<path d="M47.4709 231.68C68.8683 238.549 90.9247 243.164 113.281 245.45C134.278 247.604 155.436 247.694 176.451 245.72C176.951 249.82 177.448 253.92 177.941 258.02C156.191 259.801 134.33 259.741 112.591 257.84C88.5279 255.731 64.7144 251.379 41.4609 244.84C43.4609 240.46 45.4643 236.074 47.4709 231.68Z" fill="#EE4FE8"/>
<path opacity="0.5" d="M182.029 220.71L189.129 222.3L163.269 330.52H148.629L182.029 220.71Z" fill="#FFD100"/>
<path d="M124.011 309.79L130.091 307.9L144.041 315.11L147.551 306.58L129.861 299.78L122.641 303.16L124.011 309.79Z" fill="#FFD100"/>
<path opacity="0.5" d="M29.4609 314.32C46.0399 318.471 62.9344 321.24 79.9709 322.6C95.1003 323.806 110.298 323.899 125.441 322.88V306.58L30.7809 296.01L29.4609 314.32Z" fill="#FFD100"/>
<path d="M133.902 194.52C129.644 193.789 125.851 191.397 123.356 187.87C120.862 184.342 119.871 179.968 120.602 175.71L126.522 141.16L158.632 146.66L152.712 181.21C152.351 183.319 151.578 185.337 150.438 187.147C149.297 188.958 147.811 190.526 146.064 191.762C144.318 192.998 142.344 193.878 140.257 194.351C138.171 194.824 136.011 194.882 133.902 194.52Z" fill="#F7A99C"/>
<path d="M154.359 171.54L135.359 157.14C134.98 163.593 137.133 169.939 141.359 174.83C144.367 178.176 148.26 180.603 152.589 181.83L154.359 171.54Z" fill="#FF7769"/>
<path d="M127.62 130.33C127.62 129.79 126.37 128.76 125.99 128.41C125.357 127.828 124.651 127.331 123.89 126.93C122.402 126.132 120.727 125.749 119.04 125.82C117.351 125.901 115.721 126.469 114.348 127.455C112.974 128.442 111.916 129.805 111.3 131.38C110.723 133.277 110.723 135.303 111.3 137.2C112.095 140.069 113.749 142.627 116.04 144.53C117.935 146.097 120.167 147.205 122.56 147.77C124.35 148.111 126.161 148.335 127.98 148.44C127.847 142.4 127.727 136.363 127.62 130.33Z" fill="#F7A99C"/>
<path d="M123.16 129.88C122.961 140.298 126.659 150.416 133.53 158.25C135.48 160.42 148.42 174.8 163.14 171.47C182.07 167.19 185.23 137.89 185.38 136.3C185.89 130.92 187.38 115.09 175.91 104.49C166.55 95.8299 154.67 96.3299 152.98 96.4299C144.684 97.0185 136.928 100.757 131.3 106.88C123.55 115.51 123.28 125.56 123.16 129.88Z" fill="#F7A99C"/>
<path d="M175.37 134.58C175.25 136.89 176.71 138.84 178.62 138.93C180.53 139.02 182.16 137.22 182.28 134.93C182.4 132.64 180.93 130.67 179.02 130.58C177.11 130.49 175.48 132.26 175.37 134.58Z" fill="#000C1A"/>
<path d="M168.619 136.88L170.999 141.65C171.102 141.856 171.161 142.082 171.173 142.313C171.184 142.543 171.147 142.774 171.064 142.989C170.981 143.205 170.855 143.401 170.692 143.564C170.529 143.728 170.334 143.856 170.119 143.94L166.969 145.19" stroke="#000C1A" stroke-width="1.7" stroke-linecap="round" stroke-linejoin="round"/>
<path d="M145.842 143.01C145.795 143.939 146.026 144.86 146.503 145.658C146.981 146.456 147.684 147.095 148.525 147.492C149.365 147.89 150.305 148.03 151.225 147.894C152.145 147.757 153.004 147.351 153.693 146.727C154.382 146.102 154.87 145.287 155.095 144.385C155.321 143.483 155.274 142.534 154.96 141.659C154.647 140.783 154.08 140.021 153.333 139.467C152.585 138.914 151.691 138.595 150.762 138.55C149.518 138.49 148.302 138.926 147.379 139.762C146.457 140.598 145.904 141.766 145.842 143.01Z" fill="#FF7769"/>
<path d="M123.432 141.55C123.666 140.352 123.647 139.118 123.374 137.928C123.102 136.737 122.583 135.617 121.852 134.64C120.594 133.079 118.821 132.015 116.852 131.64" stroke="#000C1A" stroke-width="1.7" stroke-linecap="round" stroke-linejoin="round"/>
<path d="M121.971 135.36C121.386 135.175 120.765 135.128 120.158 135.222C119.551 135.315 118.974 135.547 118.471 135.9C118.066 136.223 117.73 136.624 117.482 137.079C117.235 137.534 117.082 138.034 117.031 138.55" stroke="#000C1A" stroke-width="1.7" stroke-linecap="round" stroke-linejoin="round"/>
<path d="M181.97 141.8C182.833 141.845 183.668 142.129 184.38 142.62C183.763 145.515 182.962 148.367 181.98 151.16C181.823 151.17 181.666 151.17 181.51 151.16C180.265 151.099 179.095 150.546 178.257 149.622C177.42 148.698 176.984 147.48 177.045 146.235C177.106 144.99 177.659 143.82 178.582 142.982C179.506 142.145 180.725 141.709 181.97 141.77V141.8Z" fill="#FF7769"/>
<path d="M156.928 129.6L160.838 134.04L155.238 136.02" stroke="#000C1A" stroke-width="1.7" stroke-linecap="round" stroke-linejoin="round"/>
<path d="M155.23 154.66L169.32 156.26C169.32 155.97 168.67 151.81 165.32 150.26C161.97 148.71 157.43 150.46 155.23 154.66Z" fill="white"/>
<path d="M123.308 126.65C124.874 127.257 126.243 128.281 127.269 129.609C128.295 130.938 128.938 132.522 129.128 134.19C143.738 132.8 152.178 128.7 157.258 125C157.258 125 157.628 124.73 168.338 116.59C172.952 121.598 178.978 125.085 185.618 126.59C193.298 124.81 198.618 119.07 198.828 113.08C199.018 106.77 193.408 101.99 189.428 100.01C182.938 96.7702 179.948 100.55 170.428 98.0102C162.748 96.0102 163.038 93.1102 155.838 91.3702C153.668 90.8402 144.628 88.6502 135.548 93.4302C127.888 97.4302 121.818 105.6 121.218 114.99C120.987 118.987 121.703 122.983 123.308 126.65Z" fill="#000C1A"/>
<path d="M121.239 171.98C99.17 176.949 78.718 187.425 61.7893 202.43C61.7893 202.43 39.1593 222.67 23.7293 260.21C21.7377 264.788 20.2003 269.551 19.1393 274.43C17.9653 279.555 17.2657 284.777 17.0493 290.03C16.982 291.709 17.4519 293.366 18.3907 294.759C19.3294 296.153 20.6881 297.211 22.2693 297.78C25.1093 298.78 28.3893 299.97 32.0193 301.18C38.7493 303.42 53.6693 309.53 70.5693 311.88C105.819 316.77 125.379 317.99 125.379 317.99L127.969 257.15L81.3893 251.25L121.239 171.98Z" fill="#FFD100"/>
<path d="M158.879 203.27C164.739 223.73 168.359 240.87 170.659 253.36" stroke="#000C1A" stroke-linecap="round" stroke-linejoin="round"/>
<path opacity="0.5" d="M97.9486 199.59L71.8086 258.48H87.6286L97.9486 199.59Z" fill="#FFD100"/>
<path d="M185.741 221.766L171.617 217.764L140.801 326.523L154.925 330.525L185.741 221.766Z" fill="#0075FF"/>
<path d="M126.968 271.48C126.968 271.48 153.458 268.84 156.278 269.71C159.098 270.58 168.768 276.05 170.138 277.61C170.729 278.19 171.184 278.893 171.471 279.669C171.758 280.445 171.87 281.276 171.798 282.1C171.598 283.57 169.648 285.23 169.648 285.23C171.178 287.61 171.228 289.23 170.908 290.34C170.318 292.34 168.008 294.34 167.988 294.4C168.22 295.232 168.36 296.087 168.408 296.95C168.569 298.631 168.272 300.324 167.548 301.85C166.972 302.792 166.211 303.606 165.31 304.244C164.409 304.882 163.388 305.33 162.308 305.56C162.639 306.202 162.779 306.925 162.714 307.644C162.648 308.363 162.379 309.048 161.938 309.62C160.378 311.47 155.698 313.82 150.128 313.04C144.558 312.26 130.128 305.13 130.128 305.13L125.488 306.58L126.968 271.48Z" fill="#F7A99C"/>
<path opacity="0.5" d="M199.29 220.71C234.885 220.71 263.74 191.855 263.74 156.26C263.74 120.665 234.885 91.8101 199.29 91.8101C163.695 91.8101 134.84 120.665 134.84 156.26C134.84 191.855 163.695 220.71 199.29 220.71Z" fill="#E0EBFF"/>
<path d="M199.291 83.4302C184.887 83.4302 170.806 87.7016 158.829 95.7042C146.852 103.707 137.517 115.081 132.005 128.389C126.493 141.697 125.05 156.341 127.86 170.469C130.671 184.596 137.607 197.573 147.792 207.759C157.978 217.944 170.955 224.881 185.083 227.691C199.21 230.501 213.854 229.059 227.162 223.546C240.47 218.034 251.844 208.699 259.847 196.722C267.85 184.746 272.121 170.665 272.121 156.26C272.121 136.944 264.448 118.42 250.79 104.762C237.131 91.1033 218.607 83.4302 199.291 83.4302ZM199.291 217.2C187.238 217.202 175.455 213.63 165.432 206.935C155.409 200.24 147.597 190.723 142.983 179.588C138.369 168.453 137.16 156.199 139.511 144.378C141.861 132.556 147.664 121.696 156.186 113.173C164.709 104.649 175.567 98.844 187.388 96.4919C199.21 94.1397 211.463 95.3459 222.599 99.958C233.735 104.57 243.253 112.381 249.95 122.403C256.647 132.424 260.221 144.207 260.221 156.26C260.221 172.421 253.802 187.92 242.376 199.348C230.949 210.776 215.452 217.198 199.291 217.2Z" fill="#0075FF"/>
<path d="M169.61 285.23C169.61 285.23 159.85 283.41 154.92 281.11C152.584 280.092 150.325 278.906 148.16 277.56" stroke="#000C1A" stroke-width="1.5" stroke-linecap="round" stroke-linejoin="round"/>
<path d="M167.972 294.4C167.972 294.4 156.662 293.27 152.082 290.63C149.829 289.446 147.736 287.981 145.852 286.27" stroke="#000C1A" stroke-width="1.5" stroke-linecap="round" stroke-linejoin="round"/>
<path d="M164.221 304.88C160.446 304.762 156.722 303.976 153.221 302.56C149.938 301.117 146.761 299.446 143.711 297.56" stroke="#000C1A" stroke-width="1.5" stroke-linecap="round" stroke-linejoin="round"/>
<path d="M126.929 271.47L125.449 306.58L130.089 305.13L128.609 271.31L126.929 271.47Z" fill="#FF7769"/>
<path d="M96.1109 203.27C96.1109 203.27 71.8109 256.69 72.4909 258.07C73.1709 259.45 127.941 257.15 127.941 257.15L125.381 317.99C125.381 317.99 82.6209 315.29 65.7109 311.09C48.8009 306.89 29.4609 300.32 29.4609 300.32" stroke="#000C1A" stroke-linecap="round" stroke-linejoin="round"/>
<path d="M202.609 113.11C202.222 113.984 202.194 114.975 202.529 115.87C202.696 116.315 202.949 116.723 203.274 117.07C203.598 117.417 203.988 117.697 204.421 117.893C204.854 118.089 205.322 118.198 205.797 118.213C206.272 118.228 206.745 118.149 207.189 117.98C210.588 116.708 214.219 116.18 217.839 116.43C220.779 116.641 223.658 117.376 226.339 118.6C229.517 119.944 232.291 122.091 234.389 124.83C238.149 130 237.829 136.04 237.519 138.4C237.395 139.352 237.653 140.315 238.239 141.076C238.824 141.838 239.687 142.336 240.639 142.46C241.592 142.585 242.554 142.326 243.316 141.741C244.077 141.156 244.575 140.292 244.699 139.34C245.655 132.749 244.063 126.041 240.249 120.58C237.44 116.846 233.708 113.906 229.419 112.05C225.937 110.436 222.189 109.474 218.359 109.21C213.696 108.884 209.016 109.566 204.639 111.21C204.192 111.376 203.782 111.629 203.433 111.956C203.084 112.282 202.804 112.674 202.609 113.11Z" fill="white"/>
<path d="M75.8502 197.88C51.8791 219.185 34.3976 246.814 25.4102 277.6" stroke="white" stroke-linecap="round" stroke-linejoin="round"/>
<path d="M131.199 318H247.069V330.53H138.839C136.813 330.53 134.87 329.725 133.437 328.292C132.004 326.86 131.199 324.916 131.199 322.89V318Z" fill="#32DBCF"/>
<path d="M327.801 330.53H209.731C205.091 330.53 201.791 326.53 202.361 321.68L211.281 244.68C211.851 239.79 216.071 235.83 220.701 235.83H338.781C343.421 235.83 346.721 239.83 346.151 244.68L337.231 321.68C336.661 326.56 332.441 330.53 327.801 330.53Z" fill="#32DBCF"/>
<path d="M339.199 330.53H221.129C216.489 330.53 213.189 326.53 213.759 321.68L222.679 244.68C223.249 239.79 227.469 235.83 232.099 235.83H350.179C354.819 235.83 358.119 239.83 357.549 244.68L348.629 321.68C348.059 326.56 343.839 330.53 339.199 330.53Z" fill="#77EAE2"/>
<path d="M357.549 249.11L348.629 322.11C348.629 322.11 349.029 330.51 335.269 330.51H257.969C281.371 330.365 304.017 322.204 322.133 307.389C340.249 292.574 352.742 271.998 357.529 249.09L357.549 249.11Z" fill="#77EAE2"/>
<path d="M355.09 258.48C350.303 273.985 341.885 288.124 330.537 299.723C319.189 311.322 305.237 320.046 289.84 325.17" stroke="#000C1A" stroke-linecap="round" stroke-linejoin="round"/>
<path d="M285.679 290.88H281.559L284.189 274.14H288.309L285.679 290.88Z" fill="#FFD100"/>
<path d="M291.099 290.88H286.969L288.789 279.34H292.909L291.099 290.88Z" fill="#FFD100"/>
<path d="M170.33 93.7202C157.134 101.157 146.407 112.299 139.476 125.767C132.545 139.235 129.712 154.44 131.33 169.5" stroke="#000C1A" stroke-linecap="round" stroke-linejoin="round"/>
<path d="M177.609 296.59L175.289 280.22" stroke="#000C1A" stroke-linecap="round" stroke-linejoin="round"/>
<path d="M406.518 154.15H251.818C248.273 154.15 245.398 157.024 245.398 160.57V273.83C245.398 277.376 248.273 280.25 251.818 280.25H406.518C410.064 280.25 412.938 277.376 412.938 273.83V160.57C412.938 157.024 410.064 154.15 406.518 154.15Z" fill="#F9F9FF"/>
<path opacity="0.3" d="M412.968 168.74V160.57C412.968 158.867 412.292 157.234 411.088 156.03C409.884 154.826 408.251 154.15 406.548 154.15H251.818C250.975 154.149 250.14 154.314 249.36 154.636C248.581 154.958 247.872 155.431 247.276 156.027C246.679 156.624 246.207 157.332 245.884 158.112C245.562 158.891 245.397 159.726 245.398 160.57V168.74H412.968Z" fill="#0075FF"/>
<path d="M254.109 162.21C254.109 162.606 253.992 162.992 253.772 163.321C253.553 163.65 253.24 163.906 252.875 164.058C252.509 164.209 252.107 164.249 251.719 164.172C251.331 164.094 250.975 163.904 250.695 163.624C250.415 163.344 250.225 162.988 250.148 162.6C250.071 162.212 250.11 161.81 250.262 161.445C250.413 161.079 250.669 160.767 250.998 160.547C251.327 160.327 251.714 160.21 252.109 160.21C252.64 160.21 253.148 160.421 253.524 160.796C253.899 161.171 254.109 161.68 254.109 162.21Z" fill="#F9F9FF"/>
<path d="M260.391 162.21C260.391 162.606 260.273 162.992 260.054 163.321C259.834 163.65 259.521 163.906 259.156 164.058C258.791 164.209 258.388 164.249 258 164.172C257.612 164.094 257.256 163.904 256.976 163.624C256.697 163.344 256.506 162.988 256.429 162.6C256.352 162.212 256.391 161.81 256.543 161.445C256.694 161.079 256.951 160.767 257.279 160.547C257.608 160.327 257.995 160.21 258.391 160.21C258.921 160.21 259.43 160.421 259.805 160.796C260.18 161.171 260.391 161.68 260.391 162.21Z" fill="#F9F9FF"/>
<path d="M266.809 162.21C266.809 162.606 266.691 162.992 266.472 163.321C266.252 163.65 265.939 163.906 265.574 164.058C265.209 164.209 264.806 164.249 264.418 164.172C264.03 164.094 263.674 163.904 263.394 163.624C263.115 163.344 262.924 162.988 262.847 162.6C262.77 162.212 262.809 161.81 262.961 161.445C263.112 161.079 263.369 160.767 263.697 160.547C264.026 160.327 264.413 160.21 264.809 160.21C265.339 160.21 265.848 160.421 266.223 160.796C266.598 161.171 266.809 161.68 266.809 162.21Z" fill="#F9F9FF"/>
<path d="M347.281 198.7V190.52C347.278 189.233 346.765 187.999 345.854 187.09C344.943 186.181 343.708 185.67 342.421 185.67H294.971C293.685 185.67 292.451 186.181 291.542 187.09C290.632 188 290.121 189.234 290.121 190.52V253.17C290.121 254.456 290.632 255.69 291.542 256.599C292.451 257.509 293.685 258.02 294.971 258.02H370.871C372.157 258.02 373.391 257.509 374.301 256.599C375.21 255.69 375.721 254.456 375.721 253.17V203.56C375.722 202.922 375.598 202.29 375.355 201.701C375.112 201.111 374.755 200.575 374.304 200.124C373.854 199.673 373.319 199.314 372.729 199.07C372.14 198.826 371.509 198.7 370.871 198.7H347.281Z" fill="#FFD100"/>
<path d="M342.478 210.12L332.908 219.68L323.348 210.12L317.578 215.89L327.138 225.45L317.578 235.01L323.348 240.78L332.908 231.22L342.478 240.78L348.248 235.01L338.678 225.45L348.248 215.89L342.478 210.12Z" fill="#F9F9FF"/>
<path d="M251.82 154.15H406.52C408.223 154.15 409.856 154.826 411.06 156.03C412.264 157.234 412.94 158.867 412.94 160.57V273.88" stroke="#000C1A" stroke-width="0.27" stroke-linecap="round" stroke-linejoin="round"/>
<path d="M425.47 330.52H10.66C4.77264 330.52 0 335.293 0 341.18C0 347.067 4.77264 351.84 10.66 351.84H425.47C431.357 351.84 436.13 347.067 436.13 341.18C436.13 335.293 431.357 330.52 425.47 330.52Z" fill="#EE4FE8"/>
<path d="M398.36 183.32C397.653 178.584 397.509 173.78 397.93 169.01C398.406 165.247 399.778 161.653 401.93 158.53C403.178 156.584 404.685 154.818 406.41 153.28C408.086 151.808 409.656 150.221 411.11 148.53C412.495 146.921 413.643 145.123 414.52 143.19C415.432 140.906 415.695 138.414 415.28 135.99C414.673 131.13 412.907 127.9 409.98 126.3C406.952 124.684 403.485 124.084 400.09 124.59C394.83 125.257 391.39 127.177 389.77 130.35C388.15 133.523 387.407 137.623 387.54 142.65L368.34 145.06C367.708 140.539 367.949 135.94 369.05 131.51C370.063 127.485 371.944 123.731 374.56 120.51C377.241 117.283 380.565 114.65 384.32 112.78C388.497 110.718 393.001 109.399 397.63 108.88C408.35 107.547 417.083 108.667 423.83 112.24C430.577 115.813 434.577 122.52 435.83 132.36C436.225 135.164 436.252 138.008 435.91 140.82C435.584 143.197 434.878 145.506 433.82 147.66C432.713 149.821 431.343 151.836 429.74 153.66C428.06 155.58 426.15 157.59 423.99 159.66C422.288 161.317 420.72 163.106 419.3 165.01C418.198 166.5 417.359 168.167 416.82 169.94C416.32 171.61 416.077 173.347 416.1 175.09C416.137 177.07 416.284 179.046 416.54 181.01L398.36 183.32ZM401.36 212.12L398.97 192.62L419.06 190.1L421.51 209.6L401.36 212.12Z" fill="#EE4FE8"/>
<path d="M351.408 87.7967C371.493 67.712 371.493 35.1484 351.408 15.0637C331.323 -5.02098 298.76 -5.02099 278.675 15.0637C258.59 35.1483 258.59 67.712 278.675 87.7967C298.76 107.881 331.323 107.881 351.408 87.7967Z" fill="#F9F9FF"/>
<path opacity="0.5" d="M344.55 80.9377C360.847 64.6412 360.847 38.2192 344.55 21.9226C328.253 5.62604 301.831 5.62602 285.535 21.9226C269.238 38.2192 269.238 64.6412 285.535 80.9377C301.831 97.2343 328.253 97.2343 344.55 80.9377Z" fill="#E0EBFF"/>
<path d="M316.422 22.0601H313.672V56.0201H316.422V22.0601Z" fill="#E0EBFF"/>
<path d="M315.059 53.4876L313.684 55.8691L332.736 66.8691L334.111 64.4876L315.059 53.4876Z" fill="#E0EBFF"/>
</g>
<defs>
<clipPath id="clip0_1038_56172">
<rect width="436.13" height="351.85" fill="white"/>
</clipPath>
</defs>
</svg>
