<svg width="452" height="349" viewBox="0 0 452 349" fill="none" xmlns="http://www.w3.org/2000/svg">
<g clip-path="url(#clip0_1220_55655)">
<path d="M388.641 48.2002H65.5508C55.3335 48.2002 47.0508 56.4829 47.0508 66.7002V282.34C47.0508 292.557 55.3335 300.84 65.5508 300.84H388.641C398.858 300.84 407.141 292.557 407.141 282.34V66.7002C407.141 56.4829 398.858 48.2002 388.641 48.2002Z" fill="#F9F9FF"/>
<path opacity="0.3" d="M407.129 82.7799V65.4299C407.129 60.8576 405.313 56.4725 402.08 53.2394C398.846 50.0063 394.461 48.1899 389.889 48.1899H65.5691C60.6546 48.1899 55.9414 50.1422 52.4664 53.6172C48.9913 57.0923 47.0391 61.8055 47.0391 66.7199V82.7799H407.129Z" fill="#0075FF"/>
<path d="M69.0208 66.9601C69.0208 67.9217 68.7355 68.8618 68.201 69.6612C67.6666 70.4606 66.9069 71.0836 66.0183 71.4511C65.1297 71.8187 64.152 71.9143 63.209 71.726C62.2659 71.5376 61.4 71.0738 60.7207 70.3931C60.0414 69.7124 59.5793 68.8455 59.393 67.9021C59.2066 66.9587 59.3042 65.9812 59.6736 65.0933C60.043 64.2054 60.6675 63.4471 61.468 62.9143C62.2685 62.3815 63.2091 62.0981 64.1708 62.1001C64.8085 62.1001 65.44 62.2259 66.0291 62.4702C66.6182 62.7146 67.1533 63.0727 67.6038 63.5242C68.0543 63.9756 68.4113 64.5114 68.6545 65.101C68.8976 65.6906 69.0221 66.3223 69.0208 66.9601Z" fill="#F9F9FF"/>
<path d="M81.8684 66.9601C81.8684 67.9217 81.5831 68.8618 81.0487 69.6612C80.5142 70.4606 79.7546 71.0836 78.866 71.4511C77.9773 71.8187 76.9996 71.9143 76.0566 71.726C75.1136 71.5376 74.2476 71.0738 73.5684 70.3931C72.8891 69.7124 72.427 68.8455 72.2406 67.9021C72.0542 66.9587 72.1519 65.9812 72.5213 65.0933C72.8906 64.2054 73.5151 63.4471 74.3156 62.9143C75.1162 62.3815 76.0568 62.0981 77.0184 62.1001C77.6562 62.1001 78.2877 62.2259 78.8768 62.4702C79.4659 62.7146 80.001 63.0727 80.4514 63.5242C80.9019 63.9756 81.259 64.5114 81.5021 65.101C81.7453 65.6906 81.8698 66.3223 81.8684 66.9601Z" fill="#F9F9FF"/>
<path d="M90.2211 71.8099C92.8997 71.8099 95.0711 69.6384 95.0711 66.9599C95.0711 64.2813 92.8997 62.1099 90.2211 62.1099C87.5425 62.1099 85.3711 64.2813 85.3711 66.9599C85.3711 69.6384 87.5425 71.8099 90.2211 71.8099Z" fill="#F9F9FF"/>
<path d="M335.48 71.7798H141.01C139.724 71.7798 138.49 71.2689 137.581 70.3593C136.671 69.4497 136.16 68.2161 136.16 66.9298C136.16 65.6426 136.671 64.408 137.58 63.4968C138.489 62.5857 139.723 62.0725 141.01 62.0698H335.48C336.767 62.0725 338.001 62.5857 338.91 63.4968C339.82 64.408 340.33 65.6426 340.33 66.9298C340.33 68.2161 339.819 69.4497 338.91 70.3593C338 71.2689 336.766 71.7798 335.48 71.7798Z" fill="#F9F9FF"/>
<path d="M69.0195 48.1899H391.28C395.484 48.1926 399.516 49.8647 402.488 52.8388C405.46 55.8128 407.13 59.8453 407.13 64.0499V281.64" stroke="#000C1A" stroke-width="0.41" stroke-linecap="round" stroke-linejoin="round"/>
<path d="M388.481 58.0702C388.481 58.5844 388.329 59.0871 388.043 59.5147C387.757 59.9423 387.351 60.2755 386.876 60.4723C386.401 60.6691 385.878 60.7206 385.374 60.6203C384.87 60.5199 384.406 60.2723 384.043 59.9087C383.679 59.5451 383.432 59.0818 383.331 58.5775C383.231 58.0731 383.282 57.5503 383.479 57.0752C383.676 56.6002 384.009 56.1941 384.437 55.9084C384.864 55.6227 385.367 55.4702 385.881 55.4702C386.57 55.4728 387.23 55.7476 387.717 56.2346C388.204 56.7217 388.479 57.3815 388.481 58.0702Z" fill="#F9F9FF"/>
<path d="M388.481 66.9599C388.481 67.4741 388.329 67.9768 388.043 68.4043C387.757 68.8319 387.351 69.1652 386.876 69.362C386.401 69.5587 385.878 69.6102 385.374 69.5099C384.87 69.4096 384.406 69.162 384.043 68.7983C383.679 68.4347 383.432 67.9715 383.331 67.4671C383.231 66.9628 383.282 66.44 383.479 65.9649C383.676 65.4898 384.009 65.0837 384.437 64.798C384.864 64.5123 385.367 64.3599 385.881 64.3599C386.57 64.3625 387.23 64.6373 387.717 65.1243C388.204 65.6113 388.479 66.2711 388.481 66.9599Z" fill="#F9F9FF"/>
<path d="M388.481 75.6801C388.481 76.1943 388.329 76.697 388.043 77.1246C387.757 77.5521 387.351 77.8854 386.876 78.0822C386.401 78.279 385.878 78.3304 385.374 78.2301C384.87 78.1298 384.406 77.8822 384.043 77.5186C383.679 77.1549 383.432 76.6917 383.331 76.1873C383.231 75.683 383.282 75.1602 383.479 74.6851C383.676 74.21 384.009 73.8039 384.437 73.5182C384.864 73.2326 385.367 73.0801 385.881 73.0801C386.57 73.0827 387.23 73.3575 387.717 73.8445C388.204 74.3315 388.479 74.9913 388.481 75.6801Z" fill="#F9F9FF"/>
<path d="M23.6804 335.02H108.41C108.841 335.024 109.268 334.935 109.662 334.759C110.055 334.584 110.406 334.325 110.691 334.002C110.976 333.678 111.187 333.297 111.311 332.884C111.436 332.472 111.469 332.037 111.41 331.61L97.8204 220.48C97.6826 219.553 97.2237 218.704 96.5237 218.08C95.8237 217.457 94.9271 217.1 93.9904 217.07H9.27035C8.83939 217.066 8.4126 217.155 8.01906 217.33C7.62552 217.506 7.27446 217.765 6.98978 218.088C6.7051 218.412 6.49349 218.793 6.36934 219.206C6.2452 219.618 6.21143 220.053 6.27035 220.48L19.8604 331.61C19.9978 332.535 20.4553 333.383 21.1532 334.006C21.8511 334.629 22.7454 334.988 23.6804 335.02Z" fill="#0C12D7"/>
<path d="M34.5319 335.02H119.252C119.683 335.024 120.11 334.935 120.503 334.759C120.897 334.584 121.248 334.325 121.532 334.002C121.817 333.678 122.029 333.297 122.153 332.884C122.277 332.472 122.311 332.037 122.252 331.61L108.672 220.48C108.534 219.553 108.075 218.704 107.375 218.08C106.675 217.457 105.779 217.1 104.842 217.07H20.1219C19.6909 217.066 19.2642 217.155 18.8706 217.33C18.4771 217.506 18.126 217.765 17.8414 218.088C17.5567 218.412 17.3451 218.793 17.2209 219.206C17.0968 219.618 17.063 220.053 17.1219 220.48L30.7119 331.61C30.8494 332.535 31.3068 333.383 32.0048 334.006C32.7027 334.629 33.5969 334.988 34.5319 335.02Z" fill="#0075FF"/>
<path d="M197.762 251.91C197.762 251.91 206.222 237.57 206.942 229.86C207.562 223.27 207.722 212 207.752 208.86C207.751 208.633 207.836 208.414 207.99 208.247C208.144 208.08 208.355 207.978 208.582 207.96L209.362 207.88C209.934 207.822 210.512 207.877 211.062 208.043C211.613 208.209 212.125 208.482 212.57 208.846C213.015 209.21 213.384 209.658 213.655 210.165C213.927 210.672 214.095 211.228 214.152 211.8L214.692 217.2L224.482 204.51C224.854 203.999 225.415 203.658 226.039 203.56C226.664 203.463 227.301 203.617 227.812 203.99C228.322 204.363 228.664 204.923 228.761 205.547C228.859 206.172 228.704 206.809 228.332 207.32L222.092 216.32L233.712 204.98C234.146 204.556 234.723 204.312 235.329 204.295C235.935 204.278 236.525 204.491 236.982 204.89C237.221 205.097 237.417 205.35 237.559 205.634C237.7 205.917 237.784 206.226 237.805 206.542C237.826 206.858 237.785 207.175 237.683 207.475C237.581 207.775 237.421 208.052 237.212 208.29L237.352 208.2C237.915 207.811 238.605 207.652 239.282 207.754C239.958 207.857 240.57 208.213 240.993 208.751C241.417 209.289 241.619 209.967 241.559 210.649C241.499 211.331 241.182 211.964 240.672 212.42L239.922 213.08C240.164 212.901 240.441 212.775 240.735 212.71C241.03 212.645 241.334 212.643 241.629 212.703C241.924 212.764 242.203 212.885 242.448 213.061C242.693 213.236 242.899 213.46 243.052 213.72C243.512 214.502 243.707 215.412 243.606 216.313C243.505 217.215 243.114 218.06 242.492 218.72C239.432 221.97 237.182 223.32 234.552 227.21C232.472 230.29 233.922 231.29 232.252 236.16C230.252 242.1 227.162 243.31 222.482 250.16C219.971 253.826 217.891 257.768 216.282 261.91L197.762 251.91Z" fill="#F7A99C"/>
<path d="M228.302 204.6C228.61 204.916 228.798 205.329 228.834 205.769C228.871 206.209 228.753 206.648 228.502 207.01C227.612 208.35 220.602 218.61 220.602 218.61" stroke="#000C1A" stroke-width="0.41" stroke-linecap="round" stroke-linejoin="round"/>
<path d="M237.23 208.32L226.32 218.87" stroke="#000C1A" stroke-width="0.41" stroke-linecap="round" stroke-linejoin="round"/>
<path d="M240.308 212.88L229.328 223.43" stroke="#000C1A" stroke-width="0.41" stroke-linecap="round" stroke-linejoin="round"/>
<path d="M210.379 207.93C210.379 207.93 213.169 208.58 213.659 210.2C214.149 211.82 215.419 222.92 215.419 222.92" stroke="#000C1A" stroke-width="0.41" stroke-linecap="round" stroke-linejoin="round"/>
<path d="M199.56 237.78L176.56 291.12C176.56 291.12 169.56 242.65 167 234.6C165.78 230.68 161.54 226.36 157.5 222.96C154.973 220.641 152.215 218.587 149.27 216.83L149.18 216.77C146.73 215.309 144.184 214.016 141.56 212.9L120.37 206.01C113.471 205.327 106.507 205.746 99.7397 207.25C99.0297 207.4 97.7397 207.71 95.9897 208.2C88.6297 209.57 76.5797 212.96 65.9097 222.51C64.2497 223.99 60.5397 227.51 53.2797 238.78C43.5297 253.93 34.3297 268.21 30.7997 288.59C28.9297 299.37 27.4997 308.44 32.6497 317.44C37.0497 325.14 44.1097 329.04 48.2397 330.86H157.8C158.3 328.68 158.8 326.55 159.23 324.46C164.17 328.17 170.069 330.387 176.23 330.85C183.351 331.136 190.385 329.204 196.36 325.32C202.98 320.86 206.9 314.42 215.48 285.73C218.05 277.13 221.24 265.88 224.48 252.52L199.56 237.78Z" fill="#FFD100"/>
<path d="M91.2994 245.12L75.1094 296L116.659 302.8C109.083 298.102 102.711 291.699 98.0494 284.1C87.5494 267.16 90.4194 249.65 91.2994 245.12Z" fill="#FFD100"/>
<path d="M125.461 214.732L131.954 215.511L128.834 241.525C128.66 242.973 127.918 244.293 126.771 245.194C125.624 246.096 124.166 246.504 122.718 246.331L121.725 246.212L125.501 214.737L125.461 214.732Z" fill="#EE4FE8"/>
<path d="M128.727 222.326L126.767 221.946C124.155 221.429 121.854 219.899 120.367 217.69C118.881 215.481 118.329 212.773 118.833 210.159L123.545 185.855L145.233 190.059L140.521 214.363C140.01 216.982 138.482 219.291 136.271 220.784C134.06 222.277 131.347 222.832 128.727 222.326Z" fill="#F7A99C"/>
<path d="M142.97 206.01L130.3 195.89C129.938 200.272 131.297 204.623 134.09 208.02C136.08 210.327 138.679 212.028 141.59 212.93L142.97 206.01Z" fill="#FF7769"/>
<path d="M125.481 177.54C125.481 177.18 124.671 176.46 124.421 176.22C123.997 175.812 123.524 175.459 123.011 175.17C122.014 174.608 120.885 174.322 119.741 174.34C118.593 174.37 117.477 174.729 116.527 175.375C115.577 176.02 114.832 176.924 114.381 177.98C113.938 179.27 113.893 180.664 114.251 181.98C114.748 183.942 115.829 185.706 117.351 187.04C118.608 188.14 120.104 188.931 121.721 189.35C122.93 189.618 124.156 189.802 125.391 189.9L125.481 177.54Z" fill="#F7A99C"/>
<path d="M122.48 177.17C122.171 184.244 124.51 191.179 129.04 196.62C130.32 198.13 138.86 208.13 148.92 206.12C161.86 203.54 164.51 183.69 164.64 182.61C165.08 178.97 166.37 168.24 158.76 160.84C152.55 154.84 144.47 154.93 143.33 154.96C137.681 155.219 132.344 157.626 128.41 161.69C123.01 167.41 122.65 174.23 122.48 177.17Z" fill="#F7A99C"/>
<path d="M147.128 194.183L153.258 195.455C153.193 195.876 153.044 196.279 152.818 196.64C152.593 197 152.297 197.312 151.947 197.554C151.598 197.797 151.203 197.966 150.786 198.051C150.369 198.136 149.939 198.135 149.523 198.048C149.106 197.962 148.712 197.792 148.363 197.548C148.014 197.304 147.719 196.992 147.495 196.63C147.271 196.268 147.123 195.865 147.06 195.444C146.997 195.023 147.02 194.594 147.128 194.183Z" fill="white"/>
<path d="M157.879 181.26C157.932 181.71 158.111 182.137 158.397 182.489C158.682 182.841 159.062 183.105 159.492 183.249C159.922 183.394 160.384 183.413 160.824 183.304C161.264 183.196 161.665 182.965 161.978 182.638C162.292 182.31 162.506 181.9 162.596 181.456C162.686 181.011 162.647 180.551 162.484 180.127C162.322 179.704 162.042 179.336 161.679 179.065C161.315 178.795 160.881 178.633 160.429 178.6C159.74 178.621 159.087 178.911 158.61 179.409C158.134 179.906 157.871 180.571 157.879 181.26Z" fill="#000C1A"/>
<path d="M143.75 180.21C143.803 180.66 143.982 181.086 144.268 181.439C144.553 181.791 144.933 182.054 145.363 182.199C145.793 182.343 146.255 182.362 146.695 182.254C147.135 182.146 147.536 181.915 147.849 181.587C148.163 181.26 148.377 180.85 148.467 180.406C148.557 179.961 148.518 179.5 148.356 179.077C148.193 178.654 147.914 178.285 147.55 178.015C147.186 177.745 146.752 177.583 146.3 177.55C145.611 177.571 144.958 177.861 144.481 178.359C144.005 178.856 143.742 179.521 143.75 180.21Z" fill="#000C1A"/>
<path d="M153.259 182.71L154.789 185.99C154.857 186.132 154.894 186.287 154.898 186.444C154.902 186.601 154.873 186.758 154.813 186.903C154.752 187.048 154.662 187.179 154.547 187.287C154.433 187.395 154.297 187.478 154.149 187.53L151.969 188.32" stroke="#000C1A" stroke-width="0.73" stroke-linecap="round" stroke-linejoin="round"/>
<path d="M137.669 186.48C137.623 187.109 137.765 187.737 138.076 188.286C138.387 188.834 138.854 189.278 139.417 189.561C139.981 189.844 140.616 189.954 141.241 189.877C141.867 189.8 142.456 189.538 142.934 189.127C143.411 188.715 143.756 188.17 143.924 187.563C144.093 186.955 144.077 186.311 143.88 185.712C143.682 185.113 143.312 184.586 142.815 184.198C142.318 183.809 141.717 183.577 141.089 183.53C140.67 183.499 140.25 183.55 139.851 183.681C139.453 183.813 139.084 184.021 138.767 184.295C138.449 184.569 138.188 184.903 138 185.278C137.812 185.653 137.699 186.061 137.669 186.48Z" fill="#FF7769"/>
<path d="M122.481 185.1C122.651 184.285 122.65 183.444 122.478 182.63C122.306 181.816 121.966 181.046 121.481 180.37C120.658 179.282 119.473 178.523 118.141 178.23" stroke="#000C1A" stroke-width="0.73" stroke-linecap="round" stroke-linejoin="round"/>
<path d="M121.61 180.87C121.217 180.733 120.797 180.69 120.384 180.744C119.971 180.797 119.576 180.947 119.23 181.18C118.954 181.393 118.723 181.66 118.551 181.964C118.379 182.268 118.27 182.603 118.23 182.95" stroke="#000C1A" stroke-width="0.73" stroke-linecap="round" stroke-linejoin="round"/>
<path d="M162.219 186.28C162.805 186.324 163.366 186.532 163.839 186.88C163.37 188.836 162.776 190.76 162.059 192.64C161.949 192.64 161.849 192.64 161.739 192.64C161.321 192.608 160.913 192.495 160.539 192.306C160.164 192.116 159.831 191.855 159.557 191.537C159.284 191.219 159.076 190.85 158.945 190.452C158.814 190.053 158.763 189.633 158.794 189.215C158.826 188.797 158.939 188.389 159.128 188.014C159.318 187.64 159.579 187.306 159.897 187.033C160.215 186.759 160.584 186.551 160.982 186.42C161.381 186.289 161.801 186.238 162.219 186.27V186.28Z" fill="#FF7769"/>
<path d="M122.649 174.98C123.671 175.402 124.559 176.093 125.219 176.98C125.858 178.032 126.324 179.18 126.599 180.38C126.599 180.38 142.329 171.01 148.929 170.88C155.529 170.75 164.749 173.27 164.749 173.27C164.776 171.699 164.574 170.132 164.149 168.62C163.233 165.572 161.504 162.831 159.149 160.69C152.449 154.09 143.479 154.2 143.049 154.21C138.479 154.356 134.075 155.957 130.479 158.78C127.473 161.149 125.185 164.306 123.869 167.9C123.045 170.169 122.632 172.566 122.649 174.98Z" fill="#000C1A"/>
<path d="M174.09 167.17C173.26 172.1 166.39 175.06 158.73 173.78C151.07 172.5 145.53 167.47 146.36 162.54C147.19 157.61 154.05 154.64 161.71 155.92C169.37 157.2 174.91 162.24 174.09 167.17Z" fill="#000C1A"/>
<path d="M119.91 188.64L119.26 193.13C119.186 193.638 119.301 194.156 119.583 194.586C119.865 195.015 120.294 195.326 120.79 195.46L122.4 195.89L123.64 189.65C123.037 189.563 122.44 189.443 121.85 189.29C121.19 189.117 120.542 188.9 119.91 188.64Z" fill="#000C1A"/>
<path d="M157.801 330.89L160.801 317.39L175.221 314.45C175.221 314.45 199.631 326.87 199.881 326.87C199.971 326.87 199.881 327.36 199.751 328.01C199.584 328.801 199.119 329.496 198.452 329.953C197.785 330.409 196.968 330.591 196.171 330.46L178.851 327.62L172.621 330.93L157.801 330.89Z" fill="#F7A99C"/>
<path d="M91.5494 244.35L75.1094 296.01L161.859 310.18L157.799 330.89" stroke="#000C1A" stroke-width="0.41" stroke-linecap="round" stroke-linejoin="round"/>
<path d="M178.458 286.8L173.398 296.68" stroke="#000C1A" stroke-width="0.41" stroke-linecap="round" stroke-linejoin="round"/>
<path d="M147.802 307.68L146.102 240.45" stroke="#000C1A" stroke-width="0.41" stroke-linecap="round" stroke-linejoin="round"/>
<path d="M51.9581 248.37C49.0981 257.01 46.5881 265.72 43.5181 274.31C40.0581 283.96 36.7681 293.99 37.3381 304.39C37.3843 307.352 38.0915 310.266 39.4081 312.92C41.9981 317.63 47.1481 320.22 51.9981 322.54" stroke="white" stroke-width="0.41" stroke-linecap="round" stroke-linejoin="round"/>
<path d="M172.648 330.93L181.118 326.36" stroke="#000C1A" stroke-width="0.41" stroke-linecap="round" stroke-linejoin="round"/>
<path d="M301.988 302.34L303.338 278.56" stroke="#000C1A" stroke-width="0.41" stroke-linecap="round" stroke-linejoin="round"/>
<path d="M419.998 335.02H335.278C334.847 335.024 334.42 334.935 334.027 334.759C333.633 334.584 333.282 334.325 332.998 334.002C332.713 333.678 332.501 333.297 332.377 332.884C332.253 332.472 332.219 332.037 332.278 331.61L345.858 220.48C345.996 219.553 346.455 218.704 347.155 218.08C347.855 217.457 348.751 217.1 349.688 217.07H434.408C434.839 217.066 435.266 217.155 435.659 217.33C436.053 217.506 436.404 217.765 436.689 218.088C436.973 218.412 437.185 218.793 437.309 219.206C437.433 219.618 437.467 220.053 437.408 220.48L423.828 331.61C423.69 332.537 423.231 333.386 422.531 334.009C421.832 334.633 420.935 334.99 419.998 335.02Z" fill="#0C12D7"/>
<path d="M409.151 335.02H324.481C324.05 335.024 323.624 334.935 323.23 334.759C322.836 334.584 322.485 334.325 322.201 334.002C321.916 333.678 321.704 333.297 321.58 332.884C321.456 332.472 321.422 332.037 321.481 331.61L335.021 220.48C335.159 219.555 335.616 218.707 336.314 218.084C337.012 217.461 337.906 217.102 338.841 217.07H423.561C423.992 217.066 424.419 217.155 424.813 217.33C425.206 217.506 425.557 217.765 425.842 218.088C426.127 218.412 426.338 218.793 426.462 219.206C426.586 219.618 426.62 220.053 426.561 220.48L412.981 331.61C412.844 332.537 412.385 333.386 411.685 334.009C410.985 334.633 410.088 334.99 409.151 335.02Z" fill="#0075FF"/>
<path d="M288.091 206.94C287.461 205.7 281.971 194.48 287.651 183.8C291.021 177.47 296.731 174.61 299.651 173.14C307.531 169.14 314.841 169.66 318.771 169.96C323.341 170.31 330.971 170.9 338.061 176.58C339.781 177.96 346.591 183.43 348.201 192.18C349.461 199.02 346.531 202.34 349.201 205.77C352.081 209.45 356.781 207.3 361.361 210.63C364.011 212.56 366.931 216.55 367.311 225.81L292.591 238.22C290.981 237.35 284.811 233.8 283.031 226.82C282.3 223.395 282.472 219.839 283.531 216.5C284.417 213.048 285.966 209.801 288.091 206.94Z" fill="#000C1A"/>
<path d="M312.48 234.6L333.48 229.19C333.48 229.19 358.99 225.87 371.07 234.6C383.15 243.33 401.93 264.3 401.93 264.3L364.36 284.43C364.36 284.43 376.48 302.88 378.98 310.26C381.48 317.64 385.19 330.93 385.19 330.93H299.48C301.48 309.84 302.07 301.93 302.16 299.53C302.16 299.43 302.33 295.17 302.33 295.17L262.91 285.27C263.83 282.88 265.15 279.7 266.91 276.04C269.98 269.555 273.76 263.431 278.18 257.78C282.18 252.7 287.09 246.52 295.62 241.35C300.832 238.191 306.528 235.91 312.48 234.6Z" fill="#EE4FE8"/>
<path d="M323.691 240.96L317.681 252.82L312.441 234.61L322.631 232.49L323.691 240.96Z" fill="white"/>
<path d="M323.691 240.96L330.831 250.05L334.751 229.16L324.131 230L323.691 240.96Z" fill="white"/>
<path d="M306.985 208.766L328.704 204.47L333.516 228.798C334.036 231.423 333.491 234.147 332.002 236.371C330.513 238.594 328.201 240.135 325.576 240.654L323.614 241.043C320.989 241.562 318.265 241.017 316.042 239.528C313.818 238.039 312.277 235.728 311.758 233.102L306.945 208.774L306.985 208.766Z" fill="#F7A99C"/>
<path d="M310.328 225.56L322.988 215.45C323.354 219.828 321.998 224.177 319.208 227.57C317.215 229.881 314.613 231.586 311.698 232.49L310.328 225.56Z" fill="#FF7769"/>
<path d="M327.781 197.1C327.781 196.73 328.601 196.01 328.851 195.77C329.274 195.379 329.744 195.043 330.251 194.77C331.249 194.2 332.382 193.91 333.531 193.93C334.678 193.962 335.791 194.322 336.739 194.967C337.687 195.612 338.431 196.516 338.881 197.57C339.314 198.845 339.359 200.22 339.011 201.52C338.522 203.486 337.444 205.255 335.921 206.59C334.658 207.686 333.159 208.477 331.541 208.9C330.331 209.163 329.105 209.347 327.871 209.45L327.781 197.1Z" fill="#F7A99C"/>
<path d="M330.802 196.72C331.119 203.796 328.783 210.736 324.252 216.18C322.962 217.68 314.422 227.68 304.362 225.67C291.432 223.09 288.782 203.25 288.652 202.17C288.212 198.52 286.912 187.79 294.522 180.39C296.568 178.449 298.978 176.932 301.612 175.924C304.246 174.916 307.054 174.438 309.873 174.517C312.692 174.596 315.468 175.231 318.042 176.384C320.616 177.538 322.937 179.188 324.872 181.24C330.282 186.97 330.642 193.78 330.802 196.72Z" fill="#F7A99C"/>
<path d="M295.419 200.78C295.365 201.229 295.184 201.654 294.898 202.004C294.611 202.355 294.232 202.617 293.802 202.76C293.373 202.903 292.912 202.921 292.473 202.813C292.034 202.704 291.634 202.473 291.321 202.147C291.008 201.82 290.794 201.411 290.704 200.968C290.614 200.524 290.652 200.065 290.813 199.642C290.974 199.219 291.252 198.85 291.614 198.579C291.976 198.308 292.408 198.145 292.859 198.11C293.55 198.131 294.206 198.422 294.685 198.922C295.163 199.421 295.427 200.088 295.419 200.78Z" fill="#000C1A"/>
<path d="M309.549 199.78C309.496 200.23 309.317 200.656 309.032 201.008C308.747 201.36 308.368 201.623 307.938 201.768C307.509 201.912 307.048 201.932 306.608 201.824C306.168 201.717 305.767 201.487 305.453 201.16C305.139 200.834 304.924 200.425 304.834 199.981C304.743 199.537 304.78 199.077 304.941 198.654C305.102 198.23 305.38 197.861 305.743 197.59C306.105 197.318 306.537 197.155 306.989 197.12C307.678 197.144 308.33 197.434 308.808 197.931C309.286 198.428 309.552 199.091 309.549 199.78Z" fill="#000C1A"/>
<path d="M300.041 202.26L298.481 205.54C298.415 205.683 298.379 205.838 298.375 205.995C298.372 206.153 298.401 206.309 298.461 206.455C298.521 206.601 298.611 206.732 298.725 206.842C298.838 206.951 298.973 207.035 299.121 207.09L301.301 207.88" stroke="#000C1A" stroke-width="0.73" stroke-linecap="round" stroke-linejoin="round"/>
<path d="M315.621 206.03C315.669 206.659 315.529 207.288 315.219 207.838C314.909 208.387 314.443 208.833 313.88 209.118C313.316 209.402 312.682 209.514 312.055 209.438C311.429 209.361 310.839 209.101 310.36 208.69C309.882 208.279 309.536 207.735 309.367 207.127C309.198 206.519 309.212 205.874 309.409 205.275C309.606 204.675 309.977 204.148 310.474 203.759C310.971 203.37 311.572 203.137 312.201 203.09C313.044 203.029 313.876 203.304 314.517 203.855C315.158 204.406 315.554 205.188 315.621 206.03Z" fill="#FF7769"/>
<path d="M330.821 204.65C330.64 203.916 330.608 203.153 330.727 202.406C330.846 201.66 331.114 200.945 331.515 200.304C331.917 199.663 332.443 199.109 333.062 198.676C333.681 198.242 334.382 197.937 335.121 197.78" stroke="#000C1A" stroke-width="0.73" stroke-linecap="round" stroke-linejoin="round"/>
<path d="M331.68 200.42C332.075 200.285 332.496 200.243 332.911 200.297C333.325 200.351 333.722 200.499 334.07 200.73C334.345 200.944 334.576 201.211 334.748 201.515C334.919 201.818 335.029 202.153 335.07 202.5" stroke="#000C1A" stroke-width="0.73" stroke-linecap="round" stroke-linejoin="round"/>
<path d="M330.639 194.53C329.654 194.874 328.8 195.517 328.199 196.37C327.602 197.42 327.279 198.603 327.259 199.81C322.132 199.894 317.029 199.085 312.179 197.42C303.179 194.29 298.809 189.27 294.259 191.26C290.969 192.7 288.259 196.74 288.259 196.74C288.138 196.02 288.078 195.29 288.079 194.56C288.036 193.934 288.036 193.306 288.079 192.68C288.636 188.55 290.372 184.668 293.079 181.5C294.248 180.132 295.593 178.924 297.079 177.91C299.811 176.146 302.894 174.997 306.115 174.543C309.335 174.088 312.616 174.34 315.729 175.28C315.729 175.28 323.329 177.55 327.799 184.11C328.922 185.802 329.779 187.657 330.339 189.61C330.716 190.808 330.856 192.068 330.749 193.32C330.744 193.725 330.707 194.13 330.639 194.53Z" fill="#000C1A"/>
<path d="M291.081 205.83C290.496 205.879 289.936 206.086 289.461 206.43C289.925 208.391 290.52 210.319 291.241 212.2H291.551C292.379 212.115 293.141 211.71 293.676 211.072C294.211 210.434 294.476 209.612 294.414 208.782C294.353 207.951 293.971 207.178 293.348 206.625C292.726 206.072 291.913 205.783 291.081 205.82V205.83Z" fill="#FF7769"/>
<path d="M364.388 284.43L374.478 308.94L315.898 313.28V330.93H394.198C396.661 330.93 399.088 330.341 401.277 329.214C403.466 328.087 405.355 326.454 406.786 324.45C408.217 322.446 409.148 320.129 409.504 317.692C409.859 315.256 409.627 312.769 408.828 310.44L394.388 268.35L364.388 284.43Z" fill="#F7A99C"/>
<path d="M394.411 268.35L364.781 284.22L367.881 292.1L398.321 279.75L394.411 268.35Z" fill="#FF7769"/>
<path d="M298.512 294.21L292.442 330.93H262.922L268.992 286.8L298.512 294.21Z" fill="#F7A99C"/>
<path d="M357.682 266.48L374.482 308.94L316.672 313.22C318.512 313.15 341.192 311.93 352.462 292.98C357.094 284.971 358.931 275.648 357.682 266.48Z" fill="#EE4FE8"/>
<path d="M374.5 308.94L356 261.9" stroke="#000C1A" stroke-width="0.41" stroke-linecap="round" stroke-linejoin="round"/>
<path d="M350.129 234.28C350.129 234.28 360.359 233.61 366.229 238.22C372.099 242.83 387.029 260.11 387.029 260.11" stroke="white" stroke-width="0.41" stroke-linecap="round" stroke-linejoin="round"/>
<path d="M307.051 170.53C315.401 168.376 324.18 168.545 332.441 171.02C337.021 172.45 342.441 174.23 346.491 179.5C348.131 181.64 351.291 185.77 350.931 190.91C350.621 195.16 348.071 197.86 349.581 201.63C350.079 202.778 350.823 203.802 351.761 204.63C355.891 208.7 360.611 207.43 363.761 209.52C366.221 211.13 368.411 215.17 367.281 225.79" stroke="#000C1A" stroke-width="0.41" stroke-linecap="round" stroke-linejoin="round"/>
<path d="M288.239 184.89C282.549 192.24 281.979 197.5 282.559 200.99C283.009 203.7 283.989 204.33 284.119 207.25C284.379 213.48 280.119 215.92 279.649 220.54C279.329 223.66 280.649 228.16 288.129 234.19" stroke="#000C1A" stroke-width="0.41" stroke-linecap="round" stroke-linejoin="round"/>
<path d="M268.989 286.8L298.509 294.21L297.379 301L267.789 295.57L268.989 286.8Z" fill="#FF7769"/>
<path d="M361.57 309.9L379.42 308.5" stroke="#000C1A" stroke-width="0.41" stroke-linecap="round" stroke-linejoin="round"/>
<path d="M308.371 324H385.691V325.17C385.691 326.695 385.085 328.158 384.007 329.236C382.929 330.314 381.466 330.92 379.941 330.92H308.371V324Z" fill="#0075FF"/>
<path d="M325.071 330.89H238.151C236.706 330.815 235.319 330.294 234.182 329.399C233.044 328.503 232.213 327.277 231.801 325.89L216.711 268.28C215.981 265.5 217.641 263.28 220.421 263.28H307.341C308.787 263.354 310.173 263.875 311.311 264.771C312.448 265.666 313.279 266.892 313.691 268.28L328.791 325.89C329.481 328.64 327.851 330.89 325.071 330.89Z" fill="#0C12D7"/>
<path d="M318.479 330.89H231.589C230.143 330.815 228.756 330.294 227.619 329.399C226.482 328.503 225.65 327.277 225.239 325.89L210.149 268.28C209.419 265.5 211.079 263.28 213.859 263.28H300.779C302.224 263.354 303.611 263.875 304.748 264.771C305.885 265.666 306.717 266.892 307.129 268.28L322.219 325.89C322.949 328.64 321.289 330.89 318.479 330.89Z" fill="#0075FF"/>
<path d="M306.889 267.54L321.969 324.89C322.266 325.548 322.415 326.264 322.405 326.987C322.394 327.709 322.225 328.42 321.909 329.07C320.599 331.07 317.049 330.97 315.909 330.93C309.909 330.74 278.019 330.81 234.059 330.93C240.469 330.54 265.819 328.23 286.129 307.41C296.763 296.411 303.975 282.56 306.889 267.54Z" fill="#0C12D7"/>
<path d="M271.048 294.34C272.048 298.51 269.518 301.89 265.348 301.89C263.184 301.786 261.109 301 259.421 299.643C257.732 298.287 256.516 296.43 255.948 294.34C254.948 290.17 257.488 286.79 261.658 286.79C263.82 286.896 265.893 287.683 267.58 289.04C269.266 290.396 270.481 292.251 271.048 294.34Z" fill="white"/>
<path d="M222.789 276.05L231.379 309.9" stroke="white" stroke-width="0.41" stroke-linecap="round" stroke-linejoin="round"/>
<path d="M436.56 330.76H8.25C3.69365 330.76 0 334.453 0 339.01V340.62C0 345.176 3.69365 348.87 8.25 348.87H436.56C441.116 348.87 444.81 345.176 444.81 340.62V339.01C444.81 334.453 441.116 330.76 436.56 330.76Z" fill="#EE4FE8"/>
<path d="M112.421 158.96L109.931 161.17L89.2812 141.16L95.6213 135.52L112.421 158.96Z" fill="#EE4FE8"/>
<path d="M117.831 155.19L114.531 155.69L108.191 127.64L116.591 126.39L117.831 155.19Z" fill="#EE4FE8"/>
<path d="M106.14 163.99L105.75 167.3L77.0195 166.07L78.0095 157.64L106.14 163.99Z" fill="#EE4FE8"/>
<path d="M388.48 137.28C371.1 137.28 357.02 150.72 357.02 167.28C357.029 173.058 358.77 178.701 362.02 183.48L357.02 197.3L368.72 190.61C374.382 194.971 381.332 197.328 388.48 197.31C405.86 197.31 419.95 183.87 419.95 167.31C419.95 150.75 405.87 137.28 388.48 137.28Z" fill="#FFD100"/>
<path d="M384.919 175.6C384.973 173.758 385.245 171.928 385.729 170.15C386.168 168.76 386.932 167.494 387.959 166.46C388.544 165.806 389.217 165.237 389.959 164.77C390.694 164.326 391.399 163.835 392.069 163.3C392.703 162.783 393.262 162.181 393.729 161.51C394.231 160.705 394.501 159.778 394.509 158.83C394.609 156.95 394.159 155.61 393.159 154.83C392.128 154.002 390.852 153.538 389.529 153.51C387.529 153.4 386.059 153.89 385.229 154.98C384.305 156.318 383.724 157.864 383.539 159.48L376.109 159.08C376.18 157.325 376.587 155.601 377.309 154C377.97 152.551 378.935 151.261 380.139 150.22C381.379 149.184 382.819 148.415 384.369 147.96C386.096 147.459 387.896 147.266 389.689 147.39C393.843 147.61 397.073 148.63 399.379 150.45C401.686 152.27 402.739 155.083 402.539 158.89C402.501 159.98 402.316 161.059 401.989 162.1C401.706 162.98 401.28 163.807 400.729 164.55C400.153 165.301 399.48 165.973 398.729 166.55C397.969 167.17 397.109 167.79 396.149 168.44C395.387 168.946 394.668 169.515 393.999 170.14C393.482 170.632 393.05 171.207 392.719 171.84C392.418 172.438 392.209 173.079 392.099 173.74C391.981 174.492 391.901 175.25 391.859 176.01L384.919 175.6ZM384.089 186.71L384.499 179.16L392.279 179.58L391.869 187.14L384.089 186.71Z" fill="#EE4FE8"/>
<path d="M213.46 121C196.08 121 182 134.44 182 151C182.009 156.779 183.751 162.422 187 167.2L182 181.02L193.7 174.33C199.362 178.691 206.313 181.048 213.46 181.03C230.84 181.03 244.93 167.59 244.93 151.03C244.93 134.47 230.85 121 213.46 121Z" fill="#0C12D7"/>
<circle cx="204.5" cy="151.5" r="3.5" fill="#FFD100"/>
<circle cx="213.5" cy="151.5" r="3.5" fill="#FFD100"/>
<circle cx="222.5" cy="151.5" r="3.5" fill="#FFD100"/>
</g>
<defs>
<clipPath id="clip0_1220_55655">
<rect width="451.17" height="348.87" fill="white"/>
</clipPath>
</defs>
</svg>
