<svg width="270" height="252" viewBox="0 0 270 252" fill="none" xmlns="http://www.w3.org/2000/svg">
<g clip-path="url(#clip0_998_56816)">
<path d="M140.802 1H32.8738C27.9729 1 24 4.97292 24 9.87376V80.2998C24 85.2006 27.9729 89.1735 32.8738 89.1735H140.802C145.703 89.1735 149.676 85.2006 149.676 80.2998V9.87376C149.676 4.97292 145.703 1 140.802 1Z" fill="#F9F9FF"/>
<path d="M97.6029 32L86.9979 42.6008L76.3971 32L70 38.3971L80.6008 48.9979L70 59.6029L76.3971 66L86.9979 55.3992L97.6029 66L104 59.6029L93.3992 48.9979L104 38.3971L97.6029 32Z" fill="#E0EBFF"/>
<path d="M149.928 12.8276V7.2231C149.928 5.51351 149.251 3.8735 148.045 2.6618C146.839 1.4501 145.202 0.765343 143.493 0.757324H30.7175C29.0037 0.758932 27.3607 1.44085 26.1494 2.65325C24.9382 3.86564 24.2578 5.50932 24.2578 7.2231V12.8276H149.928Z" fill="#E0EBFF"/>
<path d="M31.9236 7.30799C31.9236 7.64268 31.8243 7.96986 31.6384 8.24816C31.4524 8.52645 31.1881 8.74335 30.8789 8.87143C30.5697 8.99951 30.2295 9.03303 29.9012 8.96773C29.5729 8.90243 29.2714 8.74126 29.0347 8.50459C28.798 8.26793 28.6369 7.9664 28.5716 7.63813C28.5063 7.30986 28.5398 6.9696 28.6679 6.66038C28.796 6.35116 29.0129 6.08687 29.2912 5.90092C29.5694 5.71497 29.8966 5.61572 30.2313 5.61572C30.6801 5.61572 31.1106 5.79401 31.4279 6.11137C31.7453 6.42873 31.9236 6.85917 31.9236 7.30799Z" fill="#F9F9FF"/>
<path d="M38.1076 7.308C38.1088 7.64441 38.01 7.9736 37.8239 8.25381C37.6377 8.53403 37.3726 8.75265 37.062 8.88194C36.7514 9.01123 36.4094 9.04538 36.0794 8.98004C35.7494 8.9147 35.4462 8.75283 35.2084 8.51495C34.9705 8.27707 34.8086 7.9739 34.7433 7.64389C34.6779 7.31389 34.7121 6.97191 34.8414 6.66133C34.9707 6.35076 35.1893 6.08558 35.4695 5.89943C35.7497 5.71327 36.0789 5.61453 36.4153 5.61573C36.6376 5.61573 36.8576 5.65951 37.0629 5.74455C37.2682 5.8296 37.4548 5.95424 37.6119 6.11138C37.7691 6.26852 37.8937 6.45508 37.9788 6.66039C38.0638 6.86571 38.1076 7.08577 38.1076 7.308Z" fill="#F9F9FF"/>
<path d="M44.592 7.308C44.5932 7.64415 44.4946 7.9731 44.3087 8.25318C44.1228 8.53327 43.858 8.75189 43.5478 8.88136C43.2375 9.01084 42.8959 9.04533 42.566 8.98049C42.2362 8.91565 41.933 8.75438 41.6949 8.51711C41.4568 8.27984 41.2944 7.97724 41.2284 7.64763C41.1624 7.31802 41.1956 6.97623 41.324 6.66555C41.4524 6.35487 41.67 6.08926 41.9495 5.90238C42.2289 5.7155 42.5575 5.61574 42.8936 5.61573C43.1164 5.61494 43.3371 5.65812 43.5431 5.7428C43.7491 5.82749 43.9364 5.95202 44.0942 6.10924C44.2519 6.26646 44.3771 6.45328 44.4626 6.65899C44.548 6.8647 44.592 7.08525 44.592 7.308Z" fill="#F9F9FF"/>
<path d="M124.908 9.00026H57.0538C56.8311 9.00106 56.6103 8.95787 56.4043 8.87319C56.1983 8.7885 56.011 8.66398 55.8533 8.50676C55.6955 8.34954 55.5703 8.16271 55.4849 7.957C55.3994 7.75129 55.3555 7.53074 55.3555 7.308C55.3555 7.08525 55.3994 6.8647 55.4849 6.65899C55.5703 6.45328 55.6955 6.26646 55.8533 6.10924C56.011 5.95202 56.1983 5.82749 56.4043 5.7428C56.6103 5.65812 56.8311 5.61494 57.0538 5.61573H124.908C125.357 5.61573 125.787 5.79402 126.105 6.11138C126.422 6.42874 126.6 6.85918 126.6 7.308C126.6 7.75681 126.422 8.18724 126.105 8.5046C125.787 8.82196 125.357 9.00026 124.908 9.00026Z" fill="#F9F9FF"/>
<path d="M31.9258 0.993896H144.398C145.865 0.993896 147.272 1.5767 148.309 2.61409C149.346 3.65149 149.929 5.05849 149.929 6.52559V82.4651" stroke="#000C1A" stroke-width="0.248684" stroke-linecap="round" stroke-linejoin="round"/>
<path d="M106.124 125.087H37.6328V202.743H106.124V125.087Z" fill="#F9F9FF"/>
<path d="M107.459 125.087H36.2987C35.8622 125.088 35.4298 125.003 35.0262 124.836C34.6227 124.67 34.2558 124.426 33.9466 124.118C33.6374 123.81 33.3919 123.444 33.2241 123.041C33.0563 122.638 32.9695 122.206 32.9688 121.769C32.9688 120.886 33.3196 120.039 33.9441 119.415C34.5686 118.79 35.4155 118.439 36.2987 118.439H107.459C108.342 118.439 109.189 118.79 109.813 119.415C110.438 120.039 110.789 120.886 110.789 121.769C110.788 122.206 110.701 122.638 110.533 123.041C110.365 123.444 110.12 123.81 109.811 124.118C109.502 124.426 109.135 124.67 108.731 124.836C108.327 125.003 107.895 125.088 107.459 125.087Z" fill="#E0EBFF"/>
<path opacity="0.5" d="M100.514 132.487H43.2383V152.454H100.514V132.487Z" fill="#E0EBFF"/>
<path opacity="0.5" d="M100.514 179.688H43.2383V199.656H100.514V179.688Z" fill="#E0EBFF"/>
<path opacity="0.5" d="M100.514 156.088H43.2383V176.055H100.514V156.088Z" fill="#E0EBFF"/>
<path d="M75.6029 140.712H68.1484V144.224H75.6029V140.712Z" fill="#E0EBFF"/>
<path d="M75.6029 164.312H68.1484V167.824H75.6029V164.312Z" fill="#E0EBFF"/>
<path d="M75.6029 187.913H68.1484V191.425H75.6029V187.913Z" fill="#E0EBFF"/>
<path d="M265.458 202.804H7.88281" stroke="#000C1A" stroke-width="0.442778" stroke-linecap="round" stroke-linejoin="round"/>
<path d="M135.002 251.249C209.509 251.249 269.909 241.459 269.909 229.383C269.909 217.306 209.509 207.517 135.002 207.517C60.4941 207.517 0.09375 217.306 0.09375 229.383C0.09375 241.459 60.4941 251.249 135.002 251.249Z" fill="#F9F9FF"/>
<path d="M237.697 226.356L235.186 226.683L221.672 142.046L229.205 141.07L237.697 226.356Z" fill="#E0EBFF"/>
<path d="M156.039 223.529L158.556 223.857L172.07 139.219L164.531 138.243L156.039 223.529Z" fill="#E0EBFF"/>
<path d="M203.566 225.598L201.055 225.925L187.535 141.282L195.075 140.305L203.566 225.598Z" fill="#E0EBFF"/>
<path d="M230.637 158.993H166.871L169.158 139.044H238.977L237.321 152.946C237.122 154.589 236.336 156.106 235.108 157.217C233.88 158.328 232.293 158.958 230.637 158.993Z" fill="#F9F9FF"/>
<path d="M234.086 152.891H194.8C194.403 152.901 194.008 152.824 193.644 152.665C193.28 152.505 192.955 152.268 192.693 151.969C192.431 151.671 192.238 151.318 192.127 150.937C192.016 150.555 191.991 150.154 192.052 149.761L201.181 75.0652C201.301 74.2123 201.72 73.4297 202.363 72.8567C203.006 72.2836 203.831 71.9572 204.693 71.9354H243.979C244.376 71.9253 244.77 72.0026 245.134 72.1619C245.498 72.3212 245.823 72.5585 246.085 72.8571C246.347 73.1557 246.54 73.5083 246.651 73.8898C246.762 74.2714 246.788 74.6727 246.726 75.0652L237.598 149.761C237.477 150.614 237.058 151.397 236.415 151.97C235.772 152.543 234.947 152.869 234.086 152.891Z" fill="#F9F9FF"/>
<path d="M227.806 152.891H188.52C188.124 152.9 187.73 152.822 187.366 152.663C187.003 152.503 186.679 152.266 186.418 151.967C186.156 151.669 185.964 151.316 185.853 150.935C185.743 150.554 185.717 150.153 185.779 149.761L194.877 75.0714C194.997 74.2185 195.416 73.4359 196.059 72.8628C196.702 72.2897 197.528 71.9633 198.389 71.9416H237.681C238.078 71.9326 238.472 72.0106 238.835 72.1702C239.199 72.3298 239.523 72.5672 239.785 72.8655C240.047 73.1639 240.24 73.516 240.351 73.8971C240.462 74.2782 240.489 74.679 240.428 75.0714L231.324 149.761C231.204 150.615 230.784 151.399 230.14 151.972C229.495 152.545 228.668 152.871 227.806 152.891Z" fill="#E0EBFF"/>
<path d="M174.435 207.85L170.195 197.654L188.968 189.848L200.626 217.876L158.519 236.188L156.402 231.087L174.435 207.85Z" fill="#F7A99C"/>
<path d="M157.022 236.813L156.016 234.386C155.511 233.174 155.344 231.848 155.532 230.549C155.72 229.249 156.256 228.025 157.083 227.005L170.949 209.924C175.438 209.428 179.761 207.943 183.607 205.576C187.974 202.822 191.577 198.819 193.834 199.977C194.383 200.301 194.791 200.818 194.98 201.427L201.149 216.245C201.356 216.745 201.356 217.307 201.149 217.807C200.942 218.308 200.545 218.706 200.045 218.914L157.022 236.813Z" fill="#FFD100"/>
<path d="M167.148 214.619C177.749 214.307 187.863 210.101 195.559 202.804" stroke="#EE4FE8" stroke-width="0.442778" stroke-linecap="round" stroke-linejoin="round"/>
<path d="M112.924 216.105L118.935 204.405L134.341 204.217L133.007 235.678L87.0977 235.83L87.1644 230.31L112.924 216.105Z" fill="#F7A99C"/>
<path d="M85.4727 235.8V233.18C85.4896 231.866 85.8616 230.582 86.5493 229.463C87.237 228.344 88.2147 227.432 89.3788 226.823L108.922 216.639C113.24 217.958 117.797 218.304 122.266 217.652C127.367 216.851 132.262 214.619 133.875 216.554C134.258 217.079 134.431 217.728 134.36 218.374L134.154 234.423C134.151 234.691 134.095 234.956 133.989 235.203C133.883 235.449 133.73 235.672 133.538 235.859C133.346 236.046 133.119 236.194 132.869 236.293C132.62 236.392 132.354 236.441 132.086 236.437L85.4727 235.8Z" fill="#FFD100"/>
<path d="M103.547 219.423C113.406 223.336 124.361 223.476 134.317 219.817" stroke="#EE4FE8" stroke-width="0.442778" stroke-linecap="round" stroke-linejoin="round"/>
<path d="M187.85 118.348C187.85 118.348 144.877 130.867 142.651 134.507C140.425 138.146 141.262 146.031 142.651 151.199C144.04 156.366 164.565 207.522 164.565 207.522L193.971 196.538L173.821 143.817L211.651 124.626L187.85 118.348Z" fill="#0075FF"/>
<path d="M158.562 193.384C158.562 193.384 170.402 177.407 172.21 176.018C174.017 174.629 183.334 168.576 183.334 168.576L185.76 175.042L160.637 197.66L158.562 193.384Z" fill="#0C12D7"/>
<path d="M224.015 129.454C224.015 129.454 226.241 137.642 225.131 140.372C224.021 143.101 173.945 174.539 172.835 176.504C171.725 178.469 140.845 213.746 140.845 213.746L108.316 207.328C108.316 207.328 140.306 165.101 148.094 158.702C155.882 152.303 191.213 121.551 191.213 121.551L224.015 129.454Z" fill="#0075FF"/>
<path d="M215.094 70.7104L231.671 61.5091C231.851 61.4086 232.004 61.2662 232.118 61.094C232.231 60.9217 232.302 60.7247 232.323 60.5195C232.345 60.3143 232.316 60.1069 232.241 59.9149C232.165 59.723 232.045 59.552 231.889 59.4165L222.985 51.6102L220.055 41.3717C223.088 41.1534 232.841 40.8501 241.357 47.5039C243.614 49.275 251.626 55.5346 250.716 62.6676C250.11 67.2591 245.191 71.0379 235.304 78.6015C232.441 80.7851 229.972 82.5077 228.195 83.6965L215.094 70.7104Z" fill="#EE4FE8"/>
<path d="M220.525 43.0154C220.525 43.0154 215.564 41.1351 214.721 40.9835C213.877 40.8319 205.355 43.4097 205.355 43.4097L205.707 45.2718C205.707 45.2718 212.088 45.5629 212.379 45.7388C212.67 45.9147 216.48 49.8512 217.28 50.1848C218.081 50.5184 222.739 50.8702 222.739 50.8702L220.525 43.0154Z" fill="#F7A99C"/>
<path d="M204.53 69.837L189.233 58.6401C189.067 58.5185 188.933 58.3588 188.842 58.1746C188.751 57.9904 188.705 57.787 188.708 57.5814C188.712 57.3759 188.765 57.1742 188.862 56.9932C188.96 56.8123 189.1 56.6574 189.269 56.5415L199.083 49.8695L203.262 40.0799C200.266 39.4733 190.64 37.9691 181.36 43.5129C178.897 44.9868 170.175 50.1849 170.188 57.4028C170.188 62.0307 174.627 66.3979 183.495 75.1321C186.061 77.6553 188.299 79.6691 189.912 81.0763L204.53 69.837Z" fill="#EE4FE8"/>
<path d="M202.594 41.7053C202.594 41.7053 207.75 40.4618 208.605 40.4133C209.46 40.3648 217.594 43.9859 217.594 43.9859L216.987 45.8055C216.987 45.8055 210.625 45.296 210.315 45.4355C210.006 45.575 205.736 49.002 204.899 49.2325C204.062 49.463 199.367 49.2325 199.367 49.2325L202.594 41.7053Z" fill="#F7A99C"/>
<path d="M204.528 69.8367L215.519 70.6616C221.402 73.3486 224.617 76.6906 226.328 78.8681C228.263 81.2943 233.078 88.3848 231.987 122.078C231.829 126.979 231.592 130.952 231.429 133.391L175.984 118.348C176.621 116.14 182.844 94.9477 189.328 82.2102C191.033 78.856 193.386 74.8589 197.953 72.1961C199.983 71.0164 202.212 70.2168 204.528 69.8367Z" fill="#EE4FE8"/>
<path d="M209.523 75.32C210.976 75.455 212.424 75.0076 213.547 74.0762C214.671 73.1448 215.379 71.8054 215.516 70.3524L216.626 58.5551L205.665 57.5239L204.555 69.3212C204.419 70.7755 204.865 72.2244 205.797 73.3494C206.728 74.4744 208.069 75.1832 209.523 75.32Z" fill="#F7A99C"/>
<path d="M204.864 66.0217L212.336 62.989C211.888 65.1277 210.624 67.0075 208.812 68.2296C207.544 69.0447 206.073 69.4881 204.566 69.5094L204.864 66.0217Z" fill="#FF7769"/>
<path d="M217.22 54.9279C217.269 54.752 217.766 54.5215 217.918 54.4427C218.176 54.308 218.452 54.2081 218.736 54.1455C219.292 54.0189 219.872 54.0419 220.417 54.2122C220.96 54.388 221.441 54.7167 221.802 55.1588C222.164 55.6009 222.39 56.1377 222.455 56.7051C222.477 57.3737 222.302 58.0342 221.951 58.6036C221.444 59.474 220.679 60.1651 219.761 60.5809C219.002 60.93 218.171 61.0962 217.335 61.0662C216.724 61.0187 216.116 60.9316 215.516 60.8054C216.086 58.8442 216.654 56.8851 217.22 54.9279Z" fill="#F7A99C"/>
<path d="M218.707 55.1767C217.856 58.5952 215.758 61.5721 212.824 63.5227C211.999 64.0565 206.516 67.6108 202.003 65.2271C196.199 62.1641 197.757 52.3259 197.842 51.7921C198.146 49.9725 199.055 44.6955 203.732 42.2451C204.983 41.606 206.349 41.2208 207.75 41.1116C209.151 41.0024 210.56 41.1714 211.896 41.6088C213.231 42.0463 214.467 42.7436 215.532 43.6606C216.597 44.5776 217.47 45.6961 218.101 46.9519C219.854 50.4517 219.059 53.7513 218.707 55.1767Z" fill="#F7A99C"/>
<path d="M201.265 52.1076C201.178 52.3233 201.031 52.5095 200.842 52.6442C200.653 52.7789 200.429 52.8564 200.197 52.8674C199.965 52.8785 199.734 52.8227 199.533 52.7066C199.332 52.5905 199.168 52.419 199.061 52.2126C198.954 52.0062 198.909 51.7734 198.931 51.5421C198.953 51.3108 199.041 51.0905 199.184 50.9076C199.327 50.7247 199.52 50.5868 199.739 50.5103C199.959 50.4338 200.196 50.4219 200.422 50.476C200.748 50.5832 201.019 50.8142 201.177 51.1194C201.335 51.4245 201.366 51.7794 201.265 52.1076Z" fill="#000C1A"/>
<path d="M208.151 53.6118C208.065 53.8274 207.918 54.0137 207.729 54.1483C207.539 54.283 207.315 54.3605 207.083 54.3716C206.851 54.3826 206.621 54.3268 206.42 54.2107C206.218 54.0946 206.055 53.9232 205.948 53.7168C205.841 53.5103 205.796 53.2776 205.818 53.0463C205.84 52.8149 205.927 52.5947 206.071 52.4118C206.214 52.2289 206.407 52.0909 206.626 52.0144C206.846 51.9379 207.082 51.926 207.308 51.9802C207.635 52.0873 207.906 52.3183 208.064 52.6235C208.221 52.9287 208.253 53.2836 208.151 53.6118Z" fill="#000C1A"/>
<path d="M203.263 53.4539L202.05 54.8004C201.998 54.8584 201.958 54.9268 201.934 55.0011C201.91 55.0754 201.901 55.154 201.909 55.2317C201.917 55.3095 201.941 55.3847 201.98 55.4525C202.019 55.5203 202.072 55.5792 202.135 55.6253L203.057 56.3107" stroke="#000C1A" stroke-width="0.442778" stroke-linecap="round" stroke-linejoin="round"/>
<path d="M210.161 57.4754C210.094 57.7825 209.937 58.0626 209.711 58.2806C209.484 58.4985 209.198 58.6444 208.889 58.6998C208.58 58.7552 208.261 58.7176 207.973 58.5919C207.685 58.4661 207.44 58.2577 207.271 57.9931C207.101 57.7286 207.014 57.4196 207.02 57.1054C207.026 56.7912 207.125 56.4858 207.304 56.2278C207.484 55.9699 207.736 55.7709 208.028 55.6561C208.321 55.5414 208.641 55.5159 208.948 55.583C209.359 55.6745 209.717 55.9248 209.944 56.2793C210.172 56.6338 210.25 57.0638 210.161 57.4754Z" fill="#FF7769"/>
<path d="M217.594 58.9553C217.625 58.5497 217.739 58.155 217.93 57.7959C218.121 57.4368 218.385 57.1211 218.704 56.8687C219.251 56.4658 219.924 56.2722 220.602 56.3229" stroke="#000C1A" stroke-width="0.442778" stroke-linecap="round" stroke-linejoin="round"/>
<path d="M218.609 57.063C218.817 57.0516 219.024 57.0896 219.214 57.1739C219.404 57.2583 219.571 57.3866 219.701 57.5483C219.806 57.6882 219.881 57.8481 219.922 58.0181C219.962 58.1882 219.968 58.3647 219.938 58.5369" stroke="#000C1A" stroke-width="0.442778" stroke-linecap="round" stroke-linejoin="round"/>
<path d="M218.948 54.109C218.429 54.1277 217.929 54.3127 217.523 54.6367C217.089 55.0546 216.766 55.5735 216.583 56.147C215.381 56.1545 214.209 55.7689 213.247 55.0491C211.536 53.6541 212.179 52.0164 210.766 50.9004C209.444 49.8571 208.34 50.9004 203.445 50.6214C199.606 50.4151 198.514 49.6933 198.453 49.1899C198.476 48.8251 198.551 48.4654 198.678 48.1224C198.75 47.8183 198.845 47.5203 198.963 47.2308C199.244 46.6047 199.585 46.0075 199.982 45.4475C200.78 44.3227 201.787 43.3612 202.948 42.615C203.702 42.1277 204.518 41.7422 205.374 41.4686C206.927 41.0135 208.56 40.9021 210.161 41.1419C211.761 41.3818 213.29 41.9672 214.642 42.8576C216.716 44.3212 218.29 46.3882 219.148 48.7775C219.442 49.7425 219.585 50.747 219.573 51.7556C219.581 52.3775 219.47 52.9953 219.246 53.5752C219.16 53.7605 219.061 53.939 218.948 54.109Z" fill="#000C1A"/>
<path d="M198.483 53.8846C198.197 53.8248 197.901 53.8458 197.627 53.9453C197.569 54.9436 197.579 55.9447 197.658 56.9416L197.809 56.9901C198.217 57.0701 198.641 56.9868 198.988 56.7582C199.336 56.5295 199.58 56.1738 199.668 55.7673C199.756 55.3608 199.681 54.936 199.46 54.584C199.238 54.232 198.887 53.9809 198.483 53.8846Z" fill="#FF7769"/>
<path d="M204.009 48.3773C203.051 50.1969 200.424 50.7368 198.144 49.5419C195.863 48.347 194.796 45.9026 195.754 44.0829C196.712 42.2633 199.345 41.7174 201.625 42.9123C203.906 44.1072 204.973 46.5091 204.009 48.3773Z" fill="#000C1A"/>
<path d="M201.922 59.2101C202.38 58.784 202.94 58.4813 203.547 58.3306C204.144 58.1766 204.77 58.1766 205.367 58.3306" stroke="#000C1A" stroke-width="0.442778" stroke-linecap="round" stroke-linejoin="round"/>
<path d="M146.059 160.588L191.192 121.551" stroke="#000C1A" stroke-width="0.442778" stroke-linecap="round" stroke-linejoin="round"/>
<path d="M158.809 193.093C158.809 193.093 171.309 177.777 172.832 176.504C174.354 175.23 183.44 169.007 183.44 169.007" stroke="#000C1A" stroke-width="0.442778" stroke-linecap="round" stroke-linejoin="round"/>
<path d="M225.129 134.737C225.129 134.737 173.779 168.704 171.147 170.572C168.514 172.44 136.301 212.848 136.301 212.848" stroke="white" stroke-width="0.442778" stroke-linecap="round" stroke-linejoin="round"/>
<path d="M190.149 197.957L178.801 172.119" stroke="white" stroke-width="0.442778" stroke-linecap="round" stroke-linejoin="round"/>
<path d="M223.5 66.0397L235.043 59.7681" stroke="#000C1A" stroke-width="0.442778" stroke-linecap="round" stroke-linejoin="round"/>
<path d="M195.062 62.9041L185.812 56.1411" stroke="#000C1A" stroke-width="0.442778" stroke-linecap="round" stroke-linejoin="round"/>
<path d="M190.432 79.5173L185.016 91.8787" stroke="#000C1A" stroke-width="0.442778" stroke-linecap="round" stroke-linejoin="round"/>
<path d="M227.805 81.1306C228.576 82.5851 229.17 84.1266 229.576 85.7222C230.225 88.3364 231.614 98.0714 231.614 98.0714" stroke="#000C1A" stroke-width="0.442778" stroke-linecap="round" stroke-linejoin="round"/>
<path d="M231.788 100.704L231.443 133.391L187.371 121.436C191.902 121.921 206.392 122.885 219.712 113.502C224.543 110.074 228.647 105.725 231.788 100.704Z" fill="#E12FDB"/>
<path d="M180.965 46.5576C179.073 48.1225 176.986 49.5418 175.221 51.2523C173.341 53.0719 171.946 55.6679 172.856 58.2943C173.213 59.3375 173.765 60.1685 175.039 61.7698C176.003 62.9866 177.079 64.1096 178.254 65.124" stroke="white" stroke-width="0.442778" stroke-linecap="round" stroke-linejoin="round"/>
<path d="M209.179 78.6012C209.795 78.6012 210.295 78.1016 210.295 77.4852C210.295 76.8688 209.795 76.3691 209.179 76.3691C208.562 76.3691 208.062 76.8688 208.062 77.4852C208.062 78.1016 208.562 78.6012 209.179 78.6012Z" fill="white"/>
<path d="M208.905 83.017C209.521 83.017 210.021 82.5173 210.021 81.901C210.021 81.2846 209.521 80.7849 208.905 80.7849C208.289 80.7849 207.789 81.2846 207.789 81.901C207.789 82.5173 208.289 83.017 208.905 83.017Z" fill="white"/>
<path d="M208.436 87.9484C209.053 87.9484 209.552 87.4487 209.552 86.8324C209.552 86.216 209.053 85.7163 208.436 85.7163C207.82 85.7163 207.32 86.216 207.32 86.8324C207.32 87.4487 207.82 87.9484 208.436 87.9484Z" fill="white"/>
<path d="M230.449 141.069H35.8567C33.9315 141.069 32.0848 140.307 30.7207 138.948C29.3565 137.59 28.5861 135.746 28.5781 133.821C28.5861 131.896 29.3565 130.053 30.7207 128.694C32.0848 127.336 33.9315 126.573 35.8567 126.573H230.449C232.368 126.581 234.207 127.347 235.565 128.705C236.923 130.062 237.689 131.901 237.697 133.821C237.689 135.741 236.923 137.58 235.565 138.938C234.207 140.295 232.368 141.061 230.449 141.069Z" fill="#FFD100"/>
<path d="M233.676 235.545L230.716 235.933L214.77 136.078L223.661 134.925L233.676 235.545Z" fill="#FFD100"/>
<path d="M34.9414 235.545L37.9013 235.933L53.8474 136.078L44.9555 134.925L34.9414 235.545Z" fill="#FFD100"/>
<path d="M240.151 77.4854L234.262 125.663" stroke="#000C1A" stroke-width="0.442778" stroke-linecap="round" stroke-linejoin="round"/>
<path d="M246.297 78.6013L237.211 153.631" stroke="#000C1A" stroke-width="0.442778" stroke-linecap="round" stroke-linejoin="round"/>
<path d="M131.199 129.958H222.46" stroke="white" stroke-width="0.442778" stroke-linecap="round" stroke-linejoin="round"/>
<path d="M127.493 129.958H117.109" stroke="white" stroke-width="0.442778" stroke-linecap="round" stroke-linejoin="round"/>
<path d="M44.3429 141.07L38.332 201.488" stroke="#000C1A" stroke-width="0.442778" stroke-linecap="round" stroke-linejoin="round"/>
<path d="M215.562 141.07L224.94 199.777" stroke="#000C1A" stroke-width="0.442778" stroke-linecap="round" stroke-linejoin="round"/>
<path d="M178.983 114.939H126.123C125.17 114.904 124.256 114.548 123.53 113.929C122.804 113.311 122.307 112.466 122.12 111.531L116.054 76.6665C115.959 76.2501 115.961 75.8175 116.06 75.402C116.158 74.9865 116.351 74.5991 116.623 74.2698C116.895 73.9405 117.239 73.678 117.628 73.5025C118.017 73.3271 118.442 73.2433 118.869 73.2577H171.729C172.682 73.2936 173.596 73.6494 174.322 74.2679C175.048 74.8863 175.545 75.7312 175.732 76.6665L181.798 111.531C181.893 111.947 181.891 112.38 181.792 112.795C181.693 113.211 181.501 113.598 181.229 113.927C180.957 114.257 180.613 114.519 180.224 114.695C179.835 114.87 179.41 114.954 178.983 114.939Z" fill="#0C12D7"/>
<path d="M175.64 114.939H122.756C121.802 114.904 120.889 114.548 120.163 113.929C119.437 113.311 118.94 112.466 118.752 111.531L112.687 76.6665C112.592 76.2501 112.594 75.8175 112.693 75.402C112.791 74.9865 112.984 74.5991 113.256 74.2698C113.528 73.9405 113.871 73.678 114.261 73.5025C114.65 73.3271 115.075 73.2433 115.501 73.2577H168.362C169.315 73.2936 170.228 73.6494 170.955 74.2679C171.681 74.8863 172.178 75.7312 172.365 76.6665L178.43 111.531C178.525 111.945 178.523 112.375 178.426 112.789C178.329 113.203 178.138 113.589 177.869 113.917C177.6 114.246 177.259 114.509 176.873 114.686C176.487 114.864 176.065 114.95 175.64 114.939Z" fill="#0075FF"/>
<path d="M150.119 126.573H132.578L139.408 96.5006C139.517 96.061 139.766 95.6687 140.117 95.3823C140.468 95.0959 140.902 94.9307 141.355 94.9114H155.706C155.902 94.9016 156.098 94.9398 156.277 95.0227C156.455 95.1055 156.611 95.2305 156.73 95.3869C156.85 95.5433 156.929 95.7265 156.962 95.9205C156.995 96.1145 156.98 96.3136 156.919 96.5006L150.119 126.573Z" fill="#0C12D7"/>
<path d="M147.963 126.573H130.434L137.263 96.5006C137.373 96.061 137.622 95.6687 137.973 95.3823C138.324 95.0959 138.758 94.9307 139.21 94.9114H153.561C153.758 94.9016 153.954 94.9398 154.132 95.0227C154.311 95.1055 154.466 95.2305 154.586 95.3869C154.705 95.5433 154.785 95.7265 154.817 95.9205C154.85 96.1145 154.836 96.3136 154.774 96.5006L147.963 126.573Z" fill="#0075FF"/>
<path d="M130.434 126.573L137.263 96.5005C137.373 96.061 137.622 95.6687 137.973 95.3823C138.324 95.0959 138.758 94.9307 139.21 94.9114H153.561" stroke="#000C1A" stroke-width="0.442778" stroke-linecap="round" stroke-linejoin="round"/>
<path d="M153.084 123.837H200.826C201.106 123.837 201.374 123.949 201.572 124.147C201.77 124.344 201.881 124.613 201.881 124.893V126.573H152.035V124.893C152.035 124.614 152.146 124.346 152.342 124.149C152.539 123.951 152.806 123.839 153.084 123.837Z" fill="#0C12D7"/>
<path d="M215.462 35.0696L213.824 34.2144L220.138 19.627L224.293 21.8045L215.462 35.0696Z" fill="#E0EBFF"/>
<path d="M218.46 37.1317L217.562 35.5244L230.828 26.7659L233.114 30.8601L218.46 37.1317Z" fill="#E0EBFF"/>
<path d="M211.626 32.8072L209.843 33.25L204.863 18.153L209.412 17.0188L211.626 32.8072Z" fill="#E0EBFF"/>
<path d="M93.7188 118.821C94.0948 116.201 94.9045 113.661 96.1146 111.306C96.9516 109.675 98.3346 107 100.894 105.004C105.819 101.177 112.146 102.196 113.747 102.499C110.414 103.206 107.349 104.84 104.903 107.212C103.262 108.747 101.972 110.62 101.125 112.701C100.41 114.749 99.8977 116.862 99.5962 119.009L93.7188 118.821Z" fill="#77EAE2"/>
<path d="M99.124 116.371C99.6294 113.772 99.6991 111.107 99.3303 108.486C99.0755 106.666 98.657 103.682 96.9041 100.959C93.5135 95.7241 87.1993 94.602 85.5859 94.3655C88.5034 96.1361 90.859 98.6978 92.3792 101.753C93.4261 103.743 94.0264 105.937 94.1382 108.183C94.145 110.348 93.9418 112.51 93.5317 114.636L99.124 116.371Z" fill="#77EAE2"/>
<path d="M96.9372 118.409C96.8805 116.183 96.4562 113.982 95.6816 111.895C94.9994 109.756 93.8494 107.796 92.3153 106.157C88.585 102.469 83.2171 102.693 81.8281 102.79C84.5432 103.708 86.9428 105.375 88.7488 107.6C89.9672 109.046 90.8571 110.739 91.357 112.562C91.7486 114.342 91.968 116.156 92.012 117.978L96.9372 118.409Z" fill="#77EAE2"/>
<path d="M98.1953 119.01C98.2277 117.631 98.4901 116.268 98.9717 114.976C99.3928 113.651 100.104 112.437 101.052 111.422C103.363 109.141 106.699 109.281 107.548 109.341C105.866 109.909 104.379 110.941 103.26 112.319C102.507 113.214 101.956 114.261 101.647 115.388C101.403 116.491 101.269 117.614 101.246 118.743L98.1953 119.01Z" fill="#77EAE2"/>
<path d="M81.8281 102.79C87.7723 104.003 90.2652 106.345 91.4358 108.358C93.3343 111.628 93.7225 117.457 93.7225 117.457" stroke="#000C1A" stroke-width="0.163767" stroke-linecap="round" stroke-linejoin="round"/>
<path d="M85.7695 94.4019C87.8621 95.2692 92.205 97.4346 94.8071 102.093C96.1009 104.571 96.8886 107.283 97.1241 110.069C97.4198 112.379 97.4198 114.716 97.1241 117.026" stroke="#000C1A" stroke-width="0.163767" stroke-linecap="round" stroke-linejoin="round"/>
<path d="M113.77 102.499C113.206 102.408 107.068 101.474 102.525 106.084C98.4124 110.257 98.8855 115.643 98.9522 116.395" stroke="#000C1A" stroke-width="0.163767" stroke-linecap="round" stroke-linejoin="round"/>
<path d="M107.55 109.341C106.421 109.377 105.313 109.66 104.305 110.17C103.297 110.681 102.413 111.406 101.715 112.295C100.638 113.781 100.143 115.612 100.326 117.438" stroke="#000C1A" stroke-width="0.163767" stroke-linecap="round" stroke-linejoin="round"/>
<path d="M90.9258 115.704H102.711V122.576C102.711 123.779 102.233 124.933 101.382 125.784C100.531 126.635 99.3773 127.113 98.174 127.113H95.4627C94.2595 127.113 93.1055 126.635 92.2546 125.784C91.4038 124.933 90.9258 123.779 90.9258 122.576V115.704Z" fill="#EE4FE8"/>
<path d="M101.405 118.409V121.769C101.405 122.734 101.021 123.66 100.339 124.343C99.6565 125.025 98.7308 125.408 97.7656 125.408H96.7891" stroke="white" stroke-width="0.442778" stroke-linecap="round" stroke-linejoin="round"/>
</g>
<defs>
<clipPath id="clip0_998_56816">
<rect width="269.816" height="250.485" fill="white" transform="translate(0.09375 0.757324)"/>
</clipPath>
</defs>
</svg>
