<svg width="128" height="128" viewBox="0 0 128 128" fill="none" xmlns="http://www.w3.org/2000/svg">
<mask id="mask0_793_55648" style="mask-type:luminance" maskUnits="userSpaceOnUse" x="0" y="13" width="64" height="115">
<path d="M63.9677 127.995C59.6716 80.2213 -2.19882 86.875 6.02755 13.7014C2.10776 19.1764 5.90159e-05 25.7408 0 32.4741V95.5198C0 113.378 14.6182 127.995 32.4788 127.995H63.9677Z" fill="white"/>
</mask>
<g mask="url(#mask0_793_55648)">
<path d="M63.9673 13.6952H-2.19922V127.988H63.9673V13.6952Z" fill="#0075FF"/>
</g>
<path fill-rule="evenodd" clip-rule="evenodd" d="M63.9677 127.999C59.6716 80.2252 -2.19882 86.8789 6.02755 13.7053C2.10776 19.1803 5.90159e-05 25.7447 0 32.478V70.4064C2.87807 77.3069 7.36135 84.3379 14.0435 91.2108C26.7865 104.317 33.8677 116.06 35.8343 127.993L63.9677 127.999Z" fill="#0C12D7"/>
<path fill-rule="evenodd" clip-rule="evenodd" d="M63.9597 128C59.9307 83.2379 5.36931 86.2535 5.26917 26.6311C4.55219 26.2523 4.16468 26.0593 4.16468 26.0593C4.16468 26.0593 -2.66982 59.2815 20.7103 79.0192C40.3357 95.589 55.1078 106.966 58.3008 127.994L63.9597 128Z" fill="#0C12D7"/>
<mask id="mask1_793_55648" style="mask-type:luminance" maskUnits="userSpaceOnUse" x="3" y="0" width="97" height="128">
<path d="M93.9916 127.995C102.749 106.373 101.539 81.9577 87.8117 62.3607C74.7464 43.681 51.8148 25.8574 57.9817 0H32.4796C21.4782 0 11.7105 5.54502 5.82955 13.9779C-8.14425 89.5402 56.1834 78.5445 63.2313 127.984L93.9916 127.995Z" fill="white"/>
</mask>
<g mask="url(#mask1_793_55648)">
<path d="M102.749 0.0101318H-8.14453V127.994H102.749V0.0101318Z" fill="#EE4FE8"/>
</g>
<path fill-rule="evenodd" clip-rule="evenodd" d="M93.9903 127.995C102.748 106.373 101.537 81.9577 87.8103 62.3607C74.7451 43.681 51.8134 25.8574 57.9803 0H32.4783C31.4623 0 30.4536 0.0493406 29.458 0.14512C25.5393 12.7067 21.458 39.3492 46.0965 62.4609C69.0673 84.0068 80.0397 103.675 77.047 127.987L93.9903 127.995Z" fill="#0C12D7"/>
<path fill-rule="evenodd" clip-rule="evenodd" d="M93.9914 127.995C102.749 106.373 101.539 81.9577 87.8115 62.3607C74.7462 43.681 51.8146 25.8574 57.9815 0H55.549C42.6927 31.1107 74.9973 50.2854 86.5531 75.793C94.0567 92.3657 94.2251 110.577 88.1395 127.984L93.9914 127.995Z" fill="#0C12D7"/>
<mask id="mask2_793_55648" style="mask-type:luminance" maskUnits="userSpaceOnUse" x="55" y="0" width="74" height="128">
<path d="M89.7342 69.7894C99.2784 88.0745 99.2044 108.909 91.621 127.982H95.531C113.392 127.982 128.004 113.372 128.004 95.5133V32.4748C128.011 14.6164 113.393 0 95.5324 0H56.7925C48.4732 27.5161 77.4382 46.2264 89.7386 69.7836" fill="white"/>
</mask>
<g mask="url(#mask2_793_55648)">
<path d="M128.005 0.0101318H48.4727V127.994H128.005V0.0101318Z" fill="#FFD100"/>
</g>
<path fill-rule="evenodd" clip-rule="evenodd" d="M85.2128 62.357C99.1561 82.2732 100.255 106.27 91.6221 127.992H95.5321C98.7163 127.993 101.883 127.522 104.93 126.596C127.345 86.5194 119.684 32.1837 84.4262 0.0078125H56.9053C49.6775 24.8697 72.2434 43.8238 85.207 62.357" fill="#EE4FE8"/>
<path fill-rule="evenodd" clip-rule="evenodd" d="M56.7945 0C48.4055 27.7483 77.9264 46.5572 90.0526 70.3989C99.2761 88.5389 99.1179 109.117 91.6201 127.984H93.726C102.608 105.563 101.041 80.3019 87.5592 61.7484C74.2661 43.4604 52.2488 24.7821 59.6217 0H56.7945Z" fill="#EE4FE8"/>
<path fill-rule="evenodd" clip-rule="evenodd" d="M27.1525 78.3164C16.3456 69.0128 7.53581 57.4583 5.96253 37.709C5.37182 30.2542 6.57936 20.8679 8.59241 10.5339C7.59195 11.6209 6.66627 12.7743 5.82174 13.9863C-8.15206 89.5486 56.1756 78.5529 63.2234 127.992H65.0855C64.9249 126.609 64.7251 125.26 64.4861 123.946C60.3773 101.472 43.8317 92.6701 27.1525 78.3164Z" fill="#EE4FE8"/>
<path fill-rule="evenodd" clip-rule="evenodd" d="M23.132 126.611C14.4678 120.822 7.05181 113.355 1.32227 104.651C2.86247 109.827 5.66019 114.541 9.46576 118.373C13.2713 122.205 17.9664 125.035 23.132 126.611Z" fill="#0075FF"/>
<path fill-rule="evenodd" clip-rule="evenodd" d="M64.0062 13.0414C88.8246 13.0414 108.942 33.1578 108.942 57.9718C108.942 83.0543 90.9335 109.23 64.0062 116.805V102.902C39.1878 102.902 19.0703 82.7873 19.0703 57.9718C19.0703 33.1564 39.1878 13.0414 64.0062 13.0414Z" fill="#F9F9FF"/>
<path fill-rule="evenodd" clip-rule="evenodd" d="M64.0047 26.8917C82.1976 26.8917 96.9508 41.6387 96.9508 59.8338C96.9508 78.2219 83.7433 97.4096 64.0047 102.963V92.7716C45.8118 92.7716 31.0586 78.0245 31.0586 59.8295C31.0586 41.6344 45.806 26.8873 64.0047 26.8873" fill="#000C1A"/>
<path fill-rule="evenodd" clip-rule="evenodd" d="M48.2197 56.165C49.3231 56.165 50.4018 56.4922 51.3193 57.1052C52.2367 57.7181 52.9518 58.5894 53.3741 59.6087C53.7963 60.628 53.9068 61.7496 53.6916 62.8317C53.4763 63.9138 52.9449 64.9078 52.1647 65.688C51.3844 66.4681 50.3903 66.9994 49.3081 67.2146C48.2259 67.4299 47.1041 67.3194 46.0847 66.8972C45.0652 66.475 44.1939 65.76 43.5809 64.8426C42.9678 63.9253 42.6406 62.8467 42.6406 61.7434C42.641 60.2641 43.2289 58.8454 44.2751 57.7993C45.3213 56.7533 46.7402 56.1654 48.2197 56.165Z" fill="#F9F9FF"/>
<path fill-rule="evenodd" clip-rule="evenodd" d="M64.0049 56.165C65.1083 56.165 66.1869 56.4922 67.1044 57.1052C68.0219 57.7181 68.737 58.5894 69.1592 59.6087C69.5815 60.628 69.692 61.7496 69.4767 62.8317C69.2615 63.9138 68.7301 64.9078 67.9498 65.688C67.1696 66.4681 66.1755 66.9994 65.0933 67.2146C64.011 67.4299 62.8893 67.3194 61.8698 66.8972C60.8504 66.475 59.9791 65.76 59.366 64.8426C58.753 63.9253 58.4258 62.8467 58.4258 61.7434C58.4258 60.264 59.0136 58.8451 60.0598 57.7989C61.1061 56.7528 62.5252 56.165 64.0049 56.165Z" fill="#F9F9FF"/>
<path fill-rule="evenodd" clip-rule="evenodd" d="M79.79 56.165C80.8935 56.165 81.9721 56.4922 82.8896 57.1052C83.807 57.7181 84.5221 58.5894 84.9444 59.6087C85.3667 60.628 85.4772 61.7496 85.2619 62.8317C85.0466 63.9138 84.5153 64.9078 83.735 65.688C82.9548 66.4681 81.9607 66.9994 80.8784 67.2146C79.7962 67.4299 78.6744 67.3194 77.655 66.8972C76.6356 66.475 75.7642 65.76 75.1512 64.8426C74.5382 63.9253 74.2109 62.8467 74.2109 61.7434C74.2109 60.264 74.7987 58.8451 75.845 57.7989C76.8913 56.7528 78.3104 56.165 79.79 56.165Z" fill="#F9F9FF"/>
</svg>
