<svg width="215" height="46" viewBox="0 0 215 46" fill="none" xmlns="http://www.w3.org/2000/svg">
<path d="M17.072 45.768C8.048 45.768 0.176 40.072 0.176 29.64C0.176 19.08 8.112 13.512 17.264 13.512C20.72 13.512 23.792 14.216 26.928 15.752V22.92C24.368 21.384 21.68 20.68 18.672 20.68C12.4 20.68 8.56 24.072 8.56 29.64C8.56 35.144 12.272 38.6 18.544 38.6C21.744 38.6 24.88 37.768 27.248 36.424V43.72C24.176 45.064 20.784 45.768 17.072 45.768ZM32.188 45V0.199997H40.38V17.416C42.748 15.112 46.268 13.512 50.236 13.512C57.532 13.512 62.524 18.376 62.524 25.928V45H54.332V27.144C54.332 22.856 51.964 20.68 47.932 20.68C44.604 20.68 42.108 22.472 40.38 24.84V45H32.188ZM94.959 45.448C91.823 45.448 89.583 44.296 88.495 42.056C85.551 44.36 81.839 45.768 77.167 45.768C71.599 45.768 66.415 42.696 66.415 36.488C66.415 28.616 73.711 26.248 80.111 26.248C82.607 26.248 85.423 26.632 87.727 27.08V26.184C87.727 22.664 85.039 20.488 79.471 20.488C75.631 20.488 71.855 21.384 68.975 22.6V15.56C72.175 14.536 76.463 13.512 81.007 13.512C90.607 13.512 95.727 17.992 95.727 27.208V36.872C95.727 38.408 96.431 39.048 97.903 39.048C98.543 39.048 99.119 38.92 99.823 38.728V44.616C98.479 45.192 96.751 45.448 94.959 45.448ZM74.735 35.912C74.735 38.664 77.103 39.944 79.919 39.944C82.735 39.944 85.551 38.984 87.727 37V31.944C85.807 31.496 83.823 31.304 81.839 31.304C77.871 31.304 74.735 32.52 74.735 35.912ZM115.439 45.768C108.527 45.768 104.431 41.992 104.431 34.76V21.256H99.1185V14.28H104.623V6.728L112.559 5.192V14.28H122.799V21.256H112.559V33.864C112.559 37.512 114.287 38.792 117.935 38.792C119.983 38.792 121.839 38.344 123.631 37.704V44.488C121.199 45.32 118.319 45.768 115.439 45.768ZM140.783 45.768C133.871 45.768 129.775 41.992 129.775 34.76V21.256H124.463V14.28H129.967V6.728L137.903 5.192V14.28H148.143V21.256H137.903V33.864C137.903 37.512 139.631 38.792 143.279 38.792C145.327 38.792 147.183 38.344 148.975 37.704V44.488C146.543 45.32 143.663 45.768 140.783 45.768ZM168.573 45.768C158.589 45.768 150.589 40.456 150.589 29.64C150.589 19.208 158.333 13.512 166.653 13.512C178.173 13.512 183.037 21.96 180.989 32.264H158.653C159.805 37.384 164.029 39.24 169.853 39.24C173.309 39.24 176.765 38.472 179.389 37.256V43.784C176.189 45.128 172.477 45.768 168.573 45.768ZM158.589 27.08H173.885C174.333 22.792 171.389 19.912 166.909 19.912C162.301 19.912 159.357 22.792 158.589 27.08ZM185.842 45V14.28H193.138V19.016C195.506 15.432 200.178 13.192 205.746 13.704V21.512C200.434 20.744 195.826 22.984 194.034 26.952V45H185.842Z" fill="#F9F9FF"/>
<path d="M210.035 45.768C207.411 45.768 205.043 44.232 205.043 40.968C205.043 37.768 207.411 36.232 210.035 36.232C212.723 36.232 214.963 37.768 214.963 40.968C214.963 44.232 212.723 45.768 210.035 45.768Z" fill="#EE4FE8"/>
</svg>
