<svg width="128" height="128" viewBox="0 0 128 128" fill="none" xmlns="http://www.w3.org/2000/svg">
<g clip-path="url(#clip0_1314_57710)">
<path d="M64 128.029C99.3462 128.029 128 99.3685 128 64.0143C128 28.6602 99.3462 0 64 0C28.6538 0 0 28.6602 0 64.0143C0 99.3685 28.6538 128.029 64 128.029Z" fill="#77EAE2"/>
<path d="M113.072 138.039C103.452 142.38 94.6552 143.721 93.4408 141.028C92.2264 138.335 99.0481 132.633 108.679 128.293C118.309 123.952 127.095 122.611 128.31 125.294C129.524 127.976 122.702 133.699 113.072 138.039Z" fill="#000C1A"/>
<path d="M109.079 161.715L104.496 150.796L100.821 142.052L97.7272 134.66L90.9266 118.472C87.3362 109.95 90.726 100.457 98.3186 97.8062C99.612 97.3557 100.972 97.1272 102.342 97.1304H102.722C108.604 97.2994 114.338 101.629 116.651 108.282L122.173 124.058L124.644 131.123L135.342 161.747" fill="#F7A99C"/>
<path d="M109.079 161.715L104.496 150.796L100.821 142.052L97.7272 134.66L90.9266 118.472C87.3362 109.95 90.726 100.457 98.3186 97.8062C99.612 97.3557 100.972 97.1272 102.342 97.1304H102.722C108.604 97.2994 114.338 101.629 116.651 108.282L122.173 124.058L124.644 131.123L135.342 161.747" stroke="#000C1A" stroke-width="0.570237" stroke-linecap="round" stroke-linejoin="round"/>
<path d="M128.099 124.977C126.325 122.728 117.887 124.143 108.679 128.282C99.0484 132.633 92.2267 138.335 93.4516 141.039C93.4778 141.095 93.5096 141.148 93.5466 141.197H93.4516L82.8072 116.307C78.636 106.518 83.1451 95.3563 92.6279 92.0194C94.3793 91.4065 96.2213 91.0923 98.0769 91.0901C101.4 91.1526 104.642 92.1273 107.448 93.9077C110.255 95.6881 112.518 98.2057 113.991 101.185L128.099 124.977Z" fill="#000C1A"/>
<path d="M15.7502 138.039C25.3809 142.38 34.1668 143.721 35.3917 141.028C36.6167 138.335 29.7844 132.633 20.1537 128.293C10.5231 123.952 1.73719 122.611 0.522796 125.294C-0.691596 127.976 6.13012 133.699 15.7502 138.039Z" fill="#000C1A"/>
<path d="M-6.48828 161.715L4.19839 131.154L6.67996 124.079L12.2028 108.303C14.5788 101.513 20.4818 97.1409 26.501 97.1409H26.5749C27.9161 97.1475 29.247 97.3758 30.5137 97.8167C38.0852 100.467 41.4855 109.961 37.9057 118.483L31.1051 134.671L28.011 142.063L24.7058 149.919L19.7848 161.715" fill="#F7A99C"/>
<path d="M-6.48828 161.715L4.19839 131.154L6.67996 124.079L12.2028 108.303C14.5788 101.513 20.4818 97.1409 26.501 97.1409H26.5749C27.9161 97.1475 29.247 97.3758 30.5137 97.8167C38.0852 100.467 41.4855 109.961 37.9057 118.483L31.1051 134.671L28.011 142.063L24.7058 149.919L19.7848 161.715" stroke="#000C1A" stroke-width="0.570237" stroke-linecap="round" stroke-linejoin="round"/>
<path d="M0.777344 124.977C2.55141 122.728 10.9888 124.143 20.1971 128.282C29.8277 132.633 36.6494 138.335 35.4245 141.039C35.3941 141.094 35.3588 141.147 35.3189 141.197H35.4245L46.0584 116.265C50.2823 106.476 45.731 95.3141 36.2376 91.9771C34.4901 91.3635 32.6514 91.0493 30.7992 91.0479C27.4756 91.108 24.2327 92.0818 21.4257 93.8624C18.6188 95.6431 16.356 98.162 14.8854 101.143L0.777344 124.977Z" fill="#000C1A"/>
<path d="M81.444 41.3844C78.8357 45.6083 79.0891 50.5504 82.0142 52.4829C84.9393 54.4153 89.4062 52.5885 92.0356 48.3856C94.665 44.1828 94.3905 39.2196 91.4654 37.2871C88.5403 35.3547 84.0628 37.2343 81.444 41.3844Z" fill="#F7A99C" stroke="#000C1A" stroke-width="0.570237" stroke-linecap="round" stroke-linejoin="round"/>
<path d="M89.2695 39.3464C89.9017 39.6034 90.4576 40.0177 90.8846 40.55C91.3115 41.0823 91.5953 41.7149 91.7089 42.3877C91.8022 43.063 91.7201 43.751 91.4704 44.3854C91.2207 45.0198 90.8119 45.5792 90.2833 46.0098" stroke="#000C1A" stroke-width="0.570237" stroke-linecap="round" stroke-linejoin="round"/>
<path d="M46.185 41.3844C48.7933 45.6083 48.5399 50.5504 45.6253 52.4829C42.7108 54.4153 38.2334 52.5885 35.5934 48.3856C32.9534 44.1828 33.2385 39.2196 36.1636 37.2871C39.0887 35.3547 43.5767 37.2343 46.185 41.3844Z" fill="#F7A99C" stroke="#000C1A" stroke-width="0.570237" stroke-linecap="round" stroke-linejoin="round"/>
<path d="M38.3601 39.3464C37.7282 39.6022 37.1729 40.0164 36.7475 40.5491C36.3221 41.0817 36.041 41.7149 35.9313 42.3877C35.8336 43.0623 35.9126 43.7506 36.1607 44.3855C36.4087 45.0204 36.8172 45.58 37.3463 46.0098" stroke="#000C1A" stroke-width="0.570237" stroke-linecap="round" stroke-linejoin="round"/>
<path d="M76.8088 88.3971C76.8656 90.0811 76.5823 91.7592 75.9758 93.3311C75.3694 94.9031 74.4523 96.3367 73.2792 97.5462C72.1062 98.7557 70.7014 99.7163 69.1487 100.371C67.596 101.025 65.9274 101.359 64.2425 101.354C60.9171 101.354 57.7278 100.034 55.3754 97.6835C53.023 95.3331 51.7001 92.1449 51.6973 88.8195C51.6973 88.6822 51.6973 88.5344 51.6973 88.3971L53.0912 69.6955L53.4396 64.9646L54.1366 55.6719H74.3061L75.4254 70.3608L76.2069 81.0368L76.8088 88.3971Z" fill="#F7A99C" stroke="#000C1A" stroke-width="0.591356" stroke-linecap="round" stroke-linejoin="round"/>
<path opacity="0.1" d="M76.2164 81.0368C69.5954 81.512 62.309 78.2173 57.3036 71.8286C55.6678 69.7562 54.3672 67.4401 53.4492 64.9646L54.1462 55.6719H74.3157L75.435 70.3608L76.2164 81.0368Z" fill="#000C1A"/>
<path d="M85.9103 52.9159C85.0435 55.0871 83.9385 57.1555 82.6156 59.083C80.0651 62.9656 76.8135 66.339 73.0272 69.0304C71.1188 70.3265 68.9408 71.172 66.6578 71.5031C64.3748 71.8342 62.0464 71.6423 59.8484 70.9418C56.427 69.7802 53.6075 67.3197 51.0836 64.7325C47.8079 61.6029 45.2062 57.8369 43.4382 53.6657C42.2224 50.2418 41.5698 46.6435 41.5058 43.0107C41.4319 41.0571 41.5058 39.0824 41.5586 37.1183C41.717 33.8869 42.0232 30.6873 42.3083 27.7305C42.6752 24.2076 43.8541 20.8178 45.7524 17.8275C47.6506 14.8371 50.2165 12.3278 53.2484 10.4967C56.2431 8.77216 59.5918 7.75399 63.0396 7.51975C66.4873 7.28551 69.943 7.84138 73.1433 9.14501C76.322 10.4999 79.1477 12.5657 81.4031 15.1835C83.6585 17.8014 85.2835 20.9015 86.1532 24.2457C87.2831 28.7231 86.9874 33.3695 86.998 37.9736C86.998 38.2588 86.998 38.5333 86.998 38.8184C86.998 40.1807 87.0825 41.5429 87.1036 42.9262C87.3814 46.3025 86.9756 49.7001 85.9103 52.9159Z" fill="#F7A99C" stroke="#000C1A" stroke-width="0.570237" stroke-linecap="round" stroke-linejoin="round"/>
<path d="M60.7891 30.4126C62.7362 30.5682 64.6882 30.1807 66.4281 29.2932C67.2876 28.8462 68.031 28.205 68.5993 27.4204C69.1675 26.6359 69.545 25.7296 69.7017 24.7736C70.3566 26.0402 71.2718 27.1541 72.3874 28.0422C73.503 28.9304 74.7937 29.5726 76.175 29.9268C77.5624 30.2681 79.0062 30.3138 80.4125 30.0609C81.8187 29.808 83.1561 29.2623 84.3378 28.459C87.2418 26.4526 88.9208 22.5349 87.6536 19.2507C86.2597 15.6181 82.0885 13.9708 78.2658 13.0943C70.7763 11.494 63.0165 11.664 55.6042 13.5906C53.3338 14.182 47.0084 15.3436 46.1003 17.8146C45.1921 20.2856 48.8353 24.3934 50.4826 25.9457C53.2832 28.6046 56.9341 30.1869 60.7891 30.4126Z" fill="#000C1A"/>
<path d="M70.103 33.0105C71.091 32.4272 72.158 31.9897 73.271 31.7116C74.4375 31.398 75.6434 31.2558 76.8508 31.2892C78.1218 31.3208 79.3698 31.6346 80.5046 32.2079C81.6209 32.7665 82.5199 33.6803 83.0601 34.8057C82.0403 34.447 80.9723 34.2441 79.8921 34.2037C78.9314 34.1858 77.9716 34.2743 77.0303 34.4677C75.119 34.8057 73.1865 35.4604 71.0006 35.7349C70.6232 35.7653 70.2485 35.6497 69.9538 35.412C69.6591 35.1743 69.4668 34.8325 69.4166 34.4572C69.38 34.1756 69.4253 33.8894 69.547 33.6329C69.6687 33.3763 69.8618 33.1602 70.103 33.0105Z" fill="#000C1A"/>
<path d="M59.913 35.7348C57.7376 35.4603 55.7946 34.8056 53.8938 34.4676C52.9491 34.2738 51.9857 34.1853 51.0215 34.2036C49.941 34.2421 48.8728 34.445 47.8535 34.8056C48.3937 33.6802 49.2927 32.7664 50.409 32.2078C51.5438 31.6345 52.7918 31.3207 54.0628 31.2891C55.2701 31.257 56.4758 31.3993 57.6426 31.7115C58.755 31.9914 59.8218 32.4288 60.8106 33.0104C60.9766 33.1093 61.1214 33.24 61.2367 33.395C61.3521 33.55 61.4357 33.7262 61.4828 33.9136C61.5299 34.101 61.5395 34.2958 61.5112 34.4869C61.4828 34.6781 61.4169 34.8617 61.3174 35.0273C61.1746 35.2663 60.9666 35.4598 60.7179 35.585C60.4693 35.7103 60.1901 35.7623 59.913 35.7348Z" fill="#000C1A"/>
<path d="M59.7322 43.0528C59.2993 42.7044 58.8769 42.3242 58.4545 41.9969C58.0627 41.6528 57.63 41.3584 57.1661 41.1204C56.2638 40.6434 55.2616 40.3864 54.241 40.3706C53.2305 40.357 52.229 40.5624 51.3054 40.9725C50.8407 41.1805 50.3984 41.4353 49.9854 41.7329C49.5556 42.1111 49.047 42.3889 48.4964 42.546C48.4625 42.5538 48.4273 42.5547 48.3929 42.5488C48.3585 42.543 48.3257 42.5303 48.2962 42.5117C48.2668 42.493 48.2413 42.4687 48.2213 42.4402C48.2013 42.4116 48.1871 42.3794 48.1796 42.3453C48.1641 42.2937 48.1641 42.2386 48.1796 42.1869C48.4312 41.6782 48.7918 41.2311 49.2356 40.8775C49.6859 40.4646 50.1861 40.1099 50.7246 39.8215C51.811 39.2584 53.0305 39.0028 54.2516 39.0823C55.4655 39.1654 56.6371 39.562 57.6519 40.2333C58.1573 40.5807 58.6152 40.9925 59.0141 41.4583C59.3732 41.8913 59.7322 42.3242 60.0701 42.7677C60.0884 42.7926 60.1016 42.8208 60.1089 42.8509C60.1161 42.8809 60.1173 42.912 60.1124 42.9425C60.1075 42.973 60.0966 43.0022 60.0802 43.0284C60.0639 43.0546 60.0425 43.0772 60.0173 43.0951C59.9715 43.1194 59.9191 43.1284 59.8678 43.1208C59.8165 43.1132 59.769 43.0894 59.7322 43.0528Z" fill="#000C1A"/>
<path d="M56.0992 41.3212C56.0236 40.8114 55.7486 40.3526 55.3347 40.0457C54.9208 39.7387 54.4019 39.6088 53.8922 39.6844C53.3825 39.76 52.9237 40.035 52.6167 40.4489C52.3098 40.8628 52.1798 41.3817 52.2554 41.8914C52.2878 42.1475 52.3709 42.3946 52.4999 42.6183C52.6289 42.8419 52.8012 43.0377 53.0066 43.194C53.2121 43.3503 53.4467 43.4641 53.6966 43.5287C53.9466 43.5934 54.2069 43.6075 54.4624 43.5704C54.719 43.5332 54.9655 43.4451 55.1875 43.3112C55.4094 43.1773 55.6023 43.0004 55.7549 42.7907C55.9074 42.5811 56.0164 42.3431 56.0756 42.0908C56.1347 41.8384 56.1428 41.5767 56.0992 41.3212Z" fill="#000C1A"/>
<path d="M59.6808 42.926C58.7456 43.5033 57.6747 43.8238 56.5762 43.8553" stroke="#000C1A" stroke-width="0.527997" stroke-linecap="round" stroke-linejoin="round"/>
<path d="M59.7864 40.5714C59.189 39.868 58.4572 39.2909 57.634 38.8739C56.8108 38.4569 55.9127 38.2082 54.9922 38.1426" stroke="#000C1A" stroke-width="0.527997" stroke-linecap="round" stroke-linejoin="round"/>
<path d="M69.6482 42.7255C69.9861 42.282 70.3451 41.849 70.7042 41.4161C71.0965 40.9677 71.5435 40.5704 72.0347 40.2334C73.0465 39.5637 74.2142 39.1672 75.4245 39.0823C76.649 39.002 77.8722 39.2576 78.9621 39.8215C79.4973 40.11 79.994 40.4648 80.4404 40.8775C80.8838 41.2317 81.2443 41.6786 81.4964 42.187C81.5219 42.2516 81.5219 42.3236 81.4964 42.3882C81.471 42.4529 81.4219 42.5055 81.3592 42.5354C81.3075 42.551 81.2524 42.551 81.2008 42.5354C80.6493 42.3807 80.1401 42.1027 79.7118 41.7223C79.2988 41.4247 78.8565 41.17 78.3918 40.962C77.4642 40.5526 76.4594 40.3473 75.4456 40.3601C74.4251 40.3759 73.4228 40.6328 72.5205 41.1098C72.0595 41.3527 71.6273 41.6467 71.2322 41.9863C70.8098 42.3454 70.3979 42.7255 69.9544 43.0423C69.9338 43.0634 69.9091 43.0801 69.8819 43.0916C69.8547 43.103 69.8255 43.1089 69.796 43.1089C69.7665 43.1089 69.7373 43.103 69.7101 43.0916C69.6829 43.0801 69.6583 43.0634 69.6376 43.0423C69.6172 43.021 69.6013 42.9958 69.5908 42.9682C69.5802 42.9406 69.5753 42.9112 69.5763 42.8817C69.5773 42.8522 69.5841 42.8232 69.5965 42.7964C69.6088 42.7695 69.6264 42.7455 69.6482 42.7255Z" fill="#000C1A"/>
<path d="M73.6398 41.321C73.718 40.8125 73.9937 40.3554 74.4069 40.049C74.8201 39.7425 75.3375 39.6115 75.8468 39.6842C76.1001 39.7204 76.3438 39.8063 76.5638 39.9369C76.7839 40.0675 76.976 40.2404 77.129 40.4454C77.2821 40.6505 77.3931 40.8838 77.4558 41.1319C77.5185 41.38 77.5315 41.6381 77.4941 41.8912C77.4606 42.1499 77.3756 42.3992 77.2442 42.6244C77.1128 42.8497 76.9376 43.0464 76.7289 43.2029C76.5203 43.3594 76.2824 43.4725 76.0293 43.5356C75.7763 43.5987 75.5131 43.6105 75.2554 43.5702C75.0014 43.5292 74.758 43.4384 74.5391 43.303C74.3203 43.1676 74.1303 42.9904 73.9802 42.7814C73.83 42.5723 73.7227 42.3357 73.6643 42.0851C73.6059 41.8345 73.5975 41.5748 73.6398 41.321Z" fill="#000C1A"/>
<path d="M70.0391 42.926C70.9736 43.5047 72.0449 43.8253 73.1437 43.8553" stroke="#000C1A" stroke-width="0.527997" stroke-linecap="round" stroke-linejoin="round"/>
<path d="M69.9336 40.5714C70.531 39.868 71.2628 39.2909 72.086 38.8739C72.9092 38.4569 73.8073 38.2082 74.7278 38.1426" stroke="#000C1A" stroke-width="0.527997" stroke-linecap="round" stroke-linejoin="round"/>
<path d="M63.5352 57.4037C63.8784 57.7345 64.3362 57.9199 64.8129 57.9211C65.2926 57.9194 65.7536 57.7343 66.1012 57.4037C66.6398 56.8863 67.6007 57.2031 68.3294 57.3087C69.0572 57.4698 69.8072 57.5056 70.547 57.4143C71.0669 57.2972 71.5233 56.9879 71.8247 56.5483" stroke="#000C1A" stroke-width="0.475197" stroke-linecap="round" stroke-linejoin="round"/>
<path d="M63.5348 57.4038C62.9963 56.8863 62.0353 57.2031 61.2961 57.3087C60.5719 57.4702 59.8254 57.5059 59.0891 57.4143C58.7908 57.3482 58.515 57.2052 58.2891 56.9996C58.0631 56.794 57.8948 56.5329 57.8008 56.2422" stroke="#000C1A" stroke-width="0.475197" stroke-linecap="round" stroke-linejoin="round"/>
<path d="M61.4121 59.5054C63.314 60.16 65.3658 60.2445 67.3151 59.7483" stroke="#000C1A" stroke-width="0.475197" stroke-linecap="round" stroke-linejoin="round"/>
<path d="M64.6855 65.894V69.3894" stroke="#000C1A" stroke-width="0.570237" stroke-linecap="round" stroke-linejoin="round"/>
<path d="M64.8438 50.2019V42.7466" stroke="#000C1A" stroke-width="0.570237" stroke-linecap="round" stroke-linejoin="round"/>
<path d="M62.3516 51.6592L63.6082 52.5251C63.9719 52.7943 64.4124 52.9396 64.8648 52.9396C65.3173 52.9396 65.7578 52.7943 66.1215 52.5251L67.3887 51.6592" stroke="#000C1A" stroke-width="0.601916" stroke-linecap="round" stroke-linejoin="round"/>
<path d="M86.998 37.9313C86.4273 37.6981 85.9179 37.3368 85.509 36.8753C84.8525 36.0427 84.3679 35.0879 84.0835 34.0664C82.6723 29.5381 82.4074 24.7304 83.3126 20.0745C80.7342 20.0551 78.2117 19.3215 76.0251 17.9551C73.8385 16.5887 72.0734 14.643 70.9258 12.334C65.0114 16.0315 58.0868 17.782 51.1259 17.3395C50.9578 21.1086 50.0227 24.8038 48.3777 28.1991C46.7327 31.5945 44.4123 34.6186 41.5586 37.0865C41.717 33.8552 42.0232 30.6555 42.3084 27.6988C42.6752 24.1759 43.8541 20.786 45.7524 17.7957C47.6506 14.8054 50.2166 12.2961 53.2485 10.4649C56.2431 8.74042 59.5918 7.72225 63.0396 7.48801C66.4873 7.25377 69.943 7.80964 73.1434 9.11327C76.3221 10.4682 79.1477 12.5339 81.4031 15.1518C83.6585 17.7696 85.2835 20.8698 86.1532 24.214C87.2831 28.7231 86.9874 33.3694 86.998 37.9313Z" fill="#000C1A"/>
<path d="M104.866 161.715H24.2832L24.7056 149.909L25.0013 141.387L25.3709 130.922L26.5747 97.1408L26.7542 92.1143L29.352 91.1745L44.4527 85.715L47.3672 84.6696L48.8139 84.131L52.5944 82.7793L53.7349 82.3569H75.5411L75.9952 82.5259L80.2297 84.0571L81.6659 84.5745L84.5804 85.62L100.125 91.2378L102.522 92.1143L102.691 97.1514L103.335 116.18L103.821 130.721L104.169 141.239V141.292L104.486 150.796L104.866 161.715Z" fill="#000C1A"/>
</g>
<defs>
<clipPath id="clip0_1314_57710">
<rect width="128" height="128" fill="white"/>
</clipPath>
</defs>
</svg>
