<svg width="128" height="128" viewBox="0 0 128 128" fill="none" xmlns="http://www.w3.org/2000/svg">
<g clip-path="url(#clip0_1314_57783)">
<path d="M64 126.511C99.3462 126.511 128 98.1908 128 63.2556C128 28.3205 99.3462 0 64 0C28.6538 0 0 28.3205 0 63.2556C0 98.1908 28.6538 126.511 64 126.511Z" fill="#FFD100"/>
<path d="M117.12 98.2474C108.423 85.5608 102.1 78.0789 98.4861 62.3563C96.9356 55.647 97.8389 48.5176 97.1378 41.6186C95.5198 24.92 84.167 11.7997 69.9692 11H69.1333C68.3872 11 67.6456 11 66.9085 11C66.1714 11 65.4299 11 64.6838 11H63.8478C49.7175 11.8268 38.3377 24.92 36.7062 41.5644C36.032 48.4634 36.9354 55.5928 35.3579 62.302C31.7309 78.0247 25.4612 85.5066 16.7646 98.1932C8.49937 110.243 6.43644 127.741 11.5735 141.986C15.6185 153.128 23.7084 163.103 22.9668 175.167C22.4005 183.841 17.1556 191.431 16.778 200.106C16.2792 211.695 25.5151 221.887 35.3578 222.701C45.2006 223.514 88.6434 223.514 98.4861 222.701C108.329 221.887 117.565 211.695 117.079 200.106C116.702 191.418 111.457 183.841 110.877 175.167C110.082 163.103 118.252 153.128 122.27 141.986C127.461 127.795 125.385 110.297 117.12 98.2474Z" fill="#000C1A"/>
<path d="M91.1554 49.44C91.0615 46.9565 90.9363 44.473 90.7484 42C90.185 34.4452 89.371 27.193 84.3623 21.2452C74.5745 9.63128 56.1154 10.2156 46.7971 22.1113C39.931 30.8661 41.371 43.5756 39.4928 54.1148C37.3536 66.3026 32.8041 77.9061 28.4006 89.4156C26.8876 93.3808 25.2702 97.4191 25.1136 101.687C24.9849 104.473 25.745 107.228 27.2841 109.555C31.1241 115.023 40.171 115.19 46.0041 116.16C54.1432 117.506 62.4076 118.435 70.6615 117.819C81.0963 117.047 86.5119 109.722 88.2024 99.5061C89.9661 88.4583 90.9528 77.3005 91.1554 66.1148C91.3119 60.5426 91.3432 54.9913 91.1554 49.44Z" fill="#000C1A"/>
<path d="M58.8396 16.9565C57.8251 17.8424 56.87 18.794 55.9805 19.8053" stroke="#F7A99C" stroke-width="0.45913" stroke-linecap="round" stroke-linejoin="round"/>
<path d="M77.9047 95.927C78.0103 97.5425 77.7868 99.1626 77.2477 100.689C76.7087 102.216 75.8652 103.617 74.7685 104.808C73.6718 105.999 72.3447 106.955 70.8677 107.617C69.3906 108.28 67.7943 108.636 66.1756 108.664C64.5569 108.691 62.9495 108.39 61.4507 107.778C59.9519 107.166 58.5931 106.256 57.4564 105.103C56.3198 103.95 55.4291 102.578 54.8383 101.071C54.2475 99.5637 53.969 97.9522 54.0195 96.334C54.0195 96.2088 54.0195 96.0627 54.0195 95.927L55.3656 77.7079L55.5326 75.3601L56.3569 64.0383H75.5673L76.423 75.7879L76.6108 78.3549L77.9047 95.927Z" fill="#F7A99C" stroke="#000C1A" stroke-width="0.521739" stroke-linecap="round" stroke-linejoin="round"/>
<path opacity="0.1" d="M77.2358 87.0157C71.1836 87.7565 64.3593 84.8452 59.7367 78.9391C57.9362 76.6607 56.5997 74.0515 55.8027 71.2591L56.3454 63.9026H75.5454L76.401 75.6522L76.5992 78.2191L77.2358 87.0157Z" fill="#000C1A"/>
<path d="M82.245 45.7461C79.8346 49.6174 80.0641 54.2087 82.7667 56.0035C85.4693 57.7982 89.612 56.0974 92.0224 52.2156C94.4328 48.3339 94.2033 43.753 91.5007 41.9687C88.7981 40.1843 84.6554 41.8748 82.245 45.7461Z" fill="#F7A99C" stroke="#000C1A" stroke-width="0.521739" stroke-linecap="round" stroke-linejoin="round"/>
<path d="M89.4766 43.8262C90.0635 44.0568 90.5796 44.4375 90.9732 44.9303C91.3667 45.4231 91.6239 46.0106 91.719 46.634C91.8141 47.2574 91.7438 47.8949 91.515 48.4826C91.2863 49.0703 90.9072 49.5876 90.4157 49.9827" stroke="#000C1A" stroke-width="0.521739" stroke-linecap="round" stroke-linejoin="round"/>
<path d="M49.6884 45.7461C52.0988 49.6174 51.8588 54.2087 49.1667 56.0035C46.4745 57.7982 42.3214 56.0974 39.911 52.2156C37.5006 48.3339 37.7301 43.753 40.4327 41.9687C43.1354 40.1843 47.2675 41.8748 49.6884 45.7461Z" fill="#F7A99C" stroke="#000C1A" stroke-width="0.521739" stroke-linecap="round" stroke-linejoin="round"/>
<path d="M42.4575 43.8262C41.8705 44.0568 41.3544 44.4375 40.9608 44.9303C40.5673 45.4231 40.3101 46.0106 40.215 46.634C40.1199 47.2574 40.1902 47.8949 40.419 48.4826C40.6477 49.0703 41.0268 49.5876 41.5183 49.9827" stroke="#000C1A" stroke-width="0.521739" stroke-linecap="round" stroke-linejoin="round"/>
<path d="M88.6307 39.3495C88.6307 39.7147 88.6307 40.0695 88.6307 40.393C88.6307 41.4365 88.5055 42.4799 88.3698 43.5234L88.2237 44.9843L88.1611 45.7773L88.0567 46.9252C87.9941 47.6243 87.9524 48.313 87.9002 49.0121C87.9002 49.4504 87.9002 49.8782 87.8272 50.3165C87.7333 52.0487 87.6394 53.7704 87.4098 55.4817C87.4098 55.4817 87.4098 55.5443 87.4098 55.5652C87.4098 55.8887 87.3159 56.2226 87.2533 56.5356C87.1907 56.8904 87.128 57.2347 87.0341 57.5791C86.9279 58.1046 86.792 58.6237 86.6272 59.1339C86.5809 59.3255 86.5216 59.5137 86.4498 59.6973C86.335 60.073 86.1785 60.4591 86.0324 60.8452C85.6153 61.8693 85.1271 62.863 84.5715 63.8191C82.1824 67.885 78.9477 71.3902 75.0863 74.0974C75.0863 74.0974 75.0863 74.0974 75.0341 74.0974C74.5959 74.4104 74.1576 74.6921 73.7298 74.953C71.6321 76.2542 69.2314 76.9857 66.7646 77.0754C64.2978 77.1651 61.8503 76.6098 59.6637 75.4643C58.7097 74.9909 57.7985 74.4358 56.9402 73.8052C53.364 71.1288 50.4035 67.7164 48.2585 63.7982C48.0915 63.5165 47.9454 63.2452 47.7889 62.9634L47.5698 62.5147C47.4446 62.2747 47.3194 62.0139 47.1941 61.753C46.8394 61.0747 46.5263 60.3652 46.2342 59.666C46.1611 59.4678 46.0776 59.28 46.015 59.0817C45.0441 56.1965 44.4787 53.1903 44.335 50.1495C44.335 49.68 44.2515 49.1895 44.2202 48.72C44.1889 48.2504 44.1367 47.6765 44.095 47.1234L43.9698 45.6939C43.9698 45.5374 43.9698 45.3808 43.8967 45.2347C43.8588 45.0626 43.8309 44.8884 43.8133 44.713C43.6985 44.0661 43.615 43.4087 43.542 42.7304C43.4376 41.6243 43.375 40.4765 43.375 39.2974C43.375 39.2034 43.375 39.0991 43.375 38.9947V38.88C43.375 38.3791 43.375 37.8365 43.4272 37.3878V36.8243C43.4272 36.2087 43.5524 35.6034 43.6463 35.0191C44.1365 31.5253 45.2723 28.1531 46.9959 25.0747C48.7735 21.9318 51.208 19.209 54.1333 17.0921C54.2898 16.9669 54.4568 16.8521 54.6133 16.7478L55.208 16.3513C55.9844 15.8712 56.7894 15.439 57.6185 15.0573C60.0631 13.9299 62.7117 13.3121 65.4028 13.2417H65.9559C66.3002 13.2417 66.6759 13.2417 66.9994 13.2417C67.3228 13.2417 67.8968 13.2939 68.3455 13.3565C68.5855 13.3565 68.8255 13.4087 69.055 13.4504L69.6185 13.5443C71.1726 13.84 72.6859 14.3199 74.1263 14.9739C75.2434 15.4606 76.3125 16.051 77.3193 16.7374L77.4759 16.8417C78.1216 17.2751 78.7418 17.7455 79.3333 18.2504C81.6265 20.2001 83.5494 22.5472 85.0098 25.1791C85.1142 25.3356 85.1872 25.4921 85.2811 25.6486C86.7987 28.541 87.8115 31.6712 88.2759 34.9043C88.2759 34.9043 88.2759 34.9043 88.2759 34.9773C88.3698 35.5617 88.4324 36.1669 88.4846 36.7826C88.4846 36.8869 88.4846 36.9912 88.4846 37.0956C88.4846 37.4921 88.5367 37.8887 88.5472 38.2956C88.5472 38.5148 88.5472 38.7339 88.5472 38.953C88.5472 39.1721 88.6307 39.2556 88.6307 39.3495Z" fill="#F7A99C" stroke="#000C1A" stroke-width="0.521739" stroke-linecap="round" stroke-linejoin="round"/>
<path d="M90.1738 39.8863C90.1738 40.2761 90.1738 40.6548 90.1738 41C90.1738 42.1137 90.0401 43.2274 89.8954 44.341L89.7394 45.9002L89.6726 46.7466V47.2477L89.6058 47.9716C89.539 48.7178 89.4944 49.4528 89.4499 50.1989V50.7558C86.8004 44.524 85.5936 37.7741 85.9195 31.0104C84.0608 27.6044 81.1226 24.913 77.567 23.3595C73.9478 21.6876 69.8851 21.2306 65.9848 22.0565C62.0835 21.2195 58.0161 21.6689 54.3915 23.3372C50.841 24.8942 47.9074 27.5851 46.0501 30.9881C46.3981 37.6448 45.2567 44.2953 42.7091 50.4551C42.7091 50.2769 42.7091 50.0987 42.7091 49.9205C42.7091 49.3526 42.62 48.8068 42.5755 48.2166L42.4864 46.7243C42.4864 46.5572 42.4864 46.3902 42.4084 46.2343C42.3679 46.0506 42.3381 45.8646 42.3193 45.6774C42.1968 44.987 42.1077 44.2853 42.0409 43.5615C42.0409 43.2385 41.9741 42.9044 41.9518 42.5703C41.885 41.7016 41.8516 40.8107 41.8516 39.8975C41.8516 39.7973 41.8516 39.6859 41.8516 39.5745C41.8516 38.7949 41.8516 38.0154 41.9518 37.2581C42.052 36.5008 42.0743 35.9551 42.1745 35.3314C42.6977 31.6026 43.9099 28.0036 45.7494 24.7181C46.206 23.9274 46.6849 23.1701 47.1972 22.4908C48.8774 20.0706 50.965 17.9604 53.3669 16.2542C53.534 16.1206 53.7122 15.9981 53.8792 15.8867L54.514 15.4635C55.3426 14.9511 56.2017 14.49 57.0866 14.0826C60.9041 12.2899 65.1751 11.6958 69.337 12.3787L69.9384 12.4789C71.5978 12.7911 73.2133 13.3034 74.7494 14.0046C75.2394 14.2125 75.7183 14.4464 76.1861 14.7062C76.8512 15.0431 77.498 15.4148 78.1238 15.8199L78.2798 15.9313C78.9706 16.3966 79.636 16.8984 80.2732 17.4347C82.2138 19.0799 83.9023 21.0011 85.2847 23.1367C85.6485 23.6936 85.9938 24.2615 86.3204 24.8406C86.4318 25.0077 86.5098 25.1747 86.6212 25.3641C88.2408 28.451 89.3217 31.7917 89.8174 35.2423C89.8174 35.2423 89.8174 35.2423 89.8174 35.3203C89.9065 35.9439 89.9733 36.5899 90.029 37.2469C90.0847 37.904 90.1292 38.7838 90.1292 39.5634C90.1738 39.6747 90.1738 39.7861 90.1738 39.8863Z" fill="#000C1A"/>
<path d="M55.3498 16.72C53.8259 26.1388 50.542 35.1864 45.6699 43.39L45.4899 43.69C45.4574 43.5281 45.4341 43.3645 45.4199 43.2C45.3099 42.57 45.2298 41.94 45.1598 41.29C45.0598 40.24 44.9998 39.13 44.9998 38C44.9948 37.9067 44.9948 37.8132 44.9998 37.72C44.9943 36.4409 45.0912 35.1635 45.2898 33.9C45.8599 29.7402 47.4015 25.7732 49.7898 22.32C51.3052 20.1456 53.1864 18.2508 55.3498 16.72Z" fill="#000C1A"/>
<path d="M88.4408 38C88.4408 38.36 88.4408 38.7 88.4408 39C88.4083 40.0036 88.3249 41.0049 88.1908 42L88.0608 43.4L87.9908 44.17C87.8108 43.87 87.6508 43.61 87.5208 43.38C82.6032 35.1149 79.3044 25.9891 77.8008 16.49C78.4177 16.9044 79.0119 17.3517 79.5808 17.83C81.9138 19.8151 83.8453 22.2286 85.2708 24.94C86.727 27.7119 87.7008 30.7114 88.1508 33.81C88.1508 33.81 88.1508 33.81 88.1508 33.88C88.336 35.1449 88.4296 36.4216 88.4308 37.7C88.4455 37.7993 88.4488 37.8999 88.4408 38Z" fill="#000C1A"/>
<path d="M82.1895 30.6901C85.6135 35.1098 87.5105 40.5215 87.5952 46.1117C87.68 51.7019 85.9479 57.1686 82.6595 61.6901C86.8695 57.6901 89.5894 53.2301 90.1794 47.4601C90.7628 41.6362 89.2642 35.794 85.9495 30.9701C85.5745 30.3206 85.0041 29.8062 84.3195 29.5001C83.8818 29.4247 83.4316 29.5017 83.044 29.7183C82.6563 29.9349 82.3547 30.2779 82.1895 30.6901Z" fill="#000C1A"/>
<path d="M79.7832 23.1145C80.0003 24.6705 80.7118 26.1155 81.8126 27.2364C82.9135 28.3573 84.3455 29.0947 85.8973 29.3399" stroke="#000C1A" stroke-width="0.534562" stroke-linecap="round" stroke-linejoin="round"/>
<path d="M78.8691 21.2434C78.9883 24.0201 80.0532 26.6725 81.8872 28.7607C83.6825 30.7675 86.1507 32.0472 88.8253 32.3578" stroke="#000C1A" stroke-width="0.534562" stroke-linecap="round" stroke-linejoin="round"/>
<path d="M52.1746 23.1145C51.9575 24.6705 51.246 26.1155 50.1452 27.2364C49.0443 28.3573 47.6124 29.0947 46.0605 29.3399" stroke="#000C1A" stroke-width="0.534562" stroke-linecap="round" stroke-linejoin="round"/>
<path d="M53.0877 21.2434C52.9685 24.0201 51.9036 26.6725 50.0696 28.7607C48.2791 30.7676 45.8142 32.0476 43.1426 32.3578" stroke="#000C1A" stroke-width="0.534562" stroke-linecap="round" stroke-linejoin="round"/>
<path d="M52.9431 22.8806C52.8186 25.6561 51.7544 28.3069 49.9251 30.3979C48.1358 32.4065 45.6703 33.6868 42.998 33.9951" stroke="#000C1A" stroke-width="0.534562" stroke-linecap="round" stroke-linejoin="round"/>
<path d="M88.8594 31.6675C87.1778 37.0576 85.5184 42.9378 87.5007 48.2166C88.6144 51.2013 90.8417 53.6959 91.8329 56.7139C92.54 58.9629 92.5675 61.3706 91.9117 63.6351C91.2559 65.8996 89.9461 67.9201 88.1466 69.4432" stroke="#000C1A" stroke-width="1.11367" stroke-linecap="round" stroke-linejoin="round"/>
<path d="M43.0989 31.6675C44.7806 37.0576 46.4399 42.9378 44.4687 48.2166C43.3551 51.2013 41.1277 53.6959 40.1254 56.7139C39.414 58.9616 39.3833 61.3695 40.0373 63.6345C40.6912 65.8996 42.0006 67.9206 43.8005 69.4432" stroke="#000C1A" stroke-width="1.11367" stroke-linecap="round" stroke-linejoin="round"/>
<path d="M72.8158 66.1738L72.5823 66.3436C71.9136 66.6299 71.175 66.7112 70.4601 66.577C69.7596 66.4552 69.0485 66.4054 68.3378 66.4285C67.5031 66.5818 66.6805 66.7946 65.876 67.0651C65.0709 66.7972 64.2484 66.5844 63.4143 66.4285C62.7036 66.405 61.9925 66.4548 61.292 66.577C60.5762 66.7111 59.8365 66.626 59.1698 66.333L59 66.1738C59.9078 66.1059 60.7855 65.8182 61.5573 65.3355L61.7907 65.1658C62.3453 64.6982 62.9823 64.3383 63.6689 64.1046C64.043 63.9887 64.4403 63.9687 64.8242 64.0466C65.208 64.1245 65.5661 64.2977 65.8654 64.5503C66.1674 64.2985 66.5272 64.1259 66.9126 64.0481C67.2979 63.9703 67.6966 63.9897 68.0726 64.1046C68.7592 64.3383 69.3962 64.6982 69.9507 65.1658L70.1842 65.3461C70.9777 65.8391 71.8829 66.1238 72.8158 66.1738Z" fill="#000C1A"/>
<path d="M72.5826 66.3436C71.8795 67.9616 70.5797 68.2462 68.9535 68.9302C67.9924 69.3346 66.9615 69.5473 65.9188 69.5562H65.4625H65.1123C64.7156 69.5158 64.3221 69.4484 63.9345 69.3546C63.5484 69.2512 63.1692 69.1236 62.7991 68.9726C61.1784 68.2699 59.8903 67.9704 59.2019 66.3436C59.8686 66.6367 60.6083 66.7217 61.3241 66.5877C62.0245 66.4654 62.7357 66.4156 63.4463 66.4391C64.2805 66.5951 65.103 66.8078 65.9081 67.0758C66.7125 66.8052 67.5352 66.5925 68.3699 66.4391C69.0806 66.416 69.7917 66.4658 70.4922 66.5877C71.2071 66.7218 71.9457 66.6405 72.6144 66.3542L72.8054 66.1738C71.8853 66.125 70.9919 65.8478 70.2057 65.3673L69.9722 65.187C69.4177 64.7194 68.7807 64.3596 68.094 64.1259C67.7181 64.011 67.3194 63.9915 66.9341 64.0694C66.5487 64.1472 66.1888 64.3197 65.8869 64.5715C65.5876 64.3189 65.2295 64.1457 64.8456 64.0679C64.4618 63.99 64.0645 64.0099 63.6904 64.1259C63.0037 64.3596 62.3668 64.7194 61.8122 65.187L61.5788 65.3568C60.8069 65.8394 59.9293 66.1271 59.0215 66.195L59.1913 66.3542" stroke="#000C1A" stroke-width="0.403225" stroke-linecap="round" stroke-linejoin="round"/>
<path d="M61.334 41.9582C60.5895 41.1039 59.6207 40.475 58.5374 40.1426C57.5084 39.7979 56.4296 39.6252 55.3444 39.6313C54.2827 39.6333 53.2275 39.7951 52.214 40.1112C51.1411 40.4346 50.1561 40.9985 49.334 41.7599C50.3624 42.0122 51.4091 42.1832 52.4644 42.2713C53.4557 42.3547 54.4262 42.386 55.3966 42.386C56.367 42.386 57.3166 42.386 58.287 42.2817C59.2574 42.1773 60.1862 42.0834 61.334 41.9582Z" fill="#000C1A"/>
<path d="M70.5996 41.9582C71.3327 41.1104 72.2862 40.482 73.3544 40.1426C74.3835 39.7979 75.4622 39.6252 76.5474 39.6313C77.6092 39.6323 78.6646 39.7942 79.6779 40.1112C80.7554 40.4311 81.7445 40.9953 82.5683 41.7599C81.5397 42.0114 80.493 42.1824 79.4379 42.2713C78.3944 42.3547 77.4761 42.386 76.5057 42.386C75.5353 42.386 74.5857 42.386 73.6153 42.2817C72.6448 42.1773 71.7474 42.0834 70.5996 41.9582Z" fill="#000C1A"/>
<path d="M60.9683 50.5773C60.6239 50.1495 60.3005 49.7008 59.9248 49.2625C59.6264 48.847 59.2757 48.4718 58.8813 48.146C58.1115 47.486 57.1901 47.0271 56.1996 46.8104C55.2293 46.5749 54.2168 46.5749 53.2465 46.8104C52.7601 46.9255 52.2878 47.0935 51.8378 47.3112C51.337 47.5408 50.7944 47.7808 50.3352 47.9999H50.2622C50.1843 48.0261 50.1 48.0261 50.0222 47.9999C49.7787 47.9376 49.5579 47.8073 49.3857 47.6243C49.2456 47.4966 49.1132 47.3607 48.9891 47.2173C48.757 46.9413 48.5509 46.6444 48.3735 46.3303C48.3566 46.3053 48.345 46.2771 48.3396 46.2474C48.3341 46.2178 48.3348 46.1873 48.3417 46.1579C48.3485 46.1285 48.3614 46.1008 48.3794 46.0766C48.3975 46.0524 48.4203 46.0323 48.4465 46.0173C48.4875 45.9876 48.5368 45.9716 48.5874 45.9716C48.638 45.9716 48.6873 45.9876 48.7283 46.0173C48.9661 46.2385 49.2208 46.4408 49.49 46.6225L49.8865 46.8521C50.0118 46.9147 50.1683 46.9564 50.1578 46.9251L49.8448 46.9773C50.3144 46.6851 50.7944 46.4243 51.2744 46.153C51.7998 45.8698 52.3567 45.6491 52.9335 45.4956C54.1003 45.1929 55.325 45.1929 56.4917 45.4956C57.6429 45.8248 58.6891 46.4468 59.5283 47.3008C59.9331 47.7253 60.2836 48.1985 60.5718 48.7095C60.8326 49.2103 61.0831 49.6903 61.3231 50.1912C61.3485 50.2453 61.3518 50.3072 61.3323 50.3637C61.3128 50.4202 61.2721 50.4669 61.2187 50.4938C61.1917 50.5331 61.1527 50.5624 61.1075 50.5775C61.0623 50.5926 61.0134 50.5925 60.9683 50.5773Z" fill="#000C1A"/>
<path d="M57.8166 48.1565C57.8407 47.7774 57.7517 47.3997 57.561 47.0712C57.3703 46.7426 57.0865 46.4781 56.7454 46.3109C56.4043 46.1437 56.0213 46.0815 55.6448 46.1321C55.2683 46.1827 54.9153 46.3438 54.6304 46.5951C54.3455 46.8464 54.1416 47.1765 54.0444 47.5437C53.9472 47.9109 53.9611 48.2987 54.0844 48.6581C54.2076 49.0174 54.4347 49.332 54.7369 49.5622C55.0391 49.7925 55.4027 49.9279 55.7818 49.9513C56.0336 49.9683 56.2861 49.9352 56.525 49.854C56.7638 49.7728 56.9842 49.6451 57.1734 49.4782C57.3626 49.3113 57.5169 49.1086 57.6273 48.8817C57.7377 48.6549 57.802 48.4084 57.8166 48.1565Z" fill="#000C1A"/>
<path d="M51.8592 48.8661C51.1796 48.6137 50.566 48.2106 50.0645 47.687" stroke="#000C1A" stroke-width="0.521739" stroke-linecap="round" stroke-linejoin="round"/>
<path d="M61.5313 48.1879C61.0935 47.3833 60.4983 46.675 59.7813 46.1049C59.0643 45.5349 58.24 45.1148 57.3574 44.8696" stroke="#000C1A" stroke-width="0.521739" stroke-linecap="round" stroke-linejoin="round"/>
<path d="M70.5788 50.3374C70.8188 49.8366 71.0692 49.3566 71.3301 48.8557C71.6183 48.3448 71.9688 47.8716 72.3736 47.447C73.2107 46.5957 74.2528 45.974 75.3997 45.6418C76.57 45.3391 77.7981 45.3391 78.9684 45.6418C79.5452 45.7953 80.102 46.016 80.6275 46.2992C81.1075 46.5705 81.5875 46.8314 82.0571 47.1235L81.744 47.0714C81.744 47.0714 81.8901 47.0714 82.0153 46.9983L82.4118 46.7688C82.6811 46.5871 82.9358 46.3847 83.1736 46.1635C83.2139 46.127 83.2659 46.1059 83.3203 46.1041C83.3747 46.1023 83.4279 46.12 83.4706 46.1538C83.5132 46.1877 83.5424 46.2355 83.553 46.2889C83.5636 46.3423 83.5548 46.3977 83.5284 46.4453C83.3473 46.757 83.1415 47.0536 82.9127 47.3322C82.7875 47.4679 82.6623 47.6035 82.5162 47.7392C82.3439 47.9222 82.1232 48.0525 81.8797 48.1148C81.8018 48.1411 81.7175 48.1411 81.6397 48.1148H81.5666C81.0553 47.8957 80.5231 47.6557 80.064 47.4262C79.6141 47.2084 79.1417 47.0405 78.6553 46.9253C77.685 46.6898 76.6725 46.6898 75.7023 46.9253C74.7117 47.1421 73.7903 47.6009 73.0205 48.2609C72.6291 48.5898 72.2787 48.9647 71.9771 49.3774C71.6431 49.8157 71.3301 50.2644 70.9336 50.6922C70.8906 50.7349 70.8324 50.7589 70.7718 50.7589C70.7112 50.7589 70.6531 50.7349 70.6101 50.6922C70.5781 50.6763 70.5507 50.6525 70.5305 50.6229C70.5104 50.5934 70.4981 50.5592 70.4949 50.5236C70.4918 50.488 70.4979 50.4522 70.5126 50.4196C70.5272 50.387 70.55 50.3587 70.5788 50.3374Z" fill="#000C1A"/>
<path d="M74.1066 48.1565C74.0779 47.6495 74.2503 47.1515 74.5862 46.7707C74.9222 46.3898 75.3947 46.1567 75.9014 46.1218C76.2805 46.0977 76.6582 46.1867 76.9867 46.3774C77.3153 46.568 77.5799 46.8519 77.747 47.193C77.9142 47.5341 77.9764 47.9171 77.9258 48.2936C77.8752 48.6701 77.7141 49.0231 77.4628 49.308C77.2116 49.5928 76.8814 49.7968 76.5142 49.894C76.147 49.9912 75.7592 49.9773 75.3999 49.854C75.0406 49.7307 74.7259 49.5037 74.4957 49.2015C74.2655 48.8994 74.1301 48.5357 74.1066 48.1565Z" fill="#000C1A"/>
<path d="M80.0742 48.8661C80.7539 48.6137 81.3675 48.2106 81.869 47.687" stroke="#000C1A" stroke-width="0.521739" stroke-linecap="round" stroke-linejoin="round"/>
<path d="M70.4023 48.1879C70.8402 47.3833 71.4353 46.675 72.1524 46.1049C72.8694 45.5349 73.6937 45.1148 74.5763 44.8696" stroke="#000C1A" stroke-width="0.521739" stroke-linecap="round" stroke-linejoin="round"/>
<path d="M66.8652 60.2923C67.3902 60.0608 67.8492 59.7021 68.2009 59.2488" stroke="#000C1A" stroke-width="0.521739" stroke-linecap="round" stroke-linejoin="round"/>
<path d="M65.07 60.2923C64.5451 60.0608 64.086 59.7021 63.7344 59.2488" stroke="#000C1A" stroke-width="0.521739" stroke-linecap="round" stroke-linejoin="round"/>
<path d="M65.9766 50.5251V57.4538" stroke="#000C1A" stroke-width="0.521739" stroke-linecap="round" stroke-linejoin="round"/>
<path d="M82.2656 25.7739C83.4028 26.9028 84.4139 28.1518 85.2813 29.4991C86.1317 30.8661 86.8614 32.3046 87.4621 33.7983C88.0484 35.3066 88.5261 36.8549 88.8917 38.4313C89.2182 40.007 89.462 41.5988 89.6221 43.2C89.7369 44.8069 89.7995 46.4139 89.7578 48.0104C89.7161 49.607 89.5908 51.2139 89.3613 52.7896C88.956 55.9388 88.2752 59.0464 87.3265 62.0765C87.4204 58.9461 87.6395 55.8156 87.7439 52.6852C87.8663 49.5954 87.8001 46.5009 87.5456 43.4191C87.2999 40.3549 86.7583 37.3216 85.9282 34.3617C85.4945 32.8804 84.9789 31.4242 84.3839 30C83.7499 28.5563 83.0429 27.1458 82.2656 25.7739Z" fill="#000C1A"/>
<path d="M51.9009 18.9287C49.9125 21.8565 48.3622 25.059 47.2992 28.4348C46.2779 31.7845 45.6168 35.2336 45.327 38.7235C45.029 42.2421 44.9453 45.7756 45.0766 49.3043C45.1601 52.8522 45.3688 56.4313 45.3479 60.0417C44.4908 56.5411 43.8565 52.9896 43.4488 49.4087C43.0172 45.8002 42.9508 42.1574 43.2505 38.5356C43.5618 34.8792 44.4128 31.289 45.7757 27.8817C47.1225 24.477 49.2156 21.4177 51.9009 18.9287Z" fill="#000C1A"/>
<path d="M26.0857 123.684C34.1727 127.336 41.5605 128.463 42.5831 126.198C43.6057 123.934 37.877 119.144 29.7796 115.492C21.6822 111.84 14.3048 110.713 13.2822 112.977C12.2596 115.242 17.9883 120.031 26.0857 123.684Z" fill="#000C1A"/>
<path d="M0.59375 161.739C0.59375 161.635 0.6668 161.541 0.698104 161.436L11.9885 129.183L14.4511 122.15L19.4181 107.958C20.1019 105.875 21.243 103.971 22.7578 102.386C24.2726 100.8 26.1228 99.5741 28.1729 98.7965C29.4022 98.3577 30.6972 98.1319 32.0025 98.1287C33.2107 98.1296 34.4101 98.3341 35.5503 98.7339C42.2077 101.071 45.192 109.419 42.0512 116.922L35.5816 132.323L33.2337 137.906L31.3242 142.456L23.2685 161.739" fill="#F7A99C"/>
<path d="M0.59375 161.739C0.59375 161.635 0.6668 161.541 0.698104 161.436L11.9885 129.183L14.4511 122.15L19.4181 107.958C20.1019 105.875 21.243 103.971 22.7578 102.386C24.2726 100.8 26.1228 99.5741 28.1729 98.7965C29.4022 98.3577 30.6972 98.1319 32.0025 98.1287C33.2107 98.1296 34.4101 98.3341 35.5503 98.7339C42.2077 101.071 45.192 109.419 42.0512 116.922L35.5816 132.323L33.2337 137.906L31.3242 142.456L23.2685 161.739" stroke="#000C1A" stroke-width="0.521739" stroke-linecap="round" stroke-linejoin="round"/>
<path d="M47.0863 114.882L47.0855 114.884L42.4746 125.706C41.3666 124.357 39.6103 122.865 37.4029 121.369C34.9659 119.717 31.961 118.047 28.6293 116.544L28.629 116.544C23.0306 114.025 17.7029 112.486 14.0036 112.262L20.1761 101.861L20.1813 101.852L20.1859 101.843C21.9764 98.2956 25.0121 95.5352 28.7095 94.0882C34.4364 97.3979 40.5771 99.9332 46.9708 101.628C47.9066 103.684 48.4053 105.913 48.4347 108.173C48.4648 110.479 48.0052 112.766 47.0863 114.882Z" fill="#EE4FE8" stroke="#F7A99C" stroke-width="0.6"/>
<path d="M102.102 123.684C94.0149 127.336 86.6271 128.463 85.6045 126.198C84.5819 123.934 90.3106 119.144 98.408 115.492C106.505 111.84 113.883 110.713 114.905 112.977C115.928 115.242 110.199 120.031 102.102 123.684Z" fill="#000C1A"/>
<path d="M127.616 161.739C127.616 161.635 127.543 161.541 127.511 161.437L116.221 129.183L113.758 122.15L108.771 107.969C108.087 105.885 106.946 103.981 105.431 102.396C103.916 100.811 102.066 99.5847 100.016 98.807C98.7865 98.3683 97.4915 98.1424 96.1863 98.1392C94.978 98.1401 93.7786 98.3447 92.6384 98.7444C85.9811 101.082 82.9967 109.43 86.1376 116.932L92.6071 132.334L94.955 137.917L96.8645 142.466L104.972 161.75" fill="#F7A99C"/>
<path d="M127.616 161.739C127.616 161.635 127.543 161.541 127.511 161.437L116.221 129.183L113.758 122.15L108.771 107.969C108.087 105.885 106.946 103.981 105.431 102.396C103.916 100.811 102.066 99.5847 100.016 98.807C98.7865 98.3683 97.4915 98.1424 96.1863 98.1392C94.978 98.1401 93.7786 98.3447 92.6384 98.7444C85.9811 101.082 82.9967 109.43 86.1376 116.932L92.6071 132.334L94.955 137.917L96.8645 142.466L104.972 161.75" stroke="#000C1A" stroke-width="0.521739" stroke-linecap="round" stroke-linejoin="round"/>
<path d="M81.1018 114.884L81.101 114.882C80.1821 112.766 79.7225 110.479 79.7526 108.173C79.782 105.913 80.2807 103.684 81.2165 101.628C87.6102 99.9332 93.7509 97.3979 99.4778 94.0882C103.175 95.5352 106.211 98.2956 108.001 101.843L108.006 101.852L108.011 101.861L114.184 112.262C110.484 112.486 105.157 114.025 99.5583 116.544L99.558 116.544C96.2263 118.047 93.2214 119.717 90.7844 121.369C88.577 122.865 86.8207 124.357 85.7127 125.706L81.1018 114.884Z" fill="#EE4FE8" stroke="#F7A99C" stroke-width="0.6"/>
<path d="M101.529 94.8521C90.7306 100.743 78.6327 103.847 66.3317 103.881C54.0308 103.916 41.9156 100.881 31.084 95.0504C32.4051 94.0029 33.958 93.2872 35.6127 92.9635C36.5774 92.7655 37.56 92.6676 38.5449 92.6713H94.6214C95.589 92.6669 96.5544 92.7649 97.5014 92.9635C98.9799 93.2492 100.364 93.8983 101.529 94.8521Z" fill="#F7A99C"/>
<path d="M104.314 111.944L101.643 124.716C102.182 125.897 102.595 127.132 102.874 128.4C103.175 129.771 103.326 131.17 103.323 132.574C103.327 134.23 103.109 135.879 102.676 137.478C102.327 138.818 101.827 140.113 101.184 141.339C100.147 143.339 98.7657 145.14 97.1039 146.661L93.9735 161.781H37.4378L34.3074 146.233C32.4829 144.457 31.0331 142.333 30.0438 139.987C29.0544 137.641 28.5456 135.12 28.5474 132.574C28.5494 130.991 28.7457 129.414 29.1317 127.878C29.3682 126.939 29.6716 126.019 30.0396 125.123L27.3892 111.986C26.2518 107.144 26.4709 102.407 28.1822 98.8381C28.8518 97.3937 29.8315 96.1147 31.0517 95.0921C41.8834 100.922 53.9985 103.957 66.2995 103.923C78.6004 103.888 90.6983 100.785 101.497 94.8938C102.662 95.9019 103.562 97.1812 104.116 98.619C105.577 102.177 105.473 107.009 104.314 111.944Z" fill="#EE4FE8"/>
<path d="M104.315 111.934C103.919 114.073 103.554 116.223 103.136 118.351C102.719 120.48 102.322 122.629 101.873 124.758V124.664C102.714 126.504 103.257 128.466 103.48 130.476C103.686 132.488 103.577 134.519 103.157 136.497C102.735 138.468 101.994 140.357 100.966 142.09C99.9338 143.812 98.634 145.359 97.1152 146.671C98.5378 145.281 99.7474 143.688 100.705 141.944C101.647 140.207 102.326 138.34 102.719 136.403C103.489 132.514 103.044 128.481 101.446 124.852C101.431 124.808 101.431 124.76 101.446 124.716C101.884 122.629 102.374 120.459 102.844 118.341C103.314 116.223 103.814 114.052 104.315 111.934Z" fill="#F7A99C"/>
<path d="M34.2965 146.191C32.8908 144.888 31.6911 143.378 30.7383 141.715C29.768 140.039 29.064 138.222 28.6513 136.33C28.2658 134.44 28.1603 132.502 28.3383 130.581C28.527 128.653 29.0128 126.767 29.7783 124.988V125.123C28.9017 120.741 28.1087 116.348 27.3574 111.934C28.38 116.289 29.3435 120.654 30.2478 125.03C30.2638 125.077 30.2638 125.128 30.2478 125.176C29.1742 127.798 28.6844 130.623 28.8123 133.454C28.9403 136.285 29.6829 139.054 30.9887 141.569C31.8694 143.257 32.9829 144.813 34.2965 146.191Z" fill="#F7A99C"/>
<path d="M70.1875 13.5933C81.3398 12.3306 92.6089 22.199 94.7205 35.0704C95.6756 40.8959 94.9646 47.0504 96.4926 52.7168C99.9519 65.4502 113.279 71.2757 118.055 83.4892C120.994 90.9701 120.177 99.9578 117.11 107.364C114.044 114.771 108.971 120.809 103.475 125.945" stroke="#000C1A" stroke-width="0.827672" stroke-linecap="round" stroke-linejoin="round"/>
<path d="M90.1552 42.6132C90.1552 42.9857 90.1552 43.3475 90.1552 43.6774C90.1552 44.7417 90.0275 45.8059 89.8891 46.8701L89.7401 48.36L89.6763 49.1688V49.6477L89.6124 50.3395C89.5486 51.0525 89.506 51.7549 89.4634 52.4679V53C86.9644 47.0374 85.8439 40.5875 86.1856 34.1314C84.4094 30.8767 81.6017 28.3048 78.204 26.8202C75.8684 25.7432 73.3264 25.1876 70.7545 25.1919C69.5277 25.1919 68.3042 25.3203 67.1042 25.5751C63.3738 24.782 59.4869 25.2188 56.0257 26.8202C52.6329 28.3081 49.8295 30.8794 48.0547 34.1314C48.3872 40.4925 47.2965 46.8477 44.862 52.7339C44.862 52.5637 44.862 52.3934 44.862 52.2231C44.862 51.6804 44.7769 51.1589 44.7343 50.5949L44.6066 49.1369C44.6066 48.9772 44.6066 48.8176 44.5321 48.6686C44.4934 48.4931 44.4649 48.3154 44.447 48.1365C44.3299 47.4767 44.2448 46.8062 44.1809 46.1145C44.1809 45.8059 44.1171 45.4866 44.0958 45.1674C44.0319 44.3373 44 43.4859 44 42.6132C44 42.5174 44 42.411 44 42.3046C44 41.5597 44 40.8147 44.0958 40.091C44.1916 39.3673 44.2128 38.8459 44.3086 38.2499C44.7854 34.6916 45.9184 31.2527 47.6503 28.1079C48.0866 27.3523 48.5442 26.6286 49.0338 25.9263C50.6394 23.6135 52.6342 21.5971 54.9295 19.9666C55.0892 19.8389 55.2594 19.7219 55.4191 19.6155L56.0257 19.211C56.8174 18.7214 57.6384 18.2807 58.484 17.8914C62.132 16.1783 66.2134 15.6106 70.1904 16.2632L70.7651 16.3589C72.3509 16.6573 73.8947 17.1468 75.3625 17.8169C75.8308 18.0156 76.2884 18.2391 76.7354 18.4874C77.3869 18.8287 78.0192 19.2053 78.6297 19.6155L78.7787 19.7219C79.4388 20.1665 80.0747 20.6461 80.6836 21.1586C82.538 22.7307 84.1515 24.5665 85.4726 26.6074C85.8203 27.1395 86.1502 27.6822 86.4623 28.2356C86.5688 28.3953 86.6433 28.5549 86.7497 28.7358C88.2974 31.6857 89.3303 34.878 89.804 38.1754C89.804 38.1754 89.804 38.1754 89.804 38.2499C89.8891 38.8459 89.953 39.4631 90.0062 40.091C90.0594 40.7189 90.102 41.5597 90.102 42.3046C90.1552 42.411 90.1552 42.5174 90.1552 42.6132Z" fill="#000C1A"/>
<path d="M77.332 26C77.5389 27.4826 78.2168 28.8594 79.2657 29.9274C80.3146 30.9954 81.679 31.698 83.1576 31.9316" stroke="#000C1A" stroke-width="0.509337" stroke-linecap="round" stroke-linejoin="round"/>
<path d="M76.332 23.95C76.4506 26.5945 77.4646 29.1201 79.2077 31.1125C80.9137 33.0247 83.2623 34.2443 85.8078 34.5399" stroke="#000C1A" stroke-width="0.509337" stroke-linecap="round" stroke-linejoin="round"/>
<path d="M76.332 25.5098C76.4477 28.1454 77.4625 30.662 79.2077 32.6405C80.9125 34.5543 83.2617 35.7742 85.8078 36.0679" stroke="#000C1A" stroke-width="0.509337" stroke-linecap="round" stroke-linejoin="round"/>
<path d="M54.8117 25.5098C54.686 28.1432 53.6724 30.6566 51.9361 32.6405C50.2313 34.5543 47.8821 35.7742 45.3359 36.0679" stroke="#000C1A" stroke-width="0.509337" stroke-linecap="round" stroke-linejoin="round"/>
<path d="M56.4758 25.5098C56.3501 28.1432 55.3365 30.6566 53.6002 32.6405C51.8953 34.5543 49.5461 35.7742 47 36.0679" stroke="#000C1A" stroke-width="0.509337" stroke-linecap="round" stroke-linejoin="round"/>
</g>
<defs>
<clipPath id="clip0_1314_57783">
<rect width="128" height="128" fill="white"/>
</clipPath>
</defs>
</svg>
