<svg width="128" height="128" viewBox="0 0 128 128" fill="none" xmlns="http://www.w3.org/2000/svg">
<g clip-path="url(#clip0_1314_57744)">
<path d="M64 129.404C99.3462 129.404 128 100.436 128 64.7018C128 28.968 99.3462 0 64 0C28.6538 0 0 28.968 0 64.7018C0 100.436 28.6538 129.404 64 129.404Z" fill="#EE4FE8"/>
<path d="M109.739 60.7954C112.492 58.4686 112.247 54.5301 110.806 51.1894C110.058 49.545 108.816 48.1743 107.254 47.2677C105.691 46.3611 103.885 45.9636 102.086 46.1302C104.957 44.113 104.562 39.993 102.94 36.8871C102.079 35.3541 100.71 34.1696 99.0695 33.5383C97.4287 32.9069 95.619 32.8682 93.9528 33.4289C97.0053 30.9847 97.1548 26.9609 95.1269 23.5881C94.2779 22.1788 93.0194 21.0618 91.5193 20.3861C90.7123 17.1154 88.8008 14.2237 86.1079 12.1996C83.9121 10.6428 81.3236 9.73311 78.6365 9.57401C75.5199 7.43935 71.5388 6.23325 68.2193 7.86627C63.466 6.24525 58.3471 6.02322 53.4712 7.22658C48.5953 8.42994 44.1675 11.0081 40.7141 14.6545C39.4996 15.8296 38.6508 17.3308 38.2699 18.9772C38.0852 19.8069 38.1783 20.6744 38.5351 21.4459C38.892 22.2174 39.4926 22.8501 40.2445 23.2466C36.0392 21.1973 32.3249 22.7983 29.1015 26.1817C27.5199 27.9137 26.5104 30.091 26.2106 32.4172C25.9107 34.7434 26.3351 37.1055 27.4258 39.1819C23.8182 39.2993 20.9151 43.5366 20.0612 47.0481C19.6652 48.8176 19.8427 50.6672 20.5681 52.329C21.2934 53.9908 22.5289 55.3786 24.0957 56.2913C19.6449 56.7502 17.9906 62.866 19.3354 67.1247C19.8332 68.494 20.7034 69.6971 21.848 70.5985C22.9927 71.4999 24.3663 72.0638 25.8142 72.2265C23.3251 73.5076 21.3289 75.575 20.1359 78.1075C19.282 79.9666 19.1012 82.0647 19.6245 84.0425C20.1478 86.0202 21.3425 87.7544 23.0041 88.9479C24.6656 90.1413 26.6905 90.7199 28.7318 90.5843C30.7731 90.4486 32.7037 89.6074 34.1927 88.2045C33.1254 91.001 35.2601 94.8007 37.9284 96.1562C39.2924 96.7643 40.7712 97.0723 42.2646 97.0594C43.758 97.0465 45.2311 96.7131 46.5845 96.0815C49.2811 94.8026 51.7795 93.1418 54.0024 91.1504C53.0418 91.7267 54.4614 93.1676 54.8883 94.1923C55.3893 95.1947 56.2021 96.0074 57.2044 96.5084C59.9427 97.9639 63.1179 98.3702 66.1344 97.651C69.1508 96.9317 71.8012 95.1364 73.588 92.602C73.4855 94.4111 74.1003 96.1876 75.2992 97.5463C76.498 98.905 78.1842 99.7363 79.992 99.8598C81.8434 99.8428 83.6181 99.1178 84.9519 97.8337C86.2856 96.5495 87.0773 94.8036 87.1645 92.9542C89.5447 96.5404 93.9208 97.4583 97.3149 94.822C98.9559 93.4294 99.9815 91.4459 100.169 89.3019C100.357 87.1578 99.692 85.0262 98.3182 83.3695C101.445 86.1659 106.857 87.8523 109.493 84.5543C110.716 82.85 111.222 80.7341 110.903 78.6608C110.584 76.5875 109.465 74.722 107.785 73.4647C111.639 74.2865 116.111 72.7709 116.612 68.8538C116.692 67.8728 116.578 66.8857 116.276 65.9491C115.973 65.0125 115.489 64.1449 114.85 63.3961C114.211 62.6473 113.431 62.0321 112.554 61.5858C111.677 61.1395 110.72 60.8708 109.739 60.7954Z" fill="#000C1A"/>
<path d="M77.4429 94.4272C77.5336 96.0688 77.2921 97.7119 76.7329 99.258C76.1737 100.804 75.3083 102.221 74.1885 103.425C73.0687 104.629 71.7175 105.595 70.2158 106.264C68.714 106.933 67.0927 107.293 65.4488 107.321C63.8049 107.349 62.1722 107.045 60.6486 106.427C59.1249 105.809 57.7416 104.89 56.5814 103.725C55.4212 102.56 54.5079 101.173 53.8964 99.6472C53.2848 98.1211 52.9875 96.4872 53.0223 94.8434C53.0223 94.7047 53.0223 94.5659 53.0223 94.4272L54.3777 75.7808L54.5485 73.3793L55.4024 61.7881H75.0414L75.9272 73.8169L76.1194 76.4319L77.4429 94.4272Z" fill="#F7A99C" stroke="#000C1A" stroke-width="0.533667" stroke-linecap="round" stroke-linejoin="round"/>
<path opacity="0.1" d="M76.759 85.3121C70.5684 86.0699 63.588 83.0921 58.8597 77.0509C57.0182 74.7204 55.6512 72.0516 54.8359 69.1954L55.3909 61.6707H75.0299L75.9051 73.6888L76.1079 76.3145L76.759 85.3121Z" fill="#000C1A"/>
<path d="M81.8925 43.0989C79.4269 47.0587 79.6617 51.755 82.4261 53.5801C85.1905 55.4053 89.4278 53.6762 91.8934 49.7164C94.3589 45.7566 94.1241 41.0603 91.3597 39.2352C88.5953 37.41 84.358 39.1391 81.8925 43.0989Z" fill="#F7A99C" stroke="#000C1A" stroke-width="0.533667" stroke-linecap="round" stroke-linejoin="round"/>
<path d="M89.2793 41.135C89.882 41.3683 90.4125 41.7566 90.8171 42.2606C91.2217 42.7646 91.4861 43.3665 91.5836 44.0054C91.6811 44.6443 91.6081 45.2977 91.3722 45.8994C91.1363 46.5011 90.7457 47.0299 90.2399 47.4323" stroke="#000C1A" stroke-width="0.533667" stroke-linecap="round" stroke-linejoin="round"/>
<path d="M48.5809 43.0989C51.0464 47.0587 50.8116 51.755 48.0472 53.5801C45.2828 55.4053 41.0455 53.6762 38.58 49.7164C36.1144 45.7566 36.3492 41.0603 39.1136 39.2352C41.878 37.41 46.1153 39.1391 48.5809 43.0989Z" fill="#F7A99C" stroke="#000C1A" stroke-width="0.533667" stroke-linecap="round" stroke-linejoin="round"/>
<path d="M41.1959 41.135C40.5932 41.3683 40.0627 41.7566 39.6581 42.2606C39.2535 42.7646 38.9891 43.3665 38.8916 44.0054C38.7941 44.6443 38.8671 45.2977 39.103 45.8994C39.3389 46.5011 39.7295 47.0299 40.2353 47.4323" stroke="#000C1A" stroke-width="0.533667" stroke-linecap="round" stroke-linejoin="round"/>
<path d="M88.4147 36.5456C88.4147 36.9192 88.4147 37.2821 88.4147 37.613C88.4147 38.6803 88.2866 39.7476 88.1478 40.815L87.9984 42.3092L87.9344 43.1204L87.8276 44.2945C87.7636 45.0096 87.7209 45.714 87.6675 46.4291C87.6675 46.8774 87.6676 47.315 87.5929 47.7633C87.4968 49.5351 87.4007 51.2962 87.1659 53.1C87.1659 53.1 87.1659 53.164 87.1659 53.1854C87.1659 53.5162 87.0698 53.8578 87.0058 54.178C86.9417 54.5409 86.8777 54.8931 86.7817 55.2453C86.673 55.7828 86.534 56.3138 86.3654 56.8356C86.318 57.0316 86.2574 57.2242 86.184 57.412C86.0666 57.7962 85.9064 58.1912 85.757 58.5861C85.3303 59.6336 84.831 60.65 84.2627 61.628C81.819 65.7868 78.5104 69.3721 74.5607 72.1412C74.1124 72.4614 73.6641 72.7496 73.2265 73.0164C71.0809 74.3474 68.6253 75.0956 66.1021 75.1873C63.5789 75.2791 61.0754 74.7111 58.8389 73.5394C57.863 73.0552 56.9309 72.4874 56.0531 71.8423C52.3951 69.1047 49.3669 65.6143 47.1729 61.6066C47.0021 61.3184 46.8527 61.0409 46.6926 60.7528L46.4684 60.2938C46.3404 60.0483 46.2123 59.7815 46.0842 59.5146C45.7213 58.8209 45.4011 58.0951 45.1022 57.38C45.0275 57.1772 44.9422 56.9851 44.8781 56.7823C43.885 53.8311 43.3067 50.7562 43.1597 47.6459C43.1597 47.1656 43.0743 46.664 43.0423 46.1837C43.0103 45.7034 42.9569 45.1163 42.9142 44.5506L42.7861 43.0884C42.7861 42.9283 42.7861 42.7682 42.7114 42.6187C42.6726 42.4427 42.6441 42.2645 42.6261 42.0851C42.5087 41.4233 42.4233 40.7509 42.3485 40.0571C42.2418 38.9258 42.1777 37.7517 42.1777 36.5456C42.1777 36.4496 42.1777 36.3428 42.1777 36.2361C42.1777 35.6811 42.1777 35.1687 42.1777 34.5924V34.016C42.1777 33.3863 42.3058 32.7673 42.4019 32.1695C42.9033 28.5959 44.0651 25.1466 45.8281 21.9979C47.6464 18.783 50.1364 15.998 53.1286 13.8327C53.2887 13.7046 53.4595 13.5872 53.6196 13.4805L54.228 13.0749C55.022 12.5839 55.8454 12.1419 56.6935 11.7514C59.194 10.5982 61.9031 9.96634 64.6558 9.89429H65.2215C65.5737 9.89429 65.958 9.89429 66.2888 9.89429C66.6197 9.89429 67.2067 9.94764 67.6657 10.0117C67.9112 10.0117 68.1566 10.0117 68.3915 10.1077C68.6263 10.2038 68.7757 10.1718 68.9679 10.2038C70.5575 10.5062 72.1054 10.9971 73.5788 11.666C74.7214 12.1639 75.8149 12.7678 76.8448 13.4698L77.0049 13.5766C77.6653 14.0199 78.2997 14.501 78.9047 15.0175C81.2503 17.0117 83.2172 19.4125 84.711 22.1046C84.8178 22.2647 84.8925 22.4248 84.9886 22.5849C86.5408 25.5434 87.5768 28.7451 88.0518 32.0521C88.0518 32.0521 88.0518 32.0521 88.0518 32.1268C88.1479 32.7246 88.2119 33.3436 88.2652 33.9733C88.2652 34.0801 88.2652 34.1868 88.2652 34.2935C88.2652 34.9126 88.3399 35.553 88.3399 36.1934C88.4147 36.3428 88.4147 36.4496 88.4147 36.5456Z" fill="#F7A99C" stroke="#000C1A" stroke-width="0.533667" stroke-linecap="round" stroke-linejoin="round"/>
<path d="M69.918 39.3312C70.6538 38.4269 71.6308 37.7497 72.7357 37.378C73.7642 37.0098 74.8456 36.8115 75.9377 36.7909C77.0207 36.7669 78.1009 36.9109 79.1398 37.2178C80.2474 37.5217 81.27 38.0769 82.1283 38.8402C81.0777 39.1182 80.0072 39.3145 78.9263 39.4272C77.9123 39.534 76.9197 39.5873 75.9377 39.6087C74.9558 39.63 73.9632 39.6087 72.9706 39.6087C71.978 39.6087 71.092 39.4486 69.918 39.3312Z" fill="#000C1A"/>
<path d="M60.556 39.3313C59.8202 38.4271 58.8432 37.7499 57.7382 37.3781C56.7098 37.01 55.6283 36.8117 54.5362 36.791C53.4532 36.7663 52.3729 36.9104 51.3342 37.218C50.2266 37.5219 49.2039 38.077 48.3457 38.8403C49.3963 39.1184 50.4668 39.3146 51.5477 39.4274C52.615 39.5341 53.5543 39.5875 54.5362 39.6088C55.5182 39.6302 56.5002 39.6088 57.5034 39.6088C58.5067 39.6088 59.3819 39.4487 60.556 39.3313Z" fill="#000C1A"/>
<path d="M69.5661 48.062C71.9036 43.9314 76.4397 41.658 80.3569 45.351H80.2928C80.7411 45.7032 81.2001 46.0447 81.6483 46.4183L81.3388 46.3222C81.4455 46.3863 81.8832 46.1835 82.0539 46.0981C82.3608 45.9545 82.6537 45.783 82.9291 45.5858C82.9534 45.5675 82.9811 45.5544 83.0106 45.5472C83.0401 45.54 83.0707 45.5388 83.1007 45.5438C83.1306 45.5488 83.1592 45.5599 83.1848 45.5762C83.2103 45.5926 83.2323 45.614 83.2494 45.6391C83.4201 46.0127 82.705 46.461 82.4915 46.7065C82.182 47.0351 81.7801 47.2622 81.3388 47.3575C80.6997 47.0764 80.0975 46.718 79.5457 46.2902C78.5481 45.3124 77.2069 44.7647 75.81 44.7647C74.4131 44.7647 73.0719 45.3124 72.0743 46.2902C71.3379 46.8986 70.6654 47.6671 69.9397 48.3715C69.7582 48.5743 69.4273 48.2968 69.5874 48.0727L69.5661 48.062Z" fill="#000C1A"/>
<path d="M73.6222 46.0876C73.6569 45.7022 73.8046 45.3356 74.0469 45.0339C74.2892 44.7322 74.6151 44.5087 74.984 44.3916C75.3528 44.2745 75.748 44.269 76.1199 44.3758C76.4919 44.4825 76.824 44.6967 77.0746 44.9915C77.3252 45.2864 77.4832 45.6487 77.5286 46.033C77.574 46.4173 77.5049 46.8064 77.3299 47.1515C77.1549 47.4966 76.8818 47.7824 76.545 47.9729C76.2082 48.1634 75.8227 48.2501 75.4367 48.2222C75.1771 48.202 74.924 48.1307 74.6921 48.0123C74.4602 47.894 74.2539 47.7309 74.0853 47.5324C73.9166 47.334 73.7889 47.1042 73.7095 46.8563C73.63 46.6083 73.6003 46.347 73.6222 46.0876Z" fill="#000C1A"/>
<path d="M79.3965 47.8699C80.1226 47.7104 80.8021 47.3853 81.3818 46.9199" stroke="#000C1A" stroke-width="0.533667" stroke-linecap="round" stroke-linejoin="round"/>
<path d="M69.7676 45.7352C70.226 44.933 70.8397 44.23 71.5727 43.6675C72.3057 43.1049 73.1434 42.6939 74.0369 42.4585" stroke="#000C1A" stroke-width="0.533667" stroke-linecap="round" stroke-linejoin="round"/>
<path d="M60.5563 48.361C57.8666 45.3297 54.4831 43.099 50.9503 46.2903C50.3985 46.7181 49.7963 47.0765 49.1572 47.3577C48.3714 47.0982 47.6975 46.5787 47.2466 45.8848C47.2061 45.8413 47.1836 45.7841 47.1836 45.7247C47.1836 45.6652 47.2061 45.608 47.2466 45.5646C47.4921 45.3724 48.0791 45.9915 48.3993 46.0662C48.7195 46.1409 49.0077 46.3544 49.1144 46.2903L48.8049 46.3864C49.2532 46.0235 49.7122 45.682 50.1605 45.3191C53.9068 41.7435 58.475 43.7928 60.8338 48.0728C60.8612 48.1204 60.871 48.1761 60.8616 48.2302C60.8522 48.2843 60.8241 48.3334 60.7822 48.369C60.7403 48.4045 60.6873 48.4243 60.6324 48.4248C60.5774 48.4252 60.5241 48.4064 60.4816 48.3717L60.5563 48.361Z" fill="#000C1A"/>
<path d="M56.8535 46.0876C56.8188 45.7022 56.6711 45.3356 56.4288 45.0339C56.1866 44.7322 55.8605 44.5087 55.4917 44.3916C55.1229 44.2745 54.7277 44.269 54.3558 44.3758C53.9839 44.4825 53.6517 44.6967 53.4011 44.9915C53.1505 45.2864 52.9926 45.6487 52.9472 46.033C52.9018 46.4173 52.9708 46.8064 53.1458 47.1515C53.3208 47.4966 53.5939 47.7824 53.9307 47.9729C54.2675 48.1634 54.6531 48.2501 55.039 48.2222C55.2987 48.202 55.5517 48.1307 55.7836 48.0123C56.0155 47.894 56.2218 47.7309 56.3904 47.5324C56.5591 47.334 56.6868 47.1042 56.7662 46.8563C56.8457 46.6083 56.8754 46.347 56.8535 46.0876Z" fill="#000C1A"/>
<path d="M51.079 47.8699C50.3529 47.7104 49.6735 47.3853 49.0938 46.9199" stroke="#000C1A" stroke-width="0.533667" stroke-linecap="round" stroke-linejoin="round"/>
<path d="M60.7068 45.7352C60.2484 44.933 59.6347 44.23 58.9017 43.6675C58.1687 43.1049 57.331 42.6939 56.4375 42.4585" stroke="#000C1A" stroke-width="0.533667" stroke-linecap="round" stroke-linejoin="round"/>
<path d="M65.381 65.5343C66.3416 65.5343 67.2915 65.3742 68.2628 65.2462C69.3633 65.1543 70.453 64.9614 71.5181 64.6698L71.4328 64.0294C70.7036 63.9875 70.0106 63.6975 69.4689 63.2076L69.2341 63.0154C68.6836 62.5117 68.0425 62.1169 67.3449 61.8521C66.6496 62.1692 65.8943 62.3333 65.1302 62.3333C64.366 62.3333 63.6107 62.1692 62.9154 61.8521C62.2191 62.1194 61.5785 62.5139 61.0263 63.0154L60.8021 63.2076C60.2544 63.6946 59.5592 63.984 58.8276 64.0294L58.7422 64.6698C60.0778 65.0849 61.4565 65.3464 62.8514 65.449C63.6904 65.5518 64.5369 65.5804 65.381 65.5343Z" fill="#000C1A"/>
<path d="M70.4824 64.595C71.1897 64.4548 71.8802 64.2401 72.5424 63.9546" stroke="#000C1A" stroke-width="0.619054" stroke-linecap="round" stroke-linejoin="round"/>
<path d="M59.9916 64.595C59.2843 64.4548 58.5938 64.2401 57.9316 63.9546" stroke="#000C1A" stroke-width="0.619054" stroke-linecap="round" stroke-linejoin="round"/>
<path d="M61.6445 67.3169C63.9696 67.8642 66.383 67.9224 68.7316 67.4877" stroke="#000C1A" stroke-width="0.533667" stroke-linecap="round" stroke-linejoin="round"/>
<path d="M62.7344 56.8462C63.4201 57.4439 64.2877 57.7924 65.1964 57.835C66.1051 57.8777 67.0015 57.6119 67.7402 57.081" stroke="#000C1A" stroke-width="0.651074" stroke-linecap="round" stroke-linejoin="round"/>
<path d="M65.2422 45.7034V53.8044" stroke="#000C1A" stroke-width="0.533667" stroke-linecap="round" stroke-linejoin="round"/>
<path d="M67.7182 7.72501C69.006 8.9282 69.8531 10.5285 70.124 12.27C70.3949 14.0115 70.0739 15.7935 69.2125 17.331C68.2354 18.8502 66.8124 20.0298 65.1384 20.7082C63.4644 21.3866 61.6216 21.5305 59.8626 21.1201C60.9299 22.7531 60.0974 25.2613 58.9233 26.8517C58.3004 27.6372 57.4718 28.2346 56.5297 28.5775C55.5876 28.9205 54.5688 28.9955 53.5867 28.7942C55.2624 34.0241 51.8469 40.1507 46.8732 42.8724C48.218 45.466 47.5029 49.5965 46.0833 52.1581C45.3346 53.4528 44.2984 54.5582 43.0549 55.3891C41.8113 56.22 40.3935 56.7542 38.9108 56.9505C39.9389 58.0824 40.6377 59.474 40.9313 60.9747C41.225 62.4753 41.1025 64.0277 40.5769 65.4636C40.0513 66.8995 39.1429 68.1643 37.9499 69.1208C36.7569 70.0773 35.3248 70.6891 33.809 70.8899C31.3434 71.2955 27.565 70.6657 26.4977 68.499C25.9878 67.4026 25.8654 66.1656 26.1504 64.9905C26.4355 63.8154 27.1111 62.7719 28.0667 62.031C26.925 59.8498 26.2524 57.4539 26.0921 54.9973C25.837 51.7962 26.6435 48.6003 28.3869 45.9036C29.3036 44.5371 30.5187 43.3966 31.9406 42.5683C33.3624 41.74 34.9538 41.2454 36.5947 41.1219C35.1565 39.2354 34.2587 36.9932 33.9973 34.6354C33.736 32.2777 34.121 29.8932 35.1111 27.7375C36.2222 25.4639 37.8732 23.4969 39.9198 22.0085C41.9665 20.52 44.3464 19.5554 46.8518 19.1989C46.7974 17.8115 47.0683 16.4308 47.6428 15.1668C48.2174 13.9029 49.0796 12.7909 50.1606 11.9197C51.3296 11.0342 52.6738 10.4078 54.1037 10.082C55.5336 9.75632 57.0165 9.73873 58.4537 10.0305C59.1902 8.34407 61.8265 7.36212 63.7157 7.06327C64.6556 6.92515 65.615 7.01393 66.5137 7.32215C67.4124 7.63037 68.2242 8.1491 68.8816 8.83505" fill="#000C1A"/>
<path d="M69.9277 8.98456C68.9529 10.6775 68.4614 12.6056 68.5068 14.5586C68.5522 16.5117 69.1328 18.4148 70.1852 20.0607C71.2377 21.7065 72.7217 23.032 74.4755 23.8925C76.2293 24.7531 78.1857 25.1158 80.1314 24.9412C78.3276 26.9478 78.6372 30.2779 80.3129 32.4125C81.1809 33.4486 82.3759 34.1581 83.7011 34.4239C85.0262 34.6897 86.4024 34.496 87.6028 33.8748C86.2598 34.874 85.3477 36.3471 85.0519 37.9947C84.9757 38.7809 85.1573 39.5705 85.5694 40.2444C85.9814 40.9183 86.6014 41.4399 87.3359 41.7304C87.7074 41.8421 88.0989 41.8712 88.4828 41.8156C88.8667 41.76 89.2338 41.621 89.5582 41.4085C89.8827 41.1959 90.1567 40.9148 90.361 40.5851C90.5652 40.2553 90.6949 39.8848 90.7407 39.4996C90.7407 35.0702 93.4838 30.8969 92.0002 26.6916C91.2377 24.6041 90.0444 22.7003 88.4979 21.1042C86.9514 19.508 85.0864 18.2552 83.0239 17.4272C81.551 11.7063 75.8194 8.89917 69.9277 8.98456Z" fill="#000C1A"/>
<path d="M17.5866 133.502C26.2533 137.409 34.1623 138.615 35.2616 136.192C36.361 133.769 30.2132 128.635 21.5464 124.729C12.8797 120.822 4.96006 119.606 3.87138 122.028C2.78269 124.451 8.90917 129.596 17.5866 133.502Z" fill="#0C12D7"/>
<path d="M-3.00195 161.733C-3.00195 161.626 -2.92727 161.53 -2.89525 161.424L8.65332 128.432L11.1722 121.238L16.2527 106.723C16.9521 104.592 18.1193 102.644 19.6687 101.023C21.2182 99.4014 23.1107 98.147 25.2077 97.3515C26.4651 96.9028 27.7897 96.6718 29.1248 96.6685C30.3606 96.6694 31.5875 96.8786 32.7537 97.2875C39.5633 99.6783 42.6159 108.217 39.4032 115.891L32.7857 131.645L30.3842 137.355L28.431 142.009L20.1378 161.733" fill="#F7A99C"/>
<path d="M-3.00195 161.733C-3.00195 161.626 -2.92727 161.53 -2.89525 161.424L8.65332 128.432L11.1722 121.238L16.2527 106.723C16.9521 104.592 18.1193 102.644 19.6687 101.023C21.2182 99.4014 23.1107 98.147 25.2077 97.3515C26.4651 96.9028 27.7897 96.6718 29.1248 96.6685C30.3606 96.6694 31.5875 96.8786 32.7537 97.2875C39.5633 99.6783 42.6159 108.217 39.4032 115.891L32.7857 131.645L30.3842 137.355L28.431 142.009L20.1378 161.733" stroke="#000C1A" stroke-width="0.533667" stroke-linecap="round" stroke-linejoin="round"/>
<path d="M4.05273 121.74C5.65374 119.712 13.2532 120.993 21.5357 124.718C30.2131 128.635 36.3609 133.769 35.2509 136.203C35.2264 136.251 35.1978 136.298 35.1655 136.341H35.2509L44.8569 113.927C48.6139 105.111 44.5581 95.0569 36.0194 92.079C34.4459 91.5226 32.7893 91.2375 31.1203 91.2358C28.127 91.292 25.2067 92.17 22.6787 93.7738C20.1507 95.3775 18.1122 97.6454 16.786 100.33L4.05273 121.74Z" fill="#0075FF"/>
<path d="M111.234 133.502C102.567 137.409 94.6476 138.615 93.5589 136.192C92.4702 133.769 98.5967 128.635 107.274 124.729C115.952 120.822 123.85 119.606 124.949 122.028C126.049 124.451 119.901 129.596 111.234 133.502Z" fill="#0C12D7"/>
<path d="M108.683 161.733L99.888 140.824L98.4365 137.355L96.0349 131.645L94.4446 127.92L91.7442 121.516L89.4175 115.987C86.2155 108.313 89.2573 99.7745 96.0669 97.3837C97.2295 96.9749 98.4529 96.7655 99.6852 96.7646C100.769 96.7672 101.847 96.9217 102.887 97.2236C105.149 97.9403 107.208 99.1853 108.893 100.856C110.579 102.526 111.842 104.574 112.579 106.83L117.659 121.345L120.178 128.539L131.727 161.53C131.727 161.637 131.801 161.733 131.833 161.84" fill="#F7A99C"/>
<path d="M108.683 161.733L99.888 140.824L98.4365 137.355L96.0349 131.645L94.4446 127.92L91.7442 121.516L89.4175 115.987C86.2155 108.313 89.2573 99.7745 96.0669 97.3837C97.2295 96.9749 98.4529 96.7655 99.6852 96.7646C100.769 96.7672 101.847 96.9217 102.887 97.2236C105.149 97.9403 107.208 99.1853 108.893 100.856C110.579 102.526 111.842 104.574 112.579 106.83L117.659 121.345L120.178 128.539L131.727 161.53C131.727 161.637 131.801 161.733 131.833 161.84" stroke="#000C1A" stroke-width="0.533667" stroke-linecap="round" stroke-linejoin="round"/>
<path d="M124.756 121.74C123.155 119.712 115.567 120.993 107.273 124.718C98.6066 128.635 92.4588 133.769 93.5581 136.203L93.6542 136.341H93.5581L83.9521 113.927C80.1951 105.111 84.251 95.0569 92.7897 92.079C94.3634 91.5234 96.0198 91.2383 97.6887 91.2358C100.698 91.2774 103.637 92.1497 106.181 93.7563C108.726 95.3629 110.777 97.6414 112.108 100.34L124.756 121.74Z" fill="#0075FF"/>
<path d="M103.571 110.843L100.839 123.907C101.39 125.115 101.812 126.378 102.098 127.675C102.406 129.077 102.56 130.508 102.557 131.944C102.561 133.638 102.338 135.325 101.895 136.96C101.539 138.331 101.027 139.656 100.369 140.91C99.3084 142.955 97.8957 144.797 96.1959 146.353L92.9939 161.819H35.1124L31.9104 145.915C30.0442 144.099 28.5613 141.926 27.5493 139.526C26.5373 137.127 26.0169 134.548 26.0187 131.944C26.0208 130.324 26.2215 128.711 26.6164 127.141C26.8583 126.181 27.1686 125.239 27.545 124.323L24.8232 110.843C23.6598 105.89 23.884 101.045 25.6344 97.3943C26.3256 95.862 27.373 94.5172 28.6893 93.4719C30.0057 92.4266 31.5529 91.7112 33.2019 91.3852C34.1886 91.1827 35.1937 91.0825 36.2011 91.0863H93.5596C94.5493 91.0819 95.5368 91.182 96.5054 91.3852C98.0401 91.6845 99.4718 92.374 100.663 93.3872C101.853 94.4004 102.763 95.7032 103.304 97.1701C104.809 100.81 104.703 105.752 103.571 110.843Z" fill="#0075FF"/>
<path d="M103.571 110.843C102.791 115.219 101.97 119.595 101.073 123.95C104.606 130.749 102.61 141.112 96.1953 146.31C99.1121 143.459 101.095 139.79 101.882 135.788C102.669 131.786 102.223 127.64 100.603 123.896C101.493 119.463 102.482 115.112 103.571 110.843Z" fill="#F7A99C"/>
<path d="M31.8987 145.841C29.0013 143.133 27.0068 139.6 26.1858 135.72C25.3648 131.84 25.757 127.802 27.3092 124.152C26.4446 120.438 25.5907 115.08 24.8223 110.8C25.8896 115.251 26.8609 119.712 27.7681 124.195C26.2969 127.817 25.904 131.788 26.6369 135.628C27.3697 139.468 29.197 143.015 31.8987 145.841Z" fill="#F7A99C"/>
<path d="M78.6803 86.262H49.8516V95.0355H78.6803V86.262Z" fill="#0075FF"/>
<path d="M79.1291 90.7769C79.2252 91.8442 79.2679 92.9862 79.2679 94.1176C79.2679 107.598 72.6077 118.528 64.3893 118.528C56.1708 118.528 49.5 107.641 49.5 94.1176C49.5 93.1499 49.532 92.2 49.596 91.2678" stroke="#F7A99C" stroke-width="0.533667" stroke-linecap="round" stroke-linejoin="round"/>
</g>
<defs>
<clipPath id="clip0_1314_57744">
<rect width="128" height="128" fill="white"/>
</clipPath>
</defs>
</svg>
