<svg width="365" height="302" viewBox="0 0 365 302" fill="none" xmlns="http://www.w3.org/2000/svg">
<g clip-path="url(#clip0_966_55557)">
<path d="M144.598 194.815C147.892 195.041 151.199 194.643 154.345 193.641C170.345 188.695 180.412 190.748 187.105 198.108C190.794 202.187 193.182 207.274 193.963 212.718C194.745 218.162 193.884 223.716 191.492 228.668C189.238 233.29 185.873 237.282 181.699 240.286C177.524 243.29 172.671 245.212 167.572 245.882C164.026 246.294 160.752 247.985 158.363 250.638C155.975 253.292 154.636 256.725 154.599 260.295C154.622 263.32 155.57 266.265 157.314 268.736C159.059 271.207 161.516 273.086 164.359 274.122C167.102 275.161 170.104 275.301 172.932 274.522C187.079 270.815 196.932 276.602 200.692 290.749C201.374 293.41 202.79 295.827 204.778 297.723C206.767 299.619 209.248 300.918 211.938 301.473C214.629 302.028 217.422 301.816 219.998 300.86C222.574 299.905 224.83 298.246 226.509 296.071C228.188 293.896 229.223 291.294 229.495 288.56C229.767 285.826 229.265 283.07 228.047 280.607C226.83 278.145 224.944 276.073 222.607 274.63C220.269 273.186 217.573 272.428 214.826 272.442C213.569 272.441 212.318 272.607 211.106 272.935C202.199 275.268 194.959 273.842 189.905 268.935C187.327 266.309 185.574 262.985 184.863 259.374C184.152 255.763 184.514 252.022 185.905 248.615C190.025 237.948 200.279 228.801 215.452 228.361C218.317 228.291 221.134 227.621 223.723 226.393C226.311 225.165 228.614 223.407 230.48 221.233C232.346 219.06 233.736 216.518 234.558 213.774C235.38 211.029 235.617 208.142 235.253 205.3C234.888 202.458 233.932 199.725 232.444 197.276C230.957 194.827 228.972 192.718 226.618 191.085C224.264 189.451 221.593 188.331 218.779 187.795C215.964 187.259 213.068 187.32 210.279 187.975C190.745 192.481 177.865 187.788 172.065 162.641C170.967 157.896 168.574 153.549 165.151 150.084C161.728 146.619 157.41 144.173 152.679 143.017C147.948 141.861 142.989 142.041 138.354 143.537C133.719 145.034 129.59 147.787 126.428 151.491C123.266 155.196 121.194 159.705 120.443 164.517C119.693 169.329 120.293 174.255 122.176 178.747C124.06 183.238 127.154 187.118 131.112 189.955C135.071 192.792 139.74 194.474 144.598 194.815Z" fill="#77EAE2"/>
<path d="M52.5981 237.175C52.8234 233.877 52.4253 230.566 51.4248 227.415C46.4781 211.415 48.5314 201.348 55.8915 194.668C59.9691 190.976 65.0564 188.586 70.5012 187.805C75.946 187.023 81.5002 187.885 86.4517 190.281C91.0739 192.536 95.0654 195.9 98.0693 200.075C101.073 204.249 102.996 209.102 103.665 214.201C104.074 217.75 105.764 221.027 108.418 223.418C111.072 225.809 114.507 227.15 118.078 227.188C121.103 227.162 124.047 226.214 126.518 224.47C128.989 222.726 130.868 220.269 131.905 217.428C132.945 214.685 133.085 211.682 132.305 208.855C128.599 194.708 134.385 184.801 148.599 181.068C151.259 180.384 153.673 178.966 155.567 176.977C157.462 174.987 158.759 172.506 159.312 169.816C159.865 167.125 159.651 164.333 158.695 161.758C157.739 159.183 156.079 156.928 153.904 155.251C151.729 153.573 149.127 152.54 146.394 152.268C143.66 151.997 140.906 152.499 138.444 153.716C135.981 154.934 133.911 156.819 132.467 159.155C131.024 161.492 130.265 164.188 130.279 166.934C130.283 168.191 130.453 169.442 130.785 170.654C133.119 179.561 131.692 186.788 126.785 191.841C124.168 194.433 120.848 196.201 117.237 196.926C113.625 197.652 109.88 197.302 106.465 195.921C95.7984 191.788 86.6516 181.534 86.2116 166.374C86.1395 163.511 85.4671 160.694 84.2379 158.107C83.0087 155.52 81.2501 153.219 79.0758 151.354C76.9016 149.49 74.3601 148.102 71.6158 147.281C68.8714 146.461 65.9854 146.225 63.1443 146.59C60.3032 146.955 57.5703 147.912 55.1225 149.399C52.6746 150.887 50.5662 152.872 48.9337 155.226C47.3012 157.579 46.181 160.249 45.6455 163.063C45.1099 165.877 45.171 168.772 45.8247 171.561C50.3314 191.108 45.6381 203.975 20.4912 209.775C15.7366 210.861 11.3775 213.247 7.90082 216.668C4.4241 220.088 1.96663 224.407 0.802876 229.144C-0.360882 233.88 -0.185115 238.846 1.31055 243.488C2.80621 248.13 5.56289 252.265 9.2727 255.431C12.9825 258.597 17.4994 260.67 22.3189 261.417C27.1384 262.164 32.0708 261.557 36.5651 259.663C41.0595 257.769 44.9389 254.663 47.7702 250.692C50.6014 246.721 52.2729 242.041 52.5981 237.175Z" fill="#0075FF"/>
<path d="M80.5318 258.496C86.8111 258.334 91.7699 253.112 91.6077 246.833C91.4454 240.554 86.2236 235.595 79.9443 235.757C73.6651 235.919 68.7062 241.141 68.8685 247.42C69.0307 253.7 74.2526 258.658 80.5318 258.496Z" fill="#0C12D7"/>
<path d="M198.799 134.267C202.022 133.594 205.349 133.594 208.572 134.267C214.68 135.749 221.011 136.075 227.239 135.227C255.239 130.267 249.546 88.2005 221.172 90.3472C217.782 90.639 214.42 91.2008 211.119 92.0272C208.756 92.6213 206.329 92.9257 203.892 92.9339C196.207 92.9305 188.807 90.0212 183.176 84.7897C177.546 79.5582 174.102 72.3912 173.535 64.7265C172.968 57.0619 175.32 49.4663 180.12 43.4633C184.919 37.4604 191.811 33.4942 199.412 32.3601C204.379 31.6073 209.454 32.1162 214.172 33.8402C242.839 44.0936 266.626 24.3201 271.706 10.0933C272.658 7.36381 274.373 4.9644 276.646 3.17941C278.92 1.39443 281.658 0.298692 284.536 0.0220434C287.413 -0.254605 290.31 0.29943 292.882 1.6185C295.454 2.93757 297.595 4.96638 299.049 7.46453C300.504 9.96269 301.212 12.8255 301.089 15.7136C300.967 18.6018 300.019 21.3944 298.358 23.7603C296.697 26.1263 294.392 27.9666 291.718 29.063C289.043 30.1595 286.11 30.4662 283.266 29.9468C276.933 28.7868 268.026 30.0801 259.466 34.2535C234.132 46.5869 248.626 84.9205 275.733 77.3871L276.386 77.2138C281.525 75.7451 286.936 75.5031 292.186 76.5073C297.435 77.5115 302.375 79.7338 306.609 82.9955C310.843 86.2571 314.252 90.467 316.562 95.2864C318.872 100.106 320.019 105.4 319.91 110.744C319.8 116.087 318.438 121.33 315.933 126.051C313.428 130.772 309.85 134.839 305.487 137.925C301.123 141.011 296.096 143.03 290.81 143.819C285.524 144.608 280.127 144.145 275.053 142.468C244.893 132.561 233.026 143.868 226.159 164.761C224.864 168.698 222.557 172.225 219.469 174.988C216.38 177.751 212.619 179.654 208.563 180.504C204.507 181.354 200.299 181.123 196.36 179.833C192.422 178.543 188.892 176.24 186.125 173.155C183.358 170.069 181.452 166.31 180.596 162.255C179.741 158.2 179.968 153.992 181.253 150.052C182.539 146.112 184.838 142.58 187.92 139.809C191.002 137.039 194.758 135.127 198.812 134.267H198.799Z" fill="#FFD100"/>
<path d="M223.226 125.747C230.045 125.747 235.572 120.22 235.572 113.401C235.572 106.582 230.045 101.054 223.226 101.054C216.407 101.054 210.879 106.582 210.879 113.401C210.879 120.22 216.407 125.747 223.226 125.747Z" fill="#0C12D7"/>
<path d="M278.974 67.6033C285.972 62.2801 287.329 52.2919 282.006 45.294C276.683 38.2962 266.694 36.9386 259.697 42.2618C252.699 47.5851 251.341 57.5733 256.664 64.5711C261.988 71.569 271.976 72.9266 278.974 67.6033Z" fill="#0075FF"/>
<path d="M230.226 10.4934C230.228 11.9301 230.657 13.3337 231.457 14.527C232.257 15.7202 233.393 16.6495 234.721 17.1975C236.049 17.7454 237.509 17.8874 238.918 17.6055C240.327 17.3237 241.62 16.6305 242.635 15.6137C243.65 14.5969 244.341 13.3021 244.62 11.8929C244.9 10.4836 244.755 9.02321 244.205 7.69616C243.654 6.36912 242.723 5.23501 241.528 4.43712C240.333 3.63923 238.929 3.21338 237.492 3.21338C236.537 3.21338 235.591 3.40178 234.708 3.7678C233.826 4.13382 233.024 4.67027 232.349 5.34646C231.674 6.02265 231.139 6.82531 230.775 7.70848C230.411 8.59166 230.224 9.53802 230.226 10.4934Z" fill="#FFD100"/>
<path d="M303.653 225.601C305.821 223.132 308.43 221.088 311.346 219.575C326.08 211.788 331.693 203.295 331.213 193.414C330.939 187.958 329.043 182.707 325.767 178.334C322.492 173.961 317.986 170.665 312.826 168.868C307.994 167.202 302.825 166.76 297.78 167.581C292.736 168.403 287.973 170.462 283.92 173.574C281.141 175.788 277.648 176.907 274.101 176.72C270.553 176.533 267.197 175.054 264.666 172.561C262.563 170.415 261.164 167.68 260.654 164.719C260.144 161.759 260.548 158.713 261.813 155.988C263.011 153.329 265.023 151.12 267.559 149.681C280.106 142.347 282.999 131.307 275.666 118.761C274.2 116.276 273.506 113.412 273.67 110.532C273.835 107.653 274.851 104.886 276.59 102.585C278.329 100.284 280.712 98.5505 283.438 97.6057C286.163 96.6608 289.108 96.5469 291.898 97.2782C294.688 98.0096 297.199 99.5532 299.11 101.713C301.022 103.874 302.249 106.553 302.635 109.411C303.022 112.27 302.551 115.179 301.281 117.769C300.012 120.36 298.002 122.515 295.506 123.961C287.6 128.574 283.506 134.627 283.44 141.681C283.453 145.341 284.541 148.917 286.571 151.963C288.6 155.009 291.48 157.392 294.853 158.814C305.24 163.401 318.853 162.641 329.84 152.281C331.901 150.318 334.351 148.81 337.032 147.854C339.712 146.898 342.564 146.515 345.402 146.731C348.239 146.946 351.001 147.755 353.506 149.105C356.012 150.455 358.206 152.315 359.947 154.567C361.688 156.818 362.937 159.41 363.613 162.175C364.29 164.939 364.378 167.815 363.873 170.616C363.367 173.416 362.28 176.08 360.68 178.434C359.081 180.788 357.005 182.78 354.587 184.281C337.693 194.841 331.92 207.188 345.52 228.921C348.092 233.031 349.471 237.775 349.503 242.623C349.536 247.47 348.22 252.232 345.704 256.376C343.188 260.52 339.569 263.883 335.253 266.09C330.936 268.297 326.092 269.261 321.259 268.875C316.426 268.489 311.796 266.767 307.885 263.902C303.974 261.038 300.936 257.142 299.11 252.651C297.284 248.16 296.742 243.25 297.544 238.469C298.346 233.688 300.461 229.224 303.653 225.575V225.601Z" fill="#EE4FE8"/>
</g>
<defs>
<clipPath id="clip0_966_55557">
<rect width="364.157" height="301.682" fill="white"/>
</clipPath>
</defs>
</svg>
