<svg width="435" height="304" viewBox="0 0 435 304" fill="none" xmlns="http://www.w3.org/2000/svg">
<g clip-path="url(#clip0_1028_57364)">
<path d="M426.349 303.23H28.2794C27.2718 303.231 26.2738 303.034 25.3426 302.649C24.4115 302.264 23.5654 301.699 22.8529 300.987C22.1404 300.274 21.5755 299.428 21.1905 298.497C20.8056 297.566 20.6081 296.568 20.6094 295.56C20.6081 294.553 20.8056 293.555 21.1905 292.623C21.5755 291.692 22.1404 290.846 22.8529 290.134C23.5654 289.421 24.4115 288.856 25.3426 288.471C26.2738 288.086 27.2718 287.889 28.2794 287.89H426.349C427.357 287.889 428.356 288.086 429.288 288.471C430.219 288.856 431.066 289.421 431.779 290.133C432.493 290.845 433.059 291.691 433.445 292.623C433.831 293.554 434.029 294.552 434.029 295.56C434.029 296.568 433.831 297.566 433.445 298.498C433.059 299.429 432.493 300.275 431.779 300.987C431.066 301.7 430.219 302.264 429.288 302.649C428.356 303.034 427.357 303.231 426.349 303.23Z" fill="#E0EBFF"/>
<path d="M388.058 0H137.848C125.637 0 115.738 9.89898 115.738 22.11V189.1C115.738 201.311 125.637 211.21 137.848 211.21H388.058C400.269 211.21 410.168 201.311 410.168 189.1V22.11C410.168 9.89898 400.269 0 388.058 0Z" fill="#F9F9FF"/>
<path opacity="0.5" d="M137.848 0H388.058C393.922 0 399.546 2.32944 403.692 6.47587C407.839 10.6223 410.168 16.2461 410.168 22.11V32.11H115.738V22.11C115.738 16.2461 118.068 10.6223 122.214 6.47587C126.361 2.32944 131.984 0 137.848 0Z" fill="#E0EBFF"/>
<path d="M360.899 20.9H186.729C185.443 20.9 184.209 20.389 183.299 19.4794C182.39 18.5699 181.879 17.3362 181.879 16.0499C181.879 14.7636 182.39 13.53 183.299 12.6205C184.209 11.7109 185.443 11.2 186.729 11.2H360.899C361.536 11.2 362.166 11.3254 362.755 11.5691C363.343 11.8129 363.878 12.1701 364.328 12.6205C364.779 13.0708 365.136 13.6055 365.38 14.1939C365.623 14.7824 365.749 15.413 365.749 16.0499C365.749 16.6869 365.623 17.3175 365.38 17.906C365.136 18.4944 364.779 19.0291 364.328 19.4794C363.878 19.9298 363.343 20.287 362.755 20.5308C362.166 20.7745 361.536 20.9 360.899 20.9Z" fill="#F9F9FF"/>
<path d="M136.879 16.05C136.879 16.8412 136.644 17.6145 136.205 18.2723C135.765 18.9301 135.141 19.4428 134.41 19.7456C133.679 20.0483 132.874 20.1275 132.099 19.9732C131.323 19.8188 130.61 19.4379 130.05 18.8785C129.491 18.3191 129.11 17.6063 128.956 16.8304C128.801 16.0545 128.881 15.2502 129.183 14.5193C129.486 13.7884 129.999 13.1637 130.657 12.7242C131.314 12.2846 132.088 12.05 132.879 12.05C133.94 12.05 134.957 12.4715 135.707 13.2216C136.457 13.9718 136.879 14.9892 136.879 16.05Z" fill="#F9F9FF"/>
<path d="M151.672 16.05C151.672 16.8412 151.437 17.6145 150.998 18.2723C150.558 18.9301 149.934 19.4428 149.203 19.7456C148.472 20.0483 147.667 20.1275 146.892 19.9732C146.116 19.8188 145.403 19.4379 144.843 18.8785C144.284 18.3191 143.903 17.6063 143.749 16.8304C143.594 16.0545 143.674 15.2502 143.976 14.5193C144.279 13.7884 144.792 13.1637 145.45 12.7242C146.107 12.2846 146.881 12.05 147.672 12.05C148.733 12.05 149.75 12.4715 150.5 13.2216C151.25 13.9718 151.672 14.9892 151.672 16.05Z" fill="#F9F9FF"/>
<path d="M166.211 16.05C166.211 16.8412 165.976 17.6145 165.537 18.2723C165.097 18.9301 164.473 19.4428 163.742 19.7456C163.011 20.0483 162.207 20.1275 161.431 19.9732C160.655 19.8188 159.942 19.4379 159.383 18.8785C158.823 18.3191 158.442 17.6063 158.288 16.8304C158.133 16.0545 158.213 15.2502 158.515 14.5193C158.818 13.7884 159.331 13.1637 159.989 12.7242C160.646 12.2846 161.42 12.05 162.211 12.05C163.272 12.05 164.289 12.4715 165.039 13.2216C165.79 13.9718 166.211 14.9892 166.211 16.05Z" fill="#F9F9FF"/>
<path d="M283.97 78.3401L259.08 103.23L234.18 78.3401L219.16 93.3601L244.06 118.25L219.16 143.15L234.18 158.17L259.08 133.28L283.97 158.17L298.99 143.15L274.1 118.25L298.99 93.3601L283.97 78.3401Z" fill="#E0EBFF"/>
<path d="M362.422 287.89H260.422L268.472 172.54C268.75 169.179 270.269 166.043 272.733 163.741C275.197 161.44 278.43 160.138 281.802 160.09H358.852C360.455 160.066 362.045 160.378 363.52 161.007C364.994 161.636 366.32 162.567 367.413 163.74C368.505 164.913 369.339 166.303 369.861 167.819C370.383 169.334 370.581 170.943 370.442 172.54L362.422 287.89Z" fill="#0C12D7"/>
<path d="M347.422 287.89H245.422L253.472 172.54C253.75 169.179 255.269 166.043 257.733 163.741C260.197 161.44 263.43 160.138 266.802 160.09H343.852C345.455 160.066 347.045 160.378 348.52 161.007C349.994 161.636 351.32 162.567 352.413 163.74C353.505 164.913 354.339 166.303 354.861 167.819C355.383 169.334 355.581 170.943 355.442 172.54L347.422 287.89Z" fill="#0075FF"/>
<path d="M306.1 160.09C308.983 162.576 311.05 165.872 312.03 169.55C313.32 174.79 312.22 181.79 312.22 181.85C314.22 184.19 316.69 187.33 319.38 191.21C323.222 196.84 326.654 202.739 329.65 208.86C334.93 220.06 343.51 238.21 339.51 257.52C336.44 272.32 325.98 287.89 325.98 287.89H267.98L275.09 160.07L306.1 160.09Z" fill="#0075FF"/>
<path d="M197.55 87.7299C197.84 86.8199 202.5 72.4699 213.47 67.5899C217.02 66.1175 220.793 65.2521 224.63 65.0299C226.816 64.9641 229.003 65.1148 231.16 65.4799C231.16 65.4799 239.01 66.4299 244.73 70.4799C254.8 77.6199 260.63 95.4799 259.56 111.04C259.17 116.57 257.86 122.24 261.46 126.49C263.4 128.78 266.61 129.49 271.17 130.94C280.65 133.84 296.24 137.51 302.51 150.2C308.78 162.89 309.51 180.77 305.42 185.67C301.33 190.57 202.79 190.1 199.3 186.28C195.81 182.46 189.39 163.96 188.63 149.28C187.95 136.28 197.09 130.84 199.3 114.76C200.487 105.722 199.892 96.5392 197.55 87.7299Z" fill="#000C1A"/>
<path d="M253.75 86.3101C256.563 91.8232 258.753 97.6323 260.28 103.63C263.4 115.77 260.94 117.71 263.8 122.39C270.15 132.78 283.93 126.39 297.12 138.29C302.296 143.087 306.041 149.224 307.94 156.02C310.509 164.958 310.095 174.489 306.76 183.17" stroke="#000C1A" stroke-linecap="round" stroke-linejoin="round"/>
<path d="M201.16 110.62C199.32 114.78 196.34 121.37 192.45 129.42C185.34 144.13 183.36 146.8 183.89 152.04C184.83 161.13 192.57 170.64 192.57 170.64" stroke="#000C1A" stroke-linecap="round" stroke-linejoin="round"/>
<path d="M216.281 142.51H241.671C261.741 142.51 283.731 156.88 296.941 170.92C307.501 182.15 315.231 195.8 321.091 210.06C328.731 228.63 336.211 254.36 326.871 273.57C325.471 276.44 322.311 282.74 315.601 286.13C308.231 289.87 300.521 287.64 298.131 287.64H144.341C140.651 251.74 147.771 224.7 152.911 209.94C157.681 196.23 163.261 180.75 177.841 166.06C188.629 155.303 201.797 147.236 216.281 142.51Z" fill="#FFD100"/>
<path d="M215.069 142.51L197.339 288.3L185.879 288.21L203.639 147.06L215.069 142.51Z" fill="#FFD100"/>
<path d="M228.871 153.24C232.285 153.253 235.565 151.91 237.99 149.507C240.414 147.103 241.785 143.834 241.801 140.42L241.901 112.7L216.151 112.61L216.051 140.32C216.043 142.011 216.369 143.686 217.009 145.251C217.649 146.815 218.591 148.238 219.782 149.438C220.973 150.638 222.388 151.592 223.948 152.244C225.508 152.896 227.18 153.235 228.871 153.24Z" fill="#F7A99C"/>
<path d="M216.081 132.56L232.851 123.94C232.264 129.034 229.713 133.698 225.741 136.94C222.936 139.113 219.58 140.457 216.051 140.82L216.081 132.56Z" fill="#FF7769"/>
<path d="M242.531 104.17C242.611 103.75 243.711 103.17 244.051 102.9C244.626 102.537 245.244 102.248 245.891 102.04C247.159 101.621 248.515 101.549 249.821 101.83C251.122 102.132 252.309 102.8 253.243 103.755C254.177 104.71 254.818 105.912 255.091 107.22C255.296 108.772 255.031 110.35 254.331 111.75C253.318 113.877 251.682 115.645 249.641 116.82C247.949 117.777 246.061 118.334 244.121 118.45C242.678 118.473 241.234 118.399 239.801 118.23L242.531 104.17Z" fill="#F7A99C"/>
<path d="M246.059 104.39C244.797 112.534 240.534 119.911 234.109 125.07C232.279 126.49 220.279 135.92 209.279 131.32C195.119 125.4 196.669 102.15 196.769 100.89C197.099 96.6401 198.099 84.1001 208.479 77.4101C216.949 71.9601 226.129 73.9601 227.479 74.2701C233.86 75.8619 239.39 79.833 242.939 85.3701C247.719 93.1701 246.559 101.01 246.059 104.39Z" fill="#F7A99C"/>
<path d="M204.771 100.91C204.608 101.414 204.304 101.86 203.896 102.198C203.488 102.535 202.992 102.75 202.467 102.816C201.941 102.882 201.408 102.797 200.929 102.571C200.45 102.346 200.045 101.988 199.761 101.541C199.478 101.093 199.328 100.575 199.328 100.045C199.329 99.5156 199.48 98.9971 199.764 98.5502C200.048 98.1034 200.454 97.7466 200.933 97.5217C201.413 97.2968 201.946 97.213 202.471 97.28C203.252 97.4661 203.93 97.9496 204.359 98.6276C204.789 99.3057 204.937 100.125 204.771 100.91Z" fill="#000C1A"/>
<path d="M221.119 102.96C220.955 103.461 220.653 103.906 220.246 104.242C219.84 104.578 219.346 104.791 218.823 104.857C218.3 104.923 217.769 104.839 217.292 104.614C216.815 104.39 216.412 104.035 216.129 103.59C215.846 103.145 215.696 102.628 215.695 102.101C215.695 101.574 215.844 101.058 216.126 100.612C216.408 100.167 216.811 99.8105 217.288 99.5853C217.764 99.3601 218.295 99.275 218.819 99.3401C219.6 99.5216 220.279 100.003 220.709 100.68C221.139 101.357 221.286 102.176 221.119 102.96Z" fill="#000C1A"/>
<path d="M209.71 103.63L207.2 107.01C207.092 107.157 207.015 107.325 206.974 107.503C206.934 107.682 206.931 107.867 206.965 108.046C207 108.226 207.072 108.396 207.176 108.547C207.28 108.697 207.415 108.824 207.57 108.92L209.87 110.32" stroke="#000C1A" stroke-width="1.35" stroke-linecap="round" stroke-linejoin="round"/>
<path d="M226.611 111.51C226.52 112.24 226.215 112.927 225.734 113.484C225.252 114.041 224.617 114.442 223.907 114.638C223.198 114.833 222.447 114.814 221.748 114.582C221.05 114.35 220.436 113.917 219.984 113.336C219.532 112.755 219.262 112.054 219.209 111.32C219.156 110.586 219.322 109.853 219.685 109.213C220.049 108.573 220.594 108.056 221.252 107.726C221.91 107.396 222.651 107.269 223.381 107.36C224.358 107.485 225.246 107.991 225.852 108.769C226.457 109.547 226.73 110.532 226.611 111.51Z" fill="#FF7769"/>
<path d="M244.279 113.43C244.258 112.464 244.44 111.505 244.814 110.614C245.188 109.724 245.745 108.922 246.449 108.26C247.643 107.211 249.17 106.62 250.759 106.59" stroke="#000C1A" stroke-width="1.35" stroke-linecap="round" stroke-linejoin="round"/>
<path d="M246.211 108.81C246.692 108.742 247.183 108.789 247.643 108.945C248.103 109.101 248.52 109.363 248.861 109.71C249.135 110.015 249.344 110.372 249.475 110.761C249.606 111.15 249.655 111.561 249.621 111.97" stroke="#000C1A" stroke-width="1.35" stroke-linecap="round" stroke-linejoin="round"/>
<path d="M198.66 105.64C197.978 105.549 197.283 105.656 196.66 105.95C196.737 108.296 196.971 110.635 197.36 112.95L197.72 113.03C198.204 113.09 198.695 113.055 199.165 112.925C199.636 112.796 200.076 112.575 200.461 112.276C200.845 111.976 201.168 111.604 201.409 111.18C201.65 110.756 201.805 110.289 201.865 109.805C201.926 109.321 201.89 108.83 201.761 108.36C201.631 107.89 201.411 107.449 201.111 107.064C200.812 106.68 200.439 106.357 200.015 106.116C199.591 105.875 199.124 105.72 198.64 105.66L198.66 105.64Z" fill="#FF7769"/>
<path d="M206.281 117.11C207.38 115.767 208.903 114.837 210.601 114.473C212.298 114.11 214.068 114.334 215.621 115.11" stroke="#000C1A" stroke-width="1.35" stroke-linecap="round" stroke-linejoin="round"/>
<path d="M195.578 94.49H211.788C211.788 94.49 212.398 89.2199 213.998 86.6199C215.064 84.9689 216.44 83.5394 218.048 82.41C217.584 83.5961 217.213 84.8164 216.938 86.06C216.603 87.4688 216.431 88.9117 216.428 90.36C216.428 90.36 216.428 91.06 216.828 94.49H230.888C230.231 92.7537 230.069 90.8686 230.423 89.046C230.776 87.2233 231.63 85.5349 232.888 84.17C232.509 87.415 232.701 90.7016 233.458 93.88C234.217 96.8473 235.384 99.6946 236.928 102.34C237.801 103.942 238.773 105.488 239.838 106.97C240.833 105.703 241.997 104.58 243.298 103.63C244.838 102.69 246.428 101.85 246.428 101.85C246.937 99.2121 246.994 96.507 246.598 93.8499C245.845 88.9639 243.611 84.4264 240.198 80.8499C236.394 76.9362 231.427 74.3549 226.038 73.49C222.598 72.8632 219.069 72.9141 215.648 73.64C213.379 74.1461 211.187 74.9497 209.128 76.03C204.345 78.3882 200.431 82.2004 197.948 86.92C196.746 89.2953 195.945 91.8532 195.578 94.49Z" fill="#000C1A"/>
<path d="M212.8 143.72C212.8 143.72 197.11 207.99 195.28 229.55C193.45 251.11 192.75 288.3 192.75 288.3L144.28 287.68C142.985 278.53 142.476 269.286 142.76 260.05C143.265 242.002 146.821 224.17 153.28 207.31C159.76 190.69 167.58 170.63 187.91 155.94C195.47 150.512 203.882 146.382 212.8 143.72Z" fill="#EE4FE8"/>
<path d="M180.828 184.3L160.648 287.89H172.728L180.828 184.3Z" fill="#EE4FE8"/>
<path d="M184.35 165.8C183.24 172.03 181.51 182.45 179.96 195.46C178.06 211.4 178.34 215.23 175.22 255.96C174.29 268.18 172.73 287.89 172.73 287.89" stroke="#000C1A" stroke-linecap="round" stroke-linejoin="round"/>
<path d="M228.351 264.75C229.776 266.22 230.957 267.908 231.851 269.75C233.299 273.027 233.983 276.59 233.851 280.17C233.875 281.445 233.825 282.721 233.701 283.99C233.701 283.99 210.011 276.35 206.491 276.65C203.391 276.92 187.961 280.87 184.331 281.8C183.83 281.94 183.301 281.94 182.801 281.8L177.601 280.2L172.701 280.41C172.298 280.425 171.898 280.337 171.538 280.154C171.179 279.972 170.872 279.7 170.647 279.366C170.422 279.031 170.285 278.645 170.251 278.243C170.217 277.842 170.286 277.438 170.451 277.07C170.657 276.614 170.901 276.176 171.181 275.76C172.471 273.824 173.902 271.986 175.461 270.26L167.601 271.68C166.841 271.68 165.601 271.58 165.161 270.81C164.531 269.67 166.091 267.75 167.161 266.46C168.867 264.414 170.922 262.688 173.231 261.36C176.55 259.288 180.123 257.655 183.861 256.5C192.377 253.64 201.527 253.238 210.261 255.34C216.935 257.042 223.126 260.262 228.351 264.75Z" fill="#F7A99C"/>
<path d="M227.1 263.71C227.316 265.459 227.178 267.233 226.693 268.927C226.209 270.621 225.388 272.2 224.28 273.57C223 275.028 221.417 276.188 219.641 276.969C217.865 277.75 215.94 278.133 214 278.09L233.76 283.97C233.852 281.032 233.785 278.091 233.56 275.16C233.21 273.43 231.99 269.41 230.74 267.69C229.615 266.285 228.399 264.956 227.1 263.71Z" fill="#FF7769"/>
<path d="M177.621 280.17C184.338 272.82 193.488 268.149 203.381 267.02" stroke="#000C1A" stroke-linecap="round" stroke-linejoin="round"/>
<path d="M172.719 280.36C175.211 275.837 178.819 272.026 183.199 269.29C183.199 269.29 185.359 267.99 196.729 263.71" stroke="#000C1A" stroke-linecap="round" stroke-linejoin="round"/>
<path d="M175.121 270.28C177.09 267.161 179.888 264.651 183.201 263.03C186.346 261.741 189.627 260.815 192.981 260.27" stroke="#000C1A" stroke-linecap="round" stroke-linejoin="round"/>
<path d="M244.281 142.51C244.281 142.51 239.281 179.33 238.631 201.34C237.981 223.35 237.241 260.96 237.241 260.96L228.371 264.75C228.371 264.75 232.611 277.24 232.871 281.14C233.027 283.524 233.027 285.916 232.871 288.3C245.871 288.05 256.381 288.37 263.631 288.71C269.791 289 278.971 289.05 297.331 289.17C303.861 289.17 309.381 289.17 315.571 286.17C320.116 283.816 324.071 280.466 327.141 276.37C330.141 272.28 334.821 263.63 332.191 242.2C329.521 218.748 320.213 196.545 305.361 178.2C292.861 162.91 280.521 155.5 277.091 153.53C270.354 149.642 263.14 146.647 255.631 144.62C251.901 143.654 248.109 142.949 244.281 142.51Z" fill="#EE4FE8"/>
<path d="M274.028 212.89C274.441 222.29 272.571 231.65 268.578 240.17C266.202 245.175 263.11 249.806 259.398 253.92L278.398 249.04L274.028 212.89Z" fill="#E12FDB"/>
<path d="M299.912 244.22C299.912 244.22 244.572 257.83 237.222 260.96L228.352 264.75" stroke="#000C1A" stroke-linecap="round" stroke-linejoin="round"/>
<path d="M304.19 186.9C304.19 186.9 331.4 238.11 323.3 259.05C322.06 262.25 319.3 269.18 312.48 274.21C306.06 278.93 299.14 279.68 287.22 279.99C273.607 280.347 259.985 279.99 246.41 278.92" stroke="white" stroke-linecap="round" stroke-linejoin="round"/>
<path d="M296.282 168.26C285.062 172.71 279.832 178.7 277.192 182.77C277.192 182.77 269.082 195.26 279.072 249.45" stroke="#000C1A" stroke-linecap="round" stroke-linejoin="round"/>
<path d="M156.602 280.28H234.712V285.34C234.712 286.358 234.307 287.335 233.587 288.055C232.867 288.775 231.89 289.18 230.872 289.18H156.602V280.28Z" fill="#0C12D7"/>
<path d="M164.731 289.17H62.2805C61.1142 289.139 59.9963 288.697 59.1251 287.921C58.2539 287.144 57.6854 286.085 57.5205 284.93L48.2205 208.8C48.1367 208.268 48.1709 207.725 48.3207 207.208C48.4704 206.691 48.7321 206.213 49.087 205.808C49.442 205.404 49.8817 205.082 50.3748 204.867C50.8679 204.651 51.4024 204.546 51.9405 204.56H154.441C155.607 204.591 156.725 205.033 157.596 205.81C158.467 206.586 159.036 207.645 159.201 208.8L168.501 284.93C168.585 285.466 168.55 286.014 168.397 286.535C168.245 287.056 167.979 287.536 167.618 287.942C167.258 288.347 166.812 288.668 166.312 288.88C165.813 289.092 165.273 289.191 164.731 289.17Z" fill="#0C12D7"/>
<path d="M158.731 289.17H56.2805C55.1142 289.139 53.9963 288.697 53.1251 287.921C52.2539 287.144 51.6854 286.085 51.5205 284.93L42.2205 208.8C42.1367 208.268 42.1709 207.725 42.3207 207.208C42.4704 206.691 42.7321 206.213 43.087 205.808C43.442 205.404 43.8817 205.082 44.3748 204.867C44.8679 204.651 45.4024 204.546 45.9405 204.56H148.441C149.607 204.591 150.725 205.033 151.596 205.81C152.467 206.586 153.036 207.645 153.201 208.8L162.501 284.93C162.585 285.466 162.55 286.014 162.397 286.535C162.245 287.056 161.979 287.536 161.618 287.942C161.258 288.347 160.812 288.668 160.312 288.88C159.813 289.092 159.273 289.191 158.731 289.17Z" fill="#0075FF"/>
<path d="M42.1698 208.8C42.9098 208.6 45.6198 232.33 61.1698 253.7C65.5694 259.997 70.873 265.61 76.9098 270.36C76.9098 270.36 85.2798 276.87 116.4 289.17H60.3998C58.2698 289.17 55.6298 289.64 53.7298 288.45C52.1598 287.45 51.4798 285.53 51.2498 283.69C51.0898 282.39 51.1098 281.08 50.9598 279.77C50.8098 278.46 50.5698 277.21 50.4098 275.92C50.0698 273.1 49.7198 270.28 49.4098 267.47C48.8498 262.857 48.2865 258.25 47.7198 253.65C47.1132 248.677 46.5065 243.71 45.8998 238.75C45.3332 234.13 44.7698 229.517 44.2098 224.91C43.7698 221.37 43.3998 217.82 42.9098 214.28C42.2798 210.24 41.9898 208.85 42.1698 208.8Z" fill="#0C12D7"/>
<path d="M45.8906 204.56H148.391C149.557 204.591 150.675 205.033 151.546 205.81C152.417 206.586 152.986 207.645 153.151 208.8L162.451 284.93" stroke="#000C1A" stroke-linecap="round" stroke-linejoin="round"/>
<path d="M105.281 244.75C105.281 245.919 104.934 247.062 104.285 248.034C103.636 249.005 102.713 249.763 101.633 250.21C100.553 250.658 99.3644 250.775 98.218 250.547C97.0715 250.318 96.0185 249.756 95.1919 248.929C94.3654 248.103 93.8025 247.049 93.5745 245.903C93.3465 244.757 93.4635 243.568 93.9108 242.488C94.3581 241.408 95.1156 240.485 96.0875 239.836C97.0594 239.187 98.2021 238.84 99.3709 238.84C100.938 238.84 102.442 239.463 103.55 240.571C104.658 241.679 105.281 243.183 105.281 244.75Z" fill="#FFD100"/>
<path d="M324.07 167.03H335.45C336.632 167.031 337.8 167.275 338.883 167.748C339.966 168.221 340.939 168.913 341.743 169.779C342.546 170.645 343.162 171.668 343.552 172.783C343.942 173.898 344.098 175.082 344.01 176.26L340.54 222.52" stroke="white" stroke-linecap="round" stroke-linejoin="round"/>
<path d="M129.32 120.68H10.96C5.1831 120.68 0.5 125.363 0.5 131.14V210.14C0.5 215.917 5.1831 220.6 10.96 220.6H129.32C135.097 220.6 139.78 215.917 139.78 210.14V131.14C139.78 125.363 135.097 120.68 129.32 120.68Z" fill="#F9F9FF"/>
<path opacity="0.5" d="M11 120.68H129.32C130.694 120.68 132.054 120.951 133.323 121.476C134.592 122.002 135.745 122.772 136.716 123.744C137.688 124.715 138.458 125.868 138.984 127.137C139.509 128.406 139.78 129.766 139.78 131.14V135.87H0.5V131.14C0.49999 129.763 0.771866 128.4 1.30003 127.128C1.82819 125.856 2.60225 124.701 3.57779 123.729C4.55333 122.758 5.71116 121.988 6.98485 121.465C8.25853 120.941 9.62301 120.675 11 120.68Z" fill="#E0EBFF"/>
<path d="M116.469 130.57H34.0791C33.4717 130.57 32.8893 130.329 32.4598 129.899C32.0303 129.47 31.7891 128.887 31.7891 128.28C31.7878 127.978 31.846 127.68 31.9605 127.401C32.075 127.122 32.2435 126.868 32.4563 126.654C32.669 126.441 32.9219 126.271 33.2004 126.155C33.4789 126.04 33.7775 125.98 34.0791 125.98H116.469C117.079 125.98 117.664 126.222 118.095 126.654C118.527 127.085 118.769 127.67 118.769 128.28C118.766 128.888 118.523 129.471 118.092 129.9C117.661 130.329 117.077 130.57 116.469 130.57Z" fill="#F9F9FF"/>
<path d="M10.4983 128.28C10.4983 128.652 10.3878 129.016 10.1807 129.325C9.97372 129.635 9.67951 129.876 9.3354 130.018C8.99129 130.16 8.61277 130.196 8.24782 130.123C7.88286 130.05 7.5479 129.87 7.28538 129.606C7.02286 129.342 6.8446 129.006 6.77319 128.641C6.70179 128.275 6.74045 127.897 6.88428 127.554C7.0281 127.21 7.27062 126.917 7.5811 126.712C7.89158 126.507 8.25603 126.398 8.62828 126.4C8.8747 126.4 9.11869 126.449 9.34622 126.543C9.57375 126.638 9.78035 126.776 9.95412 126.951C10.1279 127.126 10.2654 127.333 10.3588 127.561C10.4522 127.789 10.4996 128.034 10.4983 128.28Z" fill="#F9F9FF"/>
<path d="M17.49 128.28C17.488 128.649 17.3766 129.01 17.17 129.316C16.9633 129.622 16.6706 129.86 16.3287 130C15.9868 130.14 15.6111 130.176 15.2491 130.103C14.887 130.029 14.5547 129.851 14.2942 129.589C14.0337 129.327 13.8566 128.994 13.7852 128.631C13.7139 128.269 13.7515 127.893 13.8933 127.552C14.0351 127.211 14.2748 126.919 14.5821 126.714C14.8894 126.509 15.2505 126.4 15.62 126.4C15.8664 126.4 16.1104 126.449 16.3379 126.543C16.5654 126.638 16.772 126.776 16.9458 126.951C17.1196 127.126 17.2571 127.333 17.3505 127.561C17.4439 127.789 17.4913 128.033 17.49 128.28Z" fill="#F9F9FF"/>
<path d="M24.3689 128.28C24.3669 128.649 24.2556 129.01 24.0489 129.316C23.8422 129.622 23.5495 129.86 23.2076 130C22.8657 130.14 22.4901 130.176 22.128 130.103C21.7659 130.029 21.4336 129.851 21.1731 129.589C20.9126 129.327 20.7355 128.994 20.6641 128.631C20.5928 128.269 20.6304 127.893 20.7722 127.552C20.914 127.211 21.1537 126.919 21.461 126.714C21.7683 126.509 22.1295 126.4 22.4989 126.4C22.7453 126.4 22.9893 126.449 23.2168 126.543C23.4443 126.638 23.6509 126.776 23.8247 126.951C23.9985 127.126 24.136 127.333 24.2294 127.561C24.3228 127.789 24.3702 128.033 24.3689 128.28Z" fill="#F9F9FF"/>
<path d="M80.0819 157.74L68.3119 169.52L56.5319 157.74L49.4219 164.85L61.2019 176.62L49.4219 188.4L56.5319 195.5L68.3119 183.73L80.0819 195.51L87.1919 188.4L75.4119 176.62L87.1919 164.85L80.0819 157.74Z" fill="#E0EBFF"/>
<path d="M129.32 120.68H10.96C5.1831 120.68 0.5 125.363 0.5 131.14V210.14C0.5 215.917 5.1831 220.6 10.96 220.6H129.32C135.097 220.6 139.78 215.917 139.78 210.14V131.14C139.78 125.363 135.097 120.68 129.32 120.68Z" stroke="#000C1A" stroke-linecap="round" stroke-linejoin="round"/>
<path d="M178.129 66.4299L193.599 72.8499" stroke="#E0EBFF" stroke-linecap="round" stroke-linejoin="round"/>
<path d="M177.469 49.5L197.049 68.09" stroke="#E0EBFF" stroke-linecap="round" stroke-linejoin="round"/>
<path d="M194.48 49.22L201.68 64.34" stroke="#E0EBFF" stroke-linecap="round" stroke-linejoin="round"/>
<path d="M381.83 132.29C382.895 129.279 384.315 126.405 386.06 123.73C387.516 121.664 389.442 119.974 391.68 118.8C393.027 118.047 394.47 117.482 395.97 117.12C397.416 116.776 398.836 116.332 400.22 115.79C401.543 115.28 402.785 114.583 403.91 113.72C405.158 112.657 406.091 111.274 406.61 109.72C407.78 106.72 407.75 104.21 406.53 102.36C405.256 100.456 403.401 99.0141 401.24 98.2501C397.94 96.9901 395.314 97.0401 393.36 98.4001C391.124 100.124 389.348 102.374 388.19 104.95L376.12 100.35C377.172 97.4888 378.76 94.8549 380.8 92.5901C382.652 90.5417 384.933 88.9267 387.48 87.8601C390.069 86.7972 392.853 86.2896 395.65 86.3701C398.766 86.4554 401.842 87.0849 404.74 88.2301C411.48 90.7967 416.274 94.1967 419.12 98.4301C421.967 102.663 422.214 107.863 419.86 114.03C419.214 115.802 418.34 117.483 417.26 119.03C416.324 120.332 415.182 121.473 413.88 122.41C412.55 123.341 411.109 124.104 409.59 124.68C408.004 125.293 406.247 125.873 404.32 126.42C402.793 126.854 401.304 127.416 399.87 128.1C398.757 128.631 397.742 129.348 396.87 130.22C396.067 131.051 395.393 131.999 394.87 133.03C394.272 134.207 393.738 135.415 393.27 136.65L381.83 132.29ZM374.57 150.17L379.28 137.95L391.9 142.76L387.23 155.01L374.57 150.17Z" fill="#EE4FE8"/>
<path d="M56.2797 68.9601C55.5089 67.1215 54.9584 65.1981 54.6397 63.2301C54.4431 61.6658 54.6284 60.0771 55.1797 58.6001C55.4765 57.6834 55.9043 56.8144 56.4497 56.0201C56.9755 55.2542 57.4467 54.4522 57.8597 53.6201C58.2536 52.8303 58.533 51.9886 58.6897 51.1201C58.8253 50.0996 58.6765 49.0614 58.2597 48.1201C57.5197 46.2201 56.4697 45.1201 55.1297 44.7501C53.7448 44.4048 52.2854 44.5171 50.9697 45.0701C48.9097 45.8801 47.7197 47.0001 47.3897 48.4501C47.0813 50.1834 47.2049 51.966 47.7497 53.6401L40.2797 56.5901C39.5601 54.8314 39.1866 52.9503 39.1797 51.0501C39.1805 49.3235 39.5558 47.6176 40.2797 46.0501C41.0331 44.4763 42.1058 43.0766 43.4297 41.9401C44.909 40.6691 46.6019 39.6704 48.4297 38.9901C52.6164 37.3501 56.2564 36.9101 59.3497 37.6701C62.443 38.4301 64.7363 40.7267 66.2297 44.5601C66.6747 45.65 66.9772 46.7927 67.1297 47.9601C67.2436 48.9616 67.193 49.9749 66.9797 50.9601C66.7667 51.9481 66.4307 52.9056 65.9797 53.8101C65.4997 54.7501 64.9797 55.8101 64.2797 56.8101C63.7556 57.6502 63.304 58.5334 62.9297 59.4501C62.6397 60.1638 62.4707 60.9208 62.4297 61.6901C62.4 62.4148 62.4809 63.1398 62.6697 63.8401C62.8874 64.6336 63.1477 65.4147 63.4497 66.1801L56.2797 68.9601ZM60.4297 80.2701L57.4297 72.6501L65.2797 69.5801L68.2797 77.2001L60.4297 80.2701Z" fill="#EE4FE8"/>
<path d="M406.901 287.89H374.991L372.871 253.92H409.021L406.901 287.89Z" fill="#FFD100"/>
<path d="M404.691 253.92H377.191V224.97C377.186 223.16 377.538 221.368 378.226 219.694C378.915 218.021 379.927 216.5 381.204 215.218C382.481 213.936 383.999 212.919 385.67 212.224C387.34 211.529 389.132 211.171 390.941 211.17C392.748 211.17 394.537 211.526 396.206 212.218C397.875 212.909 399.391 213.923 400.668 215.201C401.945 216.479 402.957 217.996 403.648 219.665C404.338 221.334 404.693 223.123 404.691 224.93V253.92Z" fill="#77EAE2"/>
<mask id="mask0_1028_57364" style="mask-type:luminance" maskUnits="userSpaceOnUse" x="377" y="211" width="28" height="43">
<path d="M404.691 253.92H377.191V224.97C377.186 223.16 377.538 221.368 378.226 219.694C378.915 218.021 379.927 216.5 381.204 215.218C382.481 213.936 383.999 212.919 385.67 212.224C387.34 211.529 389.132 211.171 390.941 211.17C392.748 211.17 394.537 211.526 396.206 212.218C397.875 212.909 399.391 213.923 400.668 215.201C401.945 216.479 402.957 217.996 403.648 219.665C404.338 221.334 404.693 223.123 404.691 224.93V253.92Z" fill="white"/>
</mask>
<g mask="url(#mask0_1028_57364)">
<path d="M382.212 215.41C382.212 219.26 379.902 219.26 379.902 223.11C379.902 226.96 382.212 226.96 382.212 230.81C382.212 234.66 379.902 234.66 379.902 238.51C379.902 242.36 382.212 242.36 382.212 246.22C382.212 250.08 379.902 250.07 379.902 253.92" stroke="#000C1A" stroke-width="0.5" stroke-linecap="round" stroke-linejoin="round"/>
<path d="M388.282 211.79C388.282 216 385.762 216 385.762 220.21C385.762 224.42 388.282 224.43 388.282 228.64C388.282 232.85 385.762 232.85 385.762 237.06C385.762 241.27 388.282 241.28 388.282 245.49C388.282 249.7 385.762 249.71 385.762 253.92" stroke="#000C1A" stroke-width="0.5" stroke-linecap="round" stroke-linejoin="round"/>
<path d="M397.162 212.17C397.162 216.35 394.652 216.35 394.652 220.52C394.652 224.69 397.162 224.7 397.162 228.88C397.162 233.06 394.652 233.06 394.652 237.23C394.652 241.4 397.162 241.41 397.162 245.59C397.162 249.77 394.652 249.77 394.652 253.95" stroke="#000C1A" stroke-width="0.5" stroke-linecap="round" stroke-linejoin="round"/>
<path d="M403.382 217.17C403.382 220.84 401.172 220.84 401.172 224.51C401.172 228.18 403.382 228.19 403.382 231.86C403.382 235.53 401.172 235.54 401.172 239.21C401.172 242.88 403.382 242.89 403.382 246.56C403.382 250.23 401.172 250.24 401.172 253.91" stroke="#000C1A" stroke-width="0.5" stroke-linecap="round" stroke-linejoin="round"/>
</g>
<path d="M409.018 253.92L406.888 287.92H374.988C383.131 285.715 390.554 281.415 396.519 275.45C402.484 269.485 406.783 262.062 408.988 253.92H409.018Z" fill="#FFD100"/>
<path d="M407.189 259.32C403.632 268.183 397.519 275.789 389.629 281.17" stroke="#000C1A" stroke-width="0.5" stroke-linecap="round" stroke-linejoin="round"/>
</g>
<defs>
<clipPath id="clip0_1028_57364">
<rect width="434.03" height="303.23" fill="white"/>
</clipPath>
</defs>
</svg>
