<svg xmlns="http://www.w3.org/2000/svg" width="616" height="640" viewBox="0 0 616 640"><rect width="100%" height="100%" fill="#DDDDDD"/><path fill="#999999" d="M143.68 272.99v75.91H129.5v-75.91h14.18Zm27.87 75.91h-12.96v-53.86h7.92q2.52 0 3.31 2.36l.84 3.99q1.42-1.58 2.97-2.89 1.55-1.31 3.31-2.26 1.75-.94 3.78-1.49 2.02-.55 4.43-.55 5.09 0 8.38 2.75 3.28 2.76 4.9 7.32 1.26-2.67 3.15-4.59 1.89-1.91 4.15-3.12 2.26-1.21 4.8-1.79 2.55-.57 5.12-.57 4.47 0 7.93 1.36 3.47 1.36 5.83 3.99 2.36 2.62 3.6 6.4 1.23 3.79 1.23 8.67v34.28h-12.97v-34.28q0-5.15-2.26-7.75-2.25-2.6-6.61-2.6-2 0-3.7.69-1.71.68-2.99 1.97-1.29 1.28-2.03 3.23-.73 1.94-.73 4.46v34.28h-13.02v-34.28q0-5.41-2.18-7.88-2.18-2.47-6.38-2.47-2.83 0-5.27 1.4-2.45 1.39-4.55 3.8v39.43Zm103.43-13.91v-9.08q-5.62.26-9.45.97-3.83.71-6.14 1.81-2.31 1.1-3.31 2.57-1 1.47-1 3.2 0 3.41 2.02 4.89 2.02 1.47 5.28 1.47 3.99 0 6.9-1.45 2.92-1.44 5.7-4.38Zm-27.41-28.3-2.31-4.15q9.3-8.5 22.37-8.5 4.72 0 8.45 1.55 3.73 1.54 6.3 4.3t3.91 6.59q1.34 3.83 1.34 8.4v34.02h-5.88q-1.84 0-2.83-.55-1-.55-1.58-2.23l-1.15-3.89q-2.05 1.84-3.99 3.23-1.95 1.39-4.05 2.34-2.1.94-4.48 1.44-2.39.5-5.28.5-3.41 0-6.3-.92-2.89-.92-4.99-2.75-2.1-1.84-3.25-4.57-1.16-2.73-1.16-6.35 0-2.05.68-4.07.69-2.02 2.24-3.86 1.54-1.84 4.01-3.47 2.47-1.62 6.07-2.83 3.59-1.21 8.37-1.97 4.78-.76 10.92-.92v-3.15q0-5.41-2.31-8.01-2.31-2.6-6.67-2.6-3.15 0-5.22.74-2.08.73-3.65 1.65-1.58.92-2.86 1.66-1.29.73-2.86.73-1.37 0-2.31-.71-.95-.71-1.53-1.65Zm71.93 13.97q2.41 0 4.2-.66 1.78-.66 2.97-1.81 1.18-1.16 1.78-2.78.6-1.63.6-3.57 0-3.99-2.38-6.33-2.39-2.34-7.17-2.34-4.78 0-7.17 2.34-2.39 2.34-2.39 6.33 0 1.89.61 3.51.6 1.63 1.78 2.81 1.18 1.18 3 1.84 1.81.66 4.17.66Zm14.65 30.66q0-1.58-.95-2.58-.94-1-2.57-1.55t-3.81-.81q-2.18-.26-4.62-.39t-5.04-.24q-2.6-.1-5.06-.42-2.16 1.21-3.49 2.84-1.34 1.62-1.34 3.77 0 1.42.71 2.66.7 1.23 2.25 2.12 1.55.89 4.02 1.39 2.47.5 6.04.5 3.62 0 6.24-.55 2.63-.55 4.34-1.52 1.7-.97 2.49-2.31.79-1.34.79-2.91Zm-2.58-54.45h15.49v4.83q0 2.31-2.78 2.84l-4.83.89q1.1 2.78 1.1 6.09 0 3.99-1.6 7.22-1.6 3.23-4.44 5.48-2.83 2.26-6.69 3.5-3.86 1.23-8.32 1.23-1.58 0-3.05-.16-1.47-.16-2.88-.42-2.52 1.53-2.52 3.42 0 1.62 1.49 2.38 1.5.77 3.97 1.08 2.46.32 5.61.39 3.15.08 6.46.35 3.31.26 6.46.91 3.15.66 5.62 2.08 2.46 1.42 3.96 3.86t1.5 6.27q0 3.57-1.76 6.93t-5.09 5.99q-3.34 2.62-8.19 4.22-4.86 1.6-11.06 1.6-6.09 0-10.6-1.18-4.52-1.18-7.51-3.15t-4.46-4.54q-1.47-2.57-1.47-5.36 0-3.78 2.28-6.32 2.29-2.55 6.28-4.07-2.16-1.1-3.42-2.94-1.26-1.84-1.26-4.83 0-1.21.45-2.49.45-1.29 1.31-2.55.87-1.26 2.18-2.39 1.31-1.13 3.1-2.02-4.1-2.2-6.43-5.88-2.34-3.68-2.34-8.61 0-3.99 1.6-7.22 1.6-3.23 4.47-5.51 2.86-2.28 6.77-3.49 3.91-1.21 8.53-1.21 3.46 0 6.51.71 3.04.71 5.56 2.07Zm33.92 18.9h24.46q0-2.52-.7-4.75-.71-2.23-2.13-3.91-1.42-1.68-3.6-2.65t-5.06-.97q-5.62 0-8.85 3.2-3.23 3.2-4.12 9.08Zm33.07 7.83h-33.33q.31 4.14 1.47 7.16 1.15 3.02 3.04 4.99 1.89 1.97 4.49 2.94 2.6.97 5.75.97t5.43-.73q2.29-.74 3.99-1.63 1.71-.89 3-1.63 1.28-.73 2.49-.73 1.63 0 2.41 1.2l3.73 4.73q-2.15 2.52-4.83 4.22-2.68 1.71-5.59 2.73-2.91 1.03-5.93 1.45-3.02.42-5.86.42-5.61 0-10.44-1.87-4.83-1.86-8.4-5.51-3.57-3.65-5.62-9.03-2.05-5.38-2.05-12.47 0-5.51 1.79-10.37 1.78-4.85 5.12-8.45 3.33-3.59 8.13-5.69 4.81-2.1 10.84-2.1 5.1 0 9.4 1.62 4.31 1.63 7.4 4.75 3.1 3.13 4.86 7.67 1.76 4.54 1.76 10.37 0 2.94-.63 3.96-.63 1.03-2.42 1.03Zm63.9 13.23h19.47q2.1 0 3.34 1.18 1.23 1.18 1.23 3.12v7.77h-52.08v-4.3q0-1.32.55-2.76.55-1.44 1.76-2.6l23.05-23.1q2.89-2.94 5.17-5.62 2.28-2.67 3.81-5.3 1.52-2.62 2.33-5.33.82-2.7.82-5.69 0-2.73-.79-4.81-.79-2.07-2.23-3.49-1.45-1.42-3.47-2.13-2.02-.7-4.54-.7-2.31 0-4.28.65-1.97.66-3.49 1.84-1.52 1.18-2.57 2.75-1.05 1.58-1.58 3.47-.89 2.42-2.31 3.2-1.41.79-4.09.37l-6.83-1.21q.79-5.46 3.05-9.58t5.64-6.88q3.39-2.75 7.77-4.14 4.39-1.39 9.43-1.39 5.25 0 9.6 1.54 4.36 1.55 7.46 4.39 3.1 2.83 4.83 6.82t1.73 8.87q0 4.21-1.23 7.78-1.24 3.57-3.31 6.82-2.07 3.26-4.86 6.3-2.78 3.05-5.82 6.19l-17.12 17.49q2.47-.74 4.91-1.13 2.44-.39 4.65-.39Z"/></svg>